# MagicaVoxel @ Ephtracy

# group
g Blonde naked man

# material
mtllib Blonde naked man.mtl
usemtl palette

# normals
vn -1 0 0
vn 1 0 0
vn 0 0 1
vn 0 0 -1
vn 0 -1 0
vn 0 1 0

# texcoords
vt 0.0136719 0.5
vt 0.0292969 0.5
vt 0.994141 0.5

# verts
v -6 5 0.5
v -6 5 -0.5
v -6 6 0.5
v -6 6 -0.5
v -5 10 0.5
v -5 10 -0.5
v -5 12 0.5
v -5 12 -0.5
v -4 8 0.5
v -4 8 -0.5
v -4 8 -1.5
v -4 8 -3.5
v -4 9 0.5
v -4 9 -0.5
v -4 9 -1.5
v -4 9 -2.5
v -4 9 -3.5
v -4 10 1.5
v -4 10 0.5
v -4 10 -0.5
v -4 10 -1.5
v -4 10 -2.5
v -4 11 1.5
v -4 11 0.5
v -4 11 -0.5
v -4 11 -1.5
v -3 7 0.5
v -3 7 -2.5
v -3 8 1.5
v -3 8 0.5
v -3 8 -0.5
v -3 8 -1.5
v -3 8 -2.5
v -3 9 0.5
v -3 9 -0.5
v -3 9 -1.5
v -3 10 2.5
v -3 10 1.5
v -3 10 0.5
v -3 10 -1.5
v -3 10 -2.5
v -3 11 2.5
v -3 11 1.5
v -3 11 0.5
v -3 11 -0.5
v -3 11 -1.5
v -3 12 1.5
v -3 12 0.5
v -3 12 -0.5
v -3 12 -2.5
v -2 0 0.5
v -2 0 -0.5
v -2 2 1.5
v -2 2 0.5
v -2 2 -0.5
v -2 2 -1.5
v -2 5 0.5
v -2 5 -0.5
v -2 6 0.5
v -2 6 -0.5
v -2 7 0.5
v -2 7 -1.5
v -2 7 -2.5
v -2 7 -3.5
v -2 8 1.5
v -2 8 0.5
v -2 11 2.5
v -2 11 1.5
v -2 12 2.5
v -2 12 1.5
v -2 12 0.5
v -2 12 -1.5
v -2 12 -2.5
v -2 12 -3.5
v -2 13 0.5
v -2 13 -1.5
v -1 8 -3.5
v -1 8 -4.5
v -1 11 -3.5
v -1 11 -4.5
v -1 12 -1.5
v -1 12 -3.5
v -1 13 -1.5
v -1 13 -3.5
v 0 10 2.5
v 0 10 1.5
v 0 11 2.5
v 0 11 1.5
v 1 0 0.5
v 1 0 -0.5
v 1 2 0.5
v 1 2 -0.5
v 2 7 -1.5
v 2 7 -2.5
v 2 8 -1.5
v 2 8 -2.5
v 3 8 -2.5
v 3 8 -3.5
v 3 9 -2.5
v 3 9 -3.5
v 3 11 2.5
v 3 11 1.5
v 3 12 2.5
v 3 12 1.5
v -3 8 -2.5
v -3 8 -3.5
v -3 9 -2.5
v -3 9 -3.5
v -2 7 -1.5
v -2 7 -2.5
v -2 8 -1.5
v -2 8 -2.5
v -2 10 2.5
v -2 10 1.5
v -2 11 2.5
v -2 11 1.5
v -1 0 0.5
v -1 0 -0.5
v -1 2 0.5
v -1 2 -0.5
v 1 8 -3.5
v 1 8 -4.5
v 1 10 2.5
v 1 10 1.5
v 1 11 -3.5
v 1 11 -4.5
v 1 12 2.5
v 1 12 1.5
v 1 12 -1.5
v 1 12 -3.5
v 1 13 -1.5
v 1 13 -3.5
v 2 0 0.5
v 2 0 -0.5
v 2 2 1.5
v 2 2 0.5
v 2 2 -0.5
v 2 2 -1.5
v 2 5 0.5
v 2 5 -0.5
v 2 6 0.5
v 2 6 -0.5
v 2 7 0.5
v 2 7 -1.5
v 2 7 -2.5
v 2 7 -3.5
v 2 8 1.5
v 2 8 0.5
v 2 12 0.5
v 2 12 -1.5
v 2 12 -2.5
v 2 12 -3.5
v 2 13 0.5
v 2 13 -1.5
v 3 7 0.5
v 3 7 -2.5
v 3 8 1.5
v 3 8 0.5
v 3 8 -0.5
v 3 8 -1.5
v 3 8 -2.5
v 3 9 0.5
v 3 9 -0.5
v 3 9 -1.5
v 3 10 1.5
v 3 10 0.5
v 3 10 -1.5
v 3 10 -2.5
v 3 11 1.5
v 3 11 0.5
v 3 12 1.5
v 3 12 0.5
v 3 12 -1.5
v 3 12 -2.5
v 4 8 0.5
v 4 8 -0.5
v 4 8 -1.5
v 4 8 -3.5
v 4 9 0.5
v 4 9 -0.5
v 4 9 -1.5
v 4 9 -2.5
v 4 9 -3.5
v 4 10 1.5
v 4 10 0.5
v 4 10 -0.5
v 4 10 -1.5
v 4 10 -2.5
v 4 11 2.5
v 4 11 1.5
v 4 11 0.5
v 4 11 -0.5
v 4 12 2.5
v 4 12 1.5
v 4 12 0.5
v 4 12 -1.5
v 5 10 0.5
v 5 10 -0.5
v 5 11 0.5
v 5 11 -0.5
v 6 5 0.5
v 6 5 -0.5
v 6 6 0.5
v 6 6 -0.5
v -3 10 2.5
v -3 11 2.5
v -2 10 2.5
v -2 11 2.5
v -2 12 2.5
v 0 10 2.5
v 0 11 2.5
v 1 10 2.5
v 1 12 2.5
v 3 11 2.5
v 3 12 2.5
v 4 11 2.5
v 4 12 2.5
v -4 10 1.5
v -4 11 1.5
v -3 8 1.5
v -3 10 1.5
v -3 11 1.5
v -3 12 1.5
v -2 2 1.5
v -2 8 1.5
v -2 9 1.5
v -2 10 1.5
v -2 11 1.5
v -2 12 1.5
v -1 2 1.5
v -1 3 1.5
v -1 8 1.5
v -1 9 1.5
v 0 10 1.5
v 0 11 1.5
v 1 2 1.5
v 1 3 1.5
v 1 8 1.5
v 1 9 1.5
v 1 10 1.5
v 1 12 1.5
v 2 2 1.5
v 2 8 1.5
v 2 9 1.5
v 3 8 1.5
v 3 10 1.5
v 3 11 1.5
v 3 12 1.5
v 4 10 1.5
v 4 11 1.5
v -6 5 0.5
v -6 6 0.5
v -5 10 0.5
v -5 12 0.5
v -4 8 0.5
v -4 9 0.5
v -4 10 0.5
v -4 11 0.5
v -3 7 0.5
v -3 8 0.5
v -3 9 0.5
v -3 10 0.5
v -3 11 0.5
v -3 12 0.5
v -2 0 0.5
v -2 2 0.5
v -2 5 0.5
v -2 6 0.5
v -2 7 0.5
v -2 8 0.5
v -2 12 0.5
v -2 13 0.5
v -1 0 0.5
v -1 2 0.5
v 1 0 0.5
v 1 2 0.5
v 2 0 0.5
v 2 2 0.5
v 2 5 0.5
v 2 6 0.5
v 2 7 0.5
v 2 8 0.5
v 2 12 0.5
v 2 13 0.5
v 3 7 0.5
v 3 8 0.5
v 3 9 0.5
v 3 10 0.5
v 3 11 0.5
v 3 12 0.5
v 4 8 0.5
v 4 9 0.5
v 4 10 0.5
v 4 11 0.5
v 4 12 0.5
v 5 10 0.5
v 5 11 0.5
v 6 5 0.5
v 6 6 0.5
v -4 8 -1.5
v -4 9 -1.5
v -3 8 -1.5
v -3 9 -1.5
v 3 8 -1.5
v 3 9 -1.5
v 4 8 -1.5
v 4 9 -1.5
v -2 7 -2.5
v -2 8 -2.5
v 1 8 -2.5
v 2 7 -2.5
v 2 8 -2.5
v 3 11 1.5
v 3 12 1.5
v 4 11 1.5
v 4 12 1.5
v -6 5 -0.5
v -6 6 -0.5
v -5 10 -0.5
v -5 12 -0.5
v -4 8 -0.5
v -4 9 -0.5
v -4 10 -0.5
v -4 11 -0.5
v -3 8 -0.5
v -3 9 -0.5
v -3 11 -0.5
v -3 12 -0.5
v -2 0 -0.5
v -2 2 -0.5
v -2 5 -0.5
v -2 6 -0.5
v -1 0 -0.5
v -1 2 -0.5
v 1 0 -0.5
v 1 2 -0.5
v 2 0 -0.5
v 2 2 -0.5
v 2 5 -0.5
v 2 6 -0.5
v 3 8 -0.5
v 3 9 -0.5
v 4 8 -0.5
v 4 9 -0.5
v 4 10 -0.5
v 4 11 -0.5
v 5 10 -0.5
v 5 11 -0.5
v 6 5 -0.5
v 6 6 -0.5
v -4 10 -1.5
v -4 11 -1.5
v -3 10 -1.5
v -3 11 -1.5
v -2 2 -1.5
v -2 7 -1.5
v -2 8 -1.5
v -2 12 -1.5
v -2 13 -1.5
v -1 12 -1.5
v -1 13 -1.5
v 1 8 -1.5
v 1 12 -1.5
v 1 13 -1.5
v 2 2 -1.5
v 2 7 -1.5
v 2 8 -1.5
v 2 12 -1.5
v 2 13 -1.5
v 3 10 -1.5
v 3 12 -1.5
v 4 10 -1.5
v 4 12 -1.5
v -4 9 -2.5
v -4 10 -2.5
v -3 7 -2.5
v -3 8 -2.5
v -3 9 -2.5
v -3 10 -2.5
v -3 12 -2.5
v -2 7 -2.5
v -2 12 -2.5
v 2 7 -2.5
v 2 12 -2.5
v 3 7 -2.5
v 3 8 -2.5
v 3 9 -2.5
v 3 10 -2.5
v 3 12 -2.5
v 4 9 -2.5
v 4 10 -2.5
v -4 8 -3.5
v -4 9 -3.5
v -3 8 -3.5
v -3 9 -3.5
v -2 7 -3.5
v -2 12 -3.5
v -1 8 -3.5
v -1 11 -3.5
v -1 12 -3.5
v -1 13 -3.5
v 1 8 -3.5
v 1 11 -3.5
v 1 12 -3.5
v 1 13 -3.5
v 2 7 -3.5
v 2 12 -3.5
v 3 8 -3.5
v 3 9 -3.5
v 4 8 -3.5
v 4 9 -3.5
v -1 8 -4.5
v -1 11 -4.5
v 1 8 -4.5
v 1 11 -4.5
v -2 0 0.5
v -1 0 0.5
v 1 0 0.5
v 2 0 0.5
v -2 0 -0.5
v -1 0 -0.5
v 1 0 -0.5
v 2 0 -0.5
v -2 2 1.5
v -1 2 1.5
v 1 2 1.5
v 2 2 1.5
v -2 2 0.5
v -1 2 0.5
v 1 2 0.5
v 2 2 0.5
v -2 2 -0.5
v -1 2 -0.5
v 1 2 -0.5
v 2 2 -0.5
v -2 2 -1.5
v 2 2 -1.5
v -6 5 0.5
v -2 5 0.5
v 2 5 0.5
v 6 5 0.5
v -6 5 -0.5
v -2 5 -0.5
v 2 5 -0.5
v 6 5 -0.5
v -3 7 0.5
v -2 7 0.5
v 2 7 0.5
v 3 7 0.5
v -2 7 -1.5
v 2 7 -1.5
v -3 7 -2.5
v -2 7 -2.5
v 2 7 -2.5
v 3 7 -2.5
v -2 7 -3.5
v 2 7 -3.5
v -3 8 1.5
v -2 8 1.5
v 2 8 1.5
v 3 8 1.5
v -4 8 0.5
v -3 8 0.5
v -2 8 0.5
v 2 8 0.5
v 3 8 0.5
v 4 8 0.5
v -4 8 -0.5
v -3 8 -0.5
v 3 8 -0.5
v 4 8 -0.5
v -4 8 -1.5
v -3 8 -1.5
v -2 8 -1.5
v 1 8 -1.5
v 2 8 -1.5
v 3 8 -1.5
v 4 8 -1.5
v -3 8 -2.5
v -2 8 -2.5
v 1 8 -2.5
v 2 8 -2.5
v 3 8 -2.5
v -4 8 -3.5
v -3 8 -3.5
v -1 8 -3.5
v 1 8 -3.5
v 3 8 -3.5
v 4 8 -3.5
v -1 8 -4.5
v 1 8 -4.5
v -4 9 -0.5
v -3 9 -0.5
v 3 9 -0.5
v 4 9 -0.5
v -4 9 -1.5
v -3 9 -1.5
v 3 9 -1.5
v 4 9 -1.5
v -3 10 2.5
v -2 10 2.5
v 0 10 2.5
v 1 10 2.5
v -4 10 1.5
v -3 10 1.5
v -2 10 1.5
v 0 10 1.5
v 1 10 1.5
v 3 10 1.5
v 4 10 1.5
v -5 10 0.5
v -4 10 0.5
v -3 10 0.5
v 3 10 0.5
v 4 10 0.5
v 5 10 0.5
v -5 10 -0.5
v -4 10 -0.5
v 4 10 -0.5
v 5 10 -0.5
v -2 11 2.5
v 0 11 2.5
v 3 11 2.5
v 4 11 2.5
v -2 11 1.5
v 0 11 1.5
v 3 11 1.5
v 4 11 1.5
v -6 6 0.5
v -2 6 0.5
v 2 6 0.5
v 6 6 0.5
v -6 6 -0.5
v -2 6 -0.5
v 2 6 -0.5
v 6 6 -0.5
v -4 9 -2.5
v -3 9 -2.5
v 3 9 -2.5
v 4 9 -2.5
v -4 9 -3.5
v -3 9 -3.5
v 3 9 -3.5
v 4 9 -3.5
v -4 10 -1.5
v -3 10 -1.5
v 3 10 -1.5
v 4 10 -1.5
v -4 10 -2.5
v -3 10 -2.5
v 3 10 -2.5
v 4 10 -2.5
v -3 11 2.5
v -2 11 2.5
v -4 11 1.5
v -3 11 1.5
v -2 11 1.5
v 3 11 1.5
v 4 11 1.5
v -4 11 0.5
v -3 11 0.5
v 3 11 0.5
v 4 11 0.5
v 5 11 0.5
v -4 11 -0.5
v -3 11 -0.5
v 4 11 -0.5
v 5 11 -0.5
v -4 11 -1.5
v -3 11 -1.5
v -1 11 -3.5
v 1 11 -3.5
v -1 11 -4.5
v 1 11 -4.5
v -2 12 2.5
v 1 12 2.5
v 3 12 2.5
v 4 12 2.5
v -3 12 1.5
v -2 12 1.5
v 1 12 1.5
v 3 12 1.5
v 4 12 1.5
v -5 12 0.5
v -3 12 0.5
v -2 12 0.5
v 2 12 0.5
v 3 12 0.5
v 4 12 0.5
v -5 12 -0.5
v -3 12 -0.5
v -2 12 -1.5
v -1 12 -1.5
v 1 12 -1.5
v 2 12 -1.5
v 3 12 -1.5
v 4 12 -1.5
v -3 12 -2.5
v -2 12 -2.5
v 2 12 -2.5
v 3 12 -2.5
v -2 12 -3.5
v -1 12 -3.5
v 1 12 -3.5
v 2 12 -3.5
v -2 13 0.5
v 2 13 0.5
v -2 13 -1.5
v -1 13 -1.5
v 1 13 -1.5
v 2 13 -1.5
v -1 13 -3.5
v 1 13 -3.5

# faces
f 3/2/1 2/2/1 1/2/1
f 4/2/1 2/2/1 3/2/1
f 7/1/1 6/1/1 5/1/1
f 8/1/1 6/1/1 7/1/1
f 13/2/1 10/2/1 9/2/1
f 14/2/1 10/2/1 13/2/1
f 15/1/1 12/1/1 11/1/1
f 16/1/1 12/1/1 15/1/1
f 17/1/1 12/1/1 16/1/1
f 19/1/1 14/1/1 13/1/1
f 19/1/1 15/1/1 14/1/1
f 19/1/1 16/1/1 15/1/1
f 20/1/1 16/1/1 19/1/1
f 21/1/1 16/1/1 20/1/1
f 22/1/1 16/1/1 21/1/1
f 23/1/1 19/1/1 18/1/1
f 24/1/1 19/1/1 23/1/1
f 25/1/1 21/1/1 20/1/1
f 26/1/1 21/1/1 25/1/1
f 30/1/1 28/1/1 27/1/1
f 31/1/1 28/1/1 30/1/1
f 32/1/1 28/1/1 31/1/1
f 33/1/1 28/1/1 32/1/1
f 34/1/1 30/1/1 29/1/1
f 35/1/1 32/1/1 31/1/1
f 36/1/1 32/1/1 35/1/1
f 38/1/1 34/1/1 29/1/1
f 39/1/1 34/1/1 38/1/1
f 42/1/1 38/1/1 37/1/1
f 43/1/1 38/1/1 42/1/1
f 46/1/1 41/1/1 40/1/1
f 47/1/1 44/1/1 43/1/1
f 48/1/1 44/1/1 47/1/1
f 49/1/1 46/1/1 45/1/1
f 50/1/1 41/1/1 46/1/1
f 50/1/1 46/1/1 49/1/1
f 54/2/1 52/2/1 51/2/1
f 55/2/1 52/2/1 54/2/1
f 57/2/1 54/2/1 53/2/1
f 57/2/1 56/2/1 55/2/1
f 57/2/1 55/2/1 54/2/1
f 58/2/1 56/2/1 57/2/1
f 59/2/1 57/2/1 53/2/1
f 60/2/1 56/2/1 58/2/1
f 61/2/1 59/2/1 53/2/1
f 61/2/1 60/2/1 59/2/1
f 62/2/1 56/2/1 60/2/1
f 62/2/1 60/2/1 61/2/1
f 65/2/1 61/2/1 53/2/1
f 66/2/1 61/2/1 65/2/1
f 69/1/1 68/1/1 67/1/1
f 70/1/1 68/1/1 69/1/1
f 73/1/1 64/1/1 63/1/1
f 74/1/1 64/1/1 73/1/1
f 75/1/1 72/1/1 71/1/1
f 76/1/1 72/1/1 75/1/1
f 79/1/1 78/1/1 77/1/1
f 80/1/1 78/1/1 79/1/1
f 83/1/1 82/1/1 81/1/1
f 84/1/1 82/1/1 83/1/1
f 87/1/1 86/1/1 85/1/1
f 88/1/1 86/1/1 87/1/1
f 91/2/1 90/2/1 89/2/1
f 92/2/1 90/2/1 91/2/1
f 95/1/1 94/1/1 93/1/1
f 96/1/1 94/1/1 95/1/1
f 99/1/1 98/1/1 97/1/1
f 100/1/1 98/1/1 99/1/1
f 103/1/1 102/1/1 101/1/1
f 104/1/1 102/1/1 103/1/1
f 105/1/2 106/1/2 107/1/2
f 107/1/2 106/1/2 108/1/2
f 109/1/2 110/1/2 111/1/2
f 111/1/2 110/1/2 112/1/2
f 113/1/2 114/1/2 115/1/2
f 115/1/2 114/1/2 116/1/2
f 117/2/2 118/2/2 119/2/2
f 119/2/2 118/2/2 120/2/2
f 121/1/2 122/1/2 125/1/2
f 125/1/2 122/1/2 126/1/2
f 123/1/2 124/1/2 127/1/2
f 127/1/2 124/1/2 128/1/2
f 129/1/2 130/1/2 131/1/2
f 131/1/2 130/1/2 132/1/2
f 133/2/2 134/2/2 136/2/2
f 136/2/2 134/2/2 137/2/2
f 135/2/2 136/2/2 139/2/2
f 137/2/2 138/2/2 139/2/2
f 136/2/2 137/2/2 139/2/2
f 139/2/2 138/2/2 140/2/2
f 135/2/2 139/2/2 141/2/2
f 140/2/2 138/2/2 142/2/2
f 135/2/2 141/2/2 143/2/2
f 141/2/2 142/2/2 143/2/2
f 142/2/2 138/2/2 144/2/2
f 143/2/2 142/2/2 144/2/2
f 135/2/2 143/2/2 147/2/2
f 147/2/2 143/2/2 148/2/2
f 145/1/2 146/1/2 151/1/2
f 151/1/2 146/1/2 152/1/2
f 149/1/2 150/1/2 153/1/2
f 153/1/2 150/1/2 154/1/2
f 155/1/2 156/1/2 158/1/2
f 158/1/2 156/1/2 159/1/2
f 159/1/2 156/1/2 160/1/2
f 160/1/2 156/1/2 161/1/2
f 157/1/2 158/1/2 162/1/2
f 159/1/2 160/1/2 163/1/2
f 163/1/2 160/1/2 164/1/2
f 157/1/2 162/1/2 165/1/2
f 165/1/2 162/1/2 166/1/2
f 169/1/2 170/1/2 171/1/2
f 171/1/2 170/1/2 172/1/2
f 167/1/2 168/1/2 173/1/2
f 173/1/2 168/1/2 174/1/2
f 175/2/2 176/2/2 179/2/2
f 179/2/2 176/2/2 180/2/2
f 177/1/2 178/1/2 181/1/2
f 181/1/2 178/1/2 182/1/2
f 182/1/2 178/1/2 183/1/2
f 179/1/2 180/1/2 185/1/2
f 180/1/2 181/1/2 185/1/2
f 181/1/2 182/1/2 185/1/2
f 185/1/2 182/1/2 186/1/2
f 186/1/2 182/1/2 187/1/2
f 187/1/2 182/1/2 188/1/2
f 184/1/2 185/1/2 190/1/2
f 190/1/2 185/1/2 191/1/2
f 186/1/2 187/1/2 192/1/2
f 189/1/2 190/1/2 193/1/2
f 193/1/2 190/1/2 194/1/2
f 191/1/2 192/1/2 195/1/2
f 192/1/2 187/1/2 196/1/2
f 195/1/2 192/1/2 196/1/2
f 197/1/2 198/1/2 199/1/2
f 199/1/2 198/1/2 200/1/2
f 201/2/2 202/2/2 203/2/2
f 203/2/2 202/2/2 204/2/2
f 207/1/3 206/1/3 205/1/3
f 208/1/3 206/1/3 207/1/3
f 211/1/3 209/1/3 208/1/3
f 212/1/3 211/1/3 210/1/3
f 213/1/3 209/1/3 211/1/3
f 213/1/3 211/1/3 212/1/3
f 216/1/3 215/1/3 214/1/3
f 217/1/3 215/1/3 216/1/3
f 221/1/3 219/1/3 218/1/3
f 222/1/3 219/1/3 221/1/3
f 225/1/3 221/1/3 220/1/3
f 226/1/3 221/1/3 225/1/3
f 227/1/3 221/1/3 226/1/3
f 228/1/3 223/1/3 222/1/3
f 229/1/3 223/1/3 228/1/3
f 230/2/3 225/2/3 224/2/3
f 231/2/3 225/2/3 230/2/3
f 232/3/3 226/3/3 225/3/3
f 232/2/3 225/2/3 231/2/3
f 233/1/3 227/1/3 226/1/3
f 233/3/3 226/3/3 232/3/3
f 233/1/3 228/1/3 227/1/3
f 234/1/3 228/1/3 233/1/3
f 235/1/3 228/1/3 234/1/3
f 236/1/3 231/1/3 230/1/3
f 237/2/3 232/2/3 231/2/3
f 237/1/3 231/1/3 236/1/3
f 237/2/3 233/2/3 232/2/3
f 238/2/3 233/2/3 237/2/3
f 239/1/3 234/1/3 233/1/3
f 239/2/3 233/2/3 238/2/3
f 240/1/3 234/1/3 239/1/3
f 242/2/3 238/2/3 237/2/3
f 242/2/3 237/2/3 236/2/3
f 243/3/3 239/3/3 238/3/3
f 243/2/3 238/2/3 242/2/3
f 244/1/3 240/1/3 239/1/3
f 244/3/3 239/3/3 243/3/3
f 244/1/3 241/1/3 240/1/3
f 245/1/3 244/1/3 243/1/3
f 246/1/3 241/1/3 244/1/3
f 246/1/3 244/1/3 245/1/3
f 247/1/3 241/1/3 246/1/3
f 248/1/3 241/1/3 247/1/3
f 249/1/3 247/1/3 246/1/3
f 250/1/3 247/1/3 249/1/3
f 257/1/3 254/1/3 253/1/3
f 258/1/3 254/1/3 257/1/3
f 260/2/3 256/2/3 255/2/3
f 261/1/3 257/1/3 256/1/3
f 261/2/3 256/2/3 260/2/3
f 262/1/3 257/1/3 261/1/3
f 263/1/3 254/1/3 258/1/3
f 264/1/3 254/1/3 263/1/3
f 267/2/3 252/2/3 251/2/3
f 268/2/3 252/2/3 267/2/3
f 269/1/3 260/1/3 259/1/3
f 270/1/3 260/1/3 269/1/3
f 273/2/3 266/2/3 265/2/3
f 274/2/3 266/2/3 273/2/3
f 277/2/3 276/2/3 275/2/3
f 278/2/3 276/2/3 277/2/3
f 283/1/3 272/1/3 271/1/3
f 284/1/3 272/1/3 283/1/3
f 285/1/3 282/1/3 281/1/3
f 286/1/3 282/1/3 285/1/3
f 291/2/3 287/2/3 286/2/3
f 292/1/3 288/1/3 287/1/3
f 292/2/3 287/2/3 291/2/3
f 293/1/3 288/1/3 292/1/3
f 294/1/3 290/1/3 289/1/3
f 295/1/3 290/1/3 294/1/3
f 296/1/3 294/1/3 293/1/3
f 297/1/3 294/1/3 296/1/3
f 298/2/3 280/2/3 279/2/3
f 299/2/3 280/2/3 298/2/3
f 302/1/3 301/1/3 300/1/3
f 303/1/3 301/1/3 302/1/3
f 306/1/3 305/1/3 304/1/3
f 307/1/3 305/1/3 306/1/3
f 310/1/3 309/1/3 308/1/3
f 311/1/3 310/1/3 308/1/3
f 312/1/3 310/1/3 311/1/3
f 313/1/4 314/1/4 315/1/4
f 315/1/4 314/1/4 316/1/4
f 319/1/4 320/1/4 323/1/4
f 323/1/4 320/1/4 324/1/4
f 321/2/4 322/2/4 325/2/4
f 325/2/4 322/2/4 326/2/4
f 324/1/4 320/1/4 327/1/4
f 327/1/4 320/1/4 328/1/4
f 317/2/4 318/2/4 331/2/4
f 331/2/4 318/2/4 332/2/4
f 329/2/4 330/2/4 333/2/4
f 333/2/4 330/2/4 334/2/4
f 335/2/4 336/2/4 337/2/4
f 337/2/4 336/2/4 338/2/4
f 341/2/4 342/2/4 343/2/4
f 343/2/4 342/2/4 344/2/4
f 345/1/4 346/1/4 347/1/4
f 347/1/4 346/1/4 348/1/4
f 339/2/4 340/2/4 349/2/4
f 349/2/4 340/2/4 350/2/4
f 351/1/4 352/1/4 353/1/4
f 353/1/4 352/1/4 354/1/4
f 358/1/4 359/1/4 360/1/4
f 360/1/4 359/1/4 361/1/4
f 356/2/4 357/2/4 362/2/4
f 355/2/4 356/2/4 362/2/4
f 355/2/4 362/2/4 365/2/4
f 365/2/4 362/2/4 366/2/4
f 366/2/4 362/2/4 367/2/4
f 363/1/4 364/1/4 368/1/4
f 368/1/4 364/1/4 369/1/4
f 370/1/4 371/1/4 372/1/4
f 372/1/4 371/1/4 373/1/4
f 374/1/4 375/1/4 378/1/4
f 378/1/4 375/1/4 379/1/4
f 376/1/4 377/1/4 381/1/4
f 379/1/4 380/1/4 381/1/4
f 378/1/4 379/1/4 381/1/4
f 377/1/4 378/1/4 381/1/4
f 381/1/4 380/1/4 382/1/4
f 383/1/4 384/1/4 385/1/4
f 385/1/4 384/1/4 386/1/4
f 386/1/4 384/1/4 387/1/4
f 387/1/4 384/1/4 388/1/4
f 388/1/4 384/1/4 389/1/4
f 387/1/4 388/1/4 390/1/4
f 390/1/4 388/1/4 391/1/4
f 392/1/4 393/1/4 394/1/4
f 394/1/4 393/1/4 395/1/4
f 396/1/4 397/1/4 398/1/4
f 398/1/4 397/1/4 399/1/4
f 399/1/4 397/1/4 400/1/4
f 396/1/4 398/1/4 402/1/4
f 400/1/4 401/1/4 403/1/4
f 399/1/4 400/1/4 403/1/4
f 403/1/4 401/1/4 404/1/4
f 404/1/4 401/1/4 405/1/4
f 396/1/4 402/1/4 406/1/4
f 402/1/4 403/1/4 406/1/4
f 403/1/4 404/1/4 406/1/4
f 406/1/4 404/1/4 407/1/4
f 408/1/4 409/1/4 410/1/4
f 410/1/4 409/1/4 411/1/4
f 412/1/4 413/1/4 414/1/4
f 414/1/4 413/1/4 415/1/4
f 420/2/5 417/2/5 416/2/5
f 421/2/5 417/2/5 420/2/5
f 422/2/5 419/2/5 418/2/5
f 423/2/5 419/2/5 422/2/5
f 428/2/5 425/2/5 424/2/5
f 429/1/5 426/1/5 425/1/5
f 429/2/5 425/2/5 428/2/5
f 430/2/5 427/2/5 426/2/5
f 430/1/5 426/1/5 429/1/5
f 431/2/5 427/2/5 430/2/5
f 433/2/5 430/2/5 429/2/5
f 434/2/5 430/2/5 433/2/5
f 436/2/5 433/2/5 432/2/5
f 436/2/5 435/2/5 434/2/5
f 436/2/5 434/2/5 433/2/5
f 437/2/5 435/2/5 436/2/5
f 442/2/5 439/2/5 438/2/5
f 443/2/5 439/2/5 442/2/5
f 444/2/5 441/2/5 440/2/5
f 445/2/5 441/2/5 444/2/5
f 450/1/5 447/1/5 446/1/5
f 451/1/5 449/1/5 448/1/5
f 452/1/5 450/1/5 446/1/5
f 453/1/5 450/1/5 452/1/5
f 454/1/5 449/1/5 451/1/5
f 455/1/5 449/1/5 454/1/5
f 456/1/5 454/1/5 453/1/5
f 457/1/5 454/1/5 456/1/5
f 463/1/5 459/1/5 458/1/5
f 464/1/5 459/1/5 463/1/5
f 465/1/5 461/1/5 460/1/5
f 466/1/5 461/1/5 465/1/5
f 468/2/5 463/2/5 462/2/5
f 469/2/5 463/2/5 468/2/5
f 470/2/5 467/2/5 466/2/5
f 471/2/5 467/2/5 470/2/5
f 479/1/5 473/1/5 472/1/5
f 480/2/5 475/2/5 474/2/5
f 481/1/5 476/1/5 475/1/5
f 481/2/5 475/2/5 480/2/5
f 482/1/5 476/1/5 481/1/5
f 483/1/5 478/1/5 477/1/5
f 484/1/5 479/1/5 472/1/5
f 485/1/5 479/1/5 484/1/5
f 488/1/5 478/1/5 483/1/5
f 489/1/5 478/1/5 488/1/5
f 490/1/5 487/1/5 486/1/5
f 491/1/5 487/1/5 490/1/5
f 496/1/5 493/1/5 492/1/5
f 497/1/5 493/1/5 496/1/5
f 498/1/5 495/1/5 494/1/5
f 499/1/5 495/1/5 498/1/5
f 505/1/5 501/1/5 500/1/5
f 506/1/5 501/1/5 505/1/5
f 507/1/5 503/1/5 502/1/5
f 508/1/5 503/1/5 507/1/5
f 512/1/5 505/1/5 504/1/5
f 513/1/5 505/1/5 512/1/5
f 514/1/5 510/1/5 509/1/5
f 515/1/5 510/1/5 514/1/5
f 517/1/5 512/1/5 511/1/5
f 518/1/5 512/1/5 517/1/5
f 519/1/5 516/1/5 515/1/5
f 520/1/5 516/1/5 519/1/5
f 525/1/5 522/1/5 521/1/5
f 526/1/5 522/1/5 525/1/5
f 527/1/5 524/1/5 523/1/5
f 528/1/5 524/1/5 527/1/5
f 529/2/6 530/2/6 533/2/6
f 533/2/6 530/2/6 534/2/6
f 531/2/6 532/2/6 535/2/6
f 535/2/6 532/2/6 536/2/6
f 537/1/6 538/1/6 541/1/6
f 541/1/6 538/1/6 542/1/6
f 539/1/6 540/1/6 543/1/6
f 543/1/6 540/1/6 544/1/6
f 545/1/6 546/1/6 549/1/6
f 549/1/6 546/1/6 550/1/6
f 547/1/6 548/1/6 551/1/6
f 551/1/6 548/1/6 552/1/6
f 553/1/6 554/1/6 556/1/6
f 556/1/6 554/1/6 557/1/6
f 555/1/6 556/1/6 560/1/6
f 560/1/6 556/1/6 561/1/6
f 558/1/6 559/1/6 562/1/6
f 562/1/6 559/1/6 563/1/6
f 563/1/6 564/1/6 567/1/6
f 567/1/6 564/1/6 568/1/6
f 565/1/6 566/1/6 569/1/6
f 569/1/6 566/1/6 570/1/6
f 571/1/6 572/1/6 573/1/6
f 573/1/6 572/1/6 574/1/6
f 575/1/6 576/1/6 580/1/6
f 580/1/6 576/1/6 581/1/6
f 577/1/6 578/1/6 582/1/6
f 582/1/6 578/1/6 583/1/6
f 580/1/6 581/1/6 585/1/6
f 579/1/6 580/1/6 585/1/6
f 581/1/6 582/1/6 585/1/6
f 585/1/6 582/1/6 586/1/6
f 586/1/6 582/1/6 587/1/6
f 587/1/6 582/1/6 588/1/6
f 584/1/6 585/1/6 590/1/6
f 585/1/6 586/1/6 590/1/6
f 590/1/6 586/1/6 591/1/6
f 591/1/6 586/1/6 592/1/6
f 588/1/6 589/1/6 595/1/6
f 587/1/6 588/1/6 595/1/6
f 595/1/6 589/1/6 596/1/6
f 596/1/6 589/1/6 597/1/6
f 592/1/6 593/1/6 598/1/6
f 591/1/6 592/1/6 598/1/6
f 598/1/6 593/1/6 599/1/6
f 595/1/6 596/1/6 600/1/6
f 594/1/6 595/1/6 600/1/6
f 600/1/6 596/1/6 601/1/6
f 599/1/6 593/1/6 602/1/6
f 602/1/6 593/1/6 603/1/6
f 594/1/6 600/1/6 604/1/6
f 604/1/6 600/1/6 605/1/6
f 606/1/6 607/1/6 608/1/6
f 608/1/6 607/1/6 609/1/6
f 609/1/6 607/1/6 610/1/6
f 610/1/6 607/1/6 611/1/6
f 609/1/6 610/1/6 612/1/6
f 612/1/6 610/1/6 613/1/6
