# MagicaVoxel @ Ephtracy

# group
g Grass_Crn

# material
mtllib Grass_Crn.mtl
usemtl palette

# normals
vn -1 0 0
vn 1 0 0
vn 0 0 1
vn 0 0 -1
vn 0 -1 0
vn 0 1 0

# texcoords
vt 0.373047 0.5
vt 0.435547 0.5

# verts
v -10 0 10
v -10 0 -10
v -10 15 10
v -10 15 9
v -10 16 9
v -10 16 7
v -10 16 -8
v -10 16 -10
v -10 17 7
v -10 17 -8
v -9 15 10
v -9 15 9
v -9 16 10
v -9 16 9
v -9 16 7
v -9 16 -8
v -9 16 -10
v -9 17 9
v -9 17 7
v -9 17 6
v -9 17 -2
v -9 17 -6
v -9 17 -8
v -9 17 -9
v -9 17 -10
v -9 18 6
v -9 18 -2
v -9 18 -6
v -9 18 -9
v -8 17 9
v -8 17 6
v -8 17 -2
v -8 17 -6
v -8 17 -9
v -8 17 -10
v -8 18 9
v -8 18 6
v -8 18 -2
v -8 18 -6
v -8 18 -9
v -8 18 -10
v -7 16 10
v -7 16 9
v -7 17 10
v -7 17 9
v -2 19 -0
v -2 19 -3
v -2 19 -4
v -2 19 -5
v -2 19 -6
v -2 19 -7
v -2 19 -8
v -2 19 -10
v -2 20 -0
v -2 20 -3
v -2 20 -4
v -2 20 -5
v -2 20 -6
v -2 20 -7
v -2 20 -8
v -2 20 -10
v -1 18 -1
v -1 18 -2
v -1 18 -4
v -1 18 -5
v -1 18 -6
v -1 18 -7
v -1 18 -8
v -1 18 -10
v -1 19 1
v -1 19 -0
v -1 19 -1
v -1 19 -2
v -1 19 -3
v -1 19 -4
v -1 19 -5
v -1 19 -6
v -1 19 -7
v -1 19 -8
v -1 19 -10
v -1 20 1
v -1 20 -0
v -1 20 -3
v -1 20 -4
v -1 20 -5
v -1 20 -6
v -1 20 -7
v -1 20 -8
v 0 18 -0
v 0 18 -1
v 0 18 -2
v 0 18 -4
v 0 18 -5
v 0 18 -6
v 0 18 -7
v 0 18 -8
v 0 19 2
v 0 19 1
v 0 19 -0
v 0 19 -1
v 0 19 -2
v 0 19 -4
v 0 19 -5
v 0 19 -6
v 0 19 -7
v 0 19 -8
v 0 20 2
v 0 20 1
v 1 18 1
v 1 18 -0
v 1 19 1
v 1 19 -0
v 5 16 10
v 5 16 9
v 5 17 10
v 5 17 9
v 5 17 8
v 5 18 9
v 5 18 8
v 6 18 1
v 6 18 -0
v 6 19 2
v 6 19 1
v 6 19 -0
v 6 20 2
v 6 20 1
v 8 18 1
v 8 18 -0
v 8 19 2
v 8 19 1
v 8 19 -0
v 8 20 2
v 8 20 1
v -2 16 10
v -2 16 9
v -2 17 10
v -2 17 9
v -2 17 8
v -2 18 9
v -2 18 8
v 3 18 1
v 3 18 -0
v 3 19 1
v 3 19 -0
v 4 19 2
v 4 19 1
v 4 20 2
v 4 20 1
v 7 18 1
v 7 18 -0
v 7 19 2
v 7 19 1
v 7 19 -0
v 7 20 2
v 7 20 1
v 9 16 10
v 9 16 9
v 9 17 10
v 9 17 9
v 9 17 8
v 9 18 9
v 9 18 8
v 10 0 10
v 10 0 -10
v 10 16 10
v 10 16 9
v 10 17 9
v 10 17 8
v 10 18 8
v 10 18 1
v 10 18 -0
v 10 19 2
v 10 19 1
v 10 19 -0
v 10 19 -5
v 10 20 2
v 10 20 -5
v 10 20 -10
v -10 0 10
v -10 15 10
v -9 15 10
v -9 16 10
v -7 16 10
v -7 17 10
v -2 16 10
v -2 17 10
v 5 16 10
v 5 17 10
v 9 16 10
v 9 17 10
v 10 0 10
v 10 16 10
v -10 15 9
v -10 16 9
v -9 15 9
v -9 16 9
v -9 17 9
v -8 17 9
v -8 18 9
v -7 16 9
v -7 17 9
v -2 16 9
v -2 17 9
v -2 18 9
v 5 16 9
v 5 17 9
v 5 18 9
v 9 16 9
v 9 17 9
v 9 18 9
v 10 16 9
v 10 17 9
v -2 17 8
v -2 18 8
v 5 17 8
v 5 18 8
v 9 17 8
v 9 18 8
v 10 17 8
v 10 18 8
v -10 16 7
v -10 17 7
v -9 16 7
v -9 17 7
v -9 17 6
v -9 18 6
v -8 17 6
v -8 18 6
v 0 19 2
v 0 20 2
v 4 19 2
v 4 20 2
v 6 19 2
v 6 20 2
v 7 19 2
v 7 20 2
v 8 19 2
v 8 20 2
v 10 19 2
v 10 20 2
v -1 19 1
v -1 20 1
v 0 19 1
v 0 20 1
v 1 18 1
v 1 19 1
v 3 18 1
v 3 19 1
v 4 19 1
v 4 20 1
v 6 18 1
v 6 19 1
v 6 20 1
v 7 18 1
v 7 19 1
v 7 20 1
v 8 18 1
v 8 19 1
v 8 20 1
v 10 18 1
v 10 19 1
v -2 19 -0
v -2 20 -0
v -1 19 -0
v -1 20 -0
v 0 18 -0
v 0 19 -0
v 1 18 -0
v 1 19 -0
v 3 18 -0
v 3 19 -0
v 6 18 -0
v 6 19 -0
v 7 18 -0
v 7 19 -0
v 8 18 -0
v 8 19 -0
v -1 18 -1
v -1 19 -1
v 0 18 -1
v 0 19 -1
v -2 19 -4
v -2 20 -4
v -1 18 -4
v -1 19 -4
v -1 20 -4
v 0 18 -4
v 0 19 -4
v -9 17 -6
v -9 18 -6
v -8 17 -6
v -8 18 -6
v -2 19 -6
v -2 20 -6
v -1 18 -6
v -1 19 -6
v -1 20 -6
v 0 18 -6
v 0 19 -6
v -2 19 -8
v -2 20 -8
v -1 18 -8
v -1 19 -8
v -1 20 -8
v 0 18 -8
v 0 19 -8
v -9 17 -2
v -9 18 -2
v -8 17 -2
v -8 18 -2
v -1 18 -2
v -1 19 -2
v 0 18 -2
v 0 19 -2
v -2 19 -3
v -2 20 -3
v -1 19 -3
v -1 20 -3
v -2 19 -5
v -2 20 -5
v -1 18 -5
v -1 19 -5
v -1 20 -5
v 0 18 -5
v 0 19 -5
v -2 19 -7
v -2 20 -7
v -1 18 -7
v -1 19 -7
v -1 20 -7
v 0 18 -7
v 0 19 -7
v -10 16 -8
v -10 17 -8
v -9 16 -8
v -9 17 -8
v -9 17 -9
v -9 18 -9
v -8 17 -9
v -8 18 -9
v -10 0 -10
v -10 16 -10
v -9 16 -10
v -9 17 -10
v -8 17 -10
v -8 18 -10
v -2 19 -10
v -2 20 -10
v -1 18 -10
v -1 19 -10
v 7 18 -10
v 7 20 -10
v 10 0 -10
v 10 20 -10
v -10 0 10
v 10 0 10
v -10 0 -10
v 10 0 -10
v 0 19 2
v 4 19 2
v 6 19 2
v 7 19 2
v 8 19 2
v 10 19 2
v -1 19 1
v 0 19 1
v 1 19 1
v 3 19 1
v 4 19 1
v 6 19 1
v 7 19 1
v 8 19 1
v 10 19 1
v -2 19 -0
v -1 19 -0
v 0 19 -0
v 1 19 -0
v 3 19 -0
v 6 19 -0
v 7 19 -0
v 8 19 -0
v -1 19 -1
v 0 19 -1
v -1 19 -2
v 0 19 -2
v -2 19 -3
v -1 19 -3
v -2 19 -4
v -1 19 -4
v 0 19 -4
v -2 19 -5
v -1 19 -5
v 0 19 -5
v -2 19 -6
v -1 19 -6
v 0 19 -6
v -2 19 -7
v -1 19 -7
v 0 19 -7
v -2 19 -8
v -1 19 -8
v 0 19 -8
v -2 19 -10
v -1 19 -10
v -10 15 10
v -9 15 10
v -10 15 9
v -9 15 9
v -9 16 10
v -7 16 10
v -2 16 10
v 5 16 10
v 9 16 10
v 10 16 10
v -10 16 9
v -9 16 9
v -7 16 9
v -2 16 9
v 5 16 9
v 9 16 9
v 10 16 9
v -10 16 7
v -9 16 7
v -10 16 -8
v -9 16 -8
v -10 16 -10
v -9 16 -10
v -7 17 10
v -2 17 10
v 5 17 10
v 9 17 10
v -9 17 9
v -8 17 9
v -7 17 9
v -2 17 9
v 5 17 9
v 9 17 9
v 10 17 9
v -2 17 8
v 5 17 8
v 9 17 8
v 10 17 8
v -10 17 7
v -9 17 7
v -9 17 6
v -8 17 6
v -9 17 -2
v -8 17 -2
v -9 17 -6
v -8 17 -6
v -10 17 -8
v -9 17 -8
v -9 17 -9
v -8 17 -9
v -9 17 -10
v -8 17 -10
v -8 18 9
v -2 18 9
v 5 18 9
v 9 18 9
v -2 18 8
v 5 18 8
v 9 18 8
v 10 18 8
v -9 18 6
v -8 18 6
v 1 18 1
v 3 18 1
v 6 18 1
v 7 18 1
v 8 18 1
v 10 18 1
v 0 18 -0
v 1 18 -0
v 3 18 -0
v 6 18 -0
v 7 18 -0
v 8 18 -0
v -1 18 -1
v 0 18 -1
v -9 18 -2
v -8 18 -2
v -1 18 -2
v 0 18 -2
v -1 18 -4
v 0 18 -4
v -1 18 -5
v 0 18 -5
v -9 18 -6
v -8 18 -6
v -1 18 -6
v 0 18 -6
v -1 18 -7
v 0 18 -7
v -1 18 -8
v 0 18 -8
v -9 18 -9
v -8 18 -9
v -8 18 -10
v -1 18 -10
v 0 20 2
v 4 20 2
v 6 20 2
v 7 20 2
v 8 20 2
v 10 20 2
v -1 20 1
v 0 20 1
v 4 20 1
v 6 20 1
v 7 20 1
v 8 20 1
v -2 20 -0
v -1 20 -0
v -2 20 -3
v -1 20 -3
v -2 20 -4
v -1 20 -4
v 6 20 -4
v 8 20 -4
v -2 20 -5
v -1 20 -5
v 6 20 -5
v 7 20 -5
v 8 20 -5
v 10 20 -5
v -2 20 -6
v -1 20 -6
v 6 20 -6
v 7 20 -6
v -2 20 -7
v -1 20 -7
v -2 20 -8
v -1 20 -8
v 6 20 -9
v 7 20 -9
v -2 20 -10
v 7 20 -10
v 10 20 -10

# faces
f 3/1/1 2/1/1 1/1/1
f 4/1/1 2/1/1 3/1/1
f 5/1/1 2/1/1 4/1/1
f 6/1/1 2/1/1 5/1/1
f 7/1/1 2/1/1 6/1/1
f 8/1/1 2/1/1 7/1/1
f 9/1/1 7/1/1 6/1/1
f 10/1/1 7/1/1 9/1/1
f 13/1/1 12/1/1 11/1/1
f 14/1/1 12/1/1 13/1/1
f 18/1/1 15/1/1 14/1/1
f 19/1/1 15/1/1 18/1/1
f 23/1/1 17/1/1 16/1/1
f 24/1/1 17/1/1 23/1/1
f 25/1/1 17/1/1 24/1/1
f 26/1/1 21/1/1 20/1/1
f 27/1/1 21/1/1 26/1/1
f 28/1/1 24/1/1 23/1/1
f 28/1/1 23/1/1 22/1/1
f 29/1/1 24/1/1 28/1/1
f 36/1/1 31/1/1 30/1/1
f 37/1/1 31/1/1 36/1/1
f 38/1/1 33/1/1 32/1/1
f 39/1/1 33/1/1 38/1/1
f 40/1/1 35/1/1 34/1/1
f 41/1/1 35/1/1 40/1/1
f 44/1/1 43/1/1 42/1/1
f 45/1/1 43/1/1 44/1/1
f 54/2/1 47/2/1 46/2/1
f 55/2/1 47/2/1 54/2/1
f 56/2/1 49/2/1 48/2/1
f 57/2/1 49/2/1 56/2/1
f 58/2/1 51/2/1 50/2/1
f 59/2/1 51/2/1 58/2/1
f 60/2/1 53/2/1 52/2/1
f 61/2/1 53/2/1 60/2/1
f 72/2/1 63/2/1 62/2/1
f 73/2/1 63/2/1 72/2/1
f 75/2/1 65/2/1 64/2/1
f 76/2/1 65/2/1 75/2/1
f 77/2/1 67/2/1 66/2/1
f 78/2/1 67/2/1 77/2/1
f 79/2/1 69/2/1 68/2/1
f 80/2/1 69/2/1 79/2/1
f 81/2/1 71/2/1 70/2/1
f 82/2/1 71/2/1 81/2/1
f 83/2/1 75/2/1 74/2/1
f 84/2/1 75/2/1 83/2/1
f 85/2/1 77/2/1 76/2/1
f 86/2/1 77/2/1 85/2/1
f 87/2/1 79/2/1 78/2/1
f 88/2/1 79/2/1 87/2/1
f 99/2/1 90/2/1 89/2/1
f 100/2/1 90/2/1 99/2/1
f 101/2/1 92/2/1 91/2/1
f 102/2/1 92/2/1 101/2/1
f 103/2/1 94/2/1 93/2/1
f 104/2/1 94/2/1 103/2/1
f 105/2/1 96/2/1 95/2/1
f 106/2/1 96/2/1 105/2/1
f 107/2/1 98/2/1 97/2/1
f 108/2/1 98/2/1 107/2/1
f 111/2/1 110/2/1 109/2/1
f 112/2/1 110/2/1 111/2/1
f 115/1/1 114/1/1 113/1/1
f 116/1/1 114/1/1 115/1/1
f 118/1/1 117/1/1 116/1/1
f 119/1/1 117/1/1 118/1/1
f 123/2/1 121/2/1 120/2/1
f 124/2/1 121/2/1 123/2/1
f 125/2/1 123/2/1 122/2/1
f 126/2/1 123/2/1 125/2/1
f 130/2/1 128/2/1 127/2/1
f 131/2/1 128/2/1 130/2/1
f 132/2/1 130/2/1 129/2/1
f 133/2/1 130/2/1 132/2/1
f 134/1/2 135/1/2 136/1/2
f 136/1/2 135/1/2 137/1/2
f 137/1/2 138/1/2 139/1/2
f 139/1/2 138/1/2 140/1/2
f 141/2/2 142/2/2 143/2/2
f 143/2/2 142/2/2 144/2/2
f 145/2/2 146/2/2 147/2/2
f 147/2/2 146/2/2 148/2/2
f 149/2/2 150/2/2 152/2/2
f 152/2/2 150/2/2 153/2/2
f 151/2/2 152/2/2 154/2/2
f 154/2/2 152/2/2 155/2/2
f 156/1/2 157/1/2 158/1/2
f 158/1/2 157/1/2 159/1/2
f 159/1/2 160/1/2 161/1/2
f 161/1/2 160/1/2 162/1/2
f 163/1/2 164/1/2 165/1/2
f 165/1/2 164/1/2 166/1/2
f 166/1/2 164/1/2 167/1/2
f 167/1/2 164/1/2 168/1/2
f 168/1/2 164/1/2 169/1/2
f 169/1/2 164/1/2 170/1/2
f 170/1/2 164/1/2 171/1/2
f 170/2/2 171/2/2 173/2/2
f 171/1/2 164/1/2 174/1/2
f 173/2/2 171/2/2 174/2/2
f 174/1/2 164/1/2 175/1/2
f 172/2/2 173/2/2 176/2/2
f 173/2/2 174/2/2 176/2/2
f 174/2/2 175/2/2 176/2/2
f 175/1/2 164/1/2 177/1/2
f 176/2/2 175/2/2 177/2/2
f 177/1/2 164/1/2 178/1/2
f 181/1/3 180/1/3 179/1/3
f 183/1/3 182/1/3 181/1/3
f 185/1/3 183/1/3 181/1/3
f 185/1/3 184/1/3 183/1/3
f 186/1/3 184/1/3 185/1/3
f 187/1/3 185/1/3 181/1/3
f 189/1/3 187/1/3 181/1/3
f 189/1/3 188/1/3 187/1/3
f 190/1/3 188/1/3 189/1/3
f 191/1/3 181/1/3 179/1/3
f 191/1/3 189/1/3 181/1/3
f 192/1/3 189/1/3 191/1/3
f 195/1/3 194/1/3 193/1/3
f 196/1/3 194/1/3 195/1/3
f 198/1/3 197/1/3 196/1/3
f 200/1/3 198/1/3 196/1/3
f 200/1/3 199/1/3 198/1/3
f 201/1/3 199/1/3 200/1/3
f 203/1/3 199/1/3 201/1/3
f 204/1/3 199/1/3 203/1/3
f 205/1/3 203/1/3 202/1/3
f 206/1/3 203/1/3 205/1/3
f 209/1/3 207/1/3 206/1/3
f 210/1/3 207/1/3 209/1/3
f 211/1/3 209/1/3 208/1/3
f 212/1/3 209/1/3 211/1/3
f 215/1/3 214/1/3 213/1/3
f 216/1/3 214/1/3 215/1/3
f 219/1/3 218/1/3 217/1/3
f 220/1/3 218/1/3 219/1/3
f 223/1/3 222/1/3 221/1/3
f 224/1/3 222/1/3 223/1/3
f 227/1/3 226/1/3 225/1/3
f 228/1/3 226/1/3 227/1/3
f 231/2/3 230/2/3 229/2/3
f 232/2/3 230/2/3 231/2/3
f 235/2/3 234/2/3 233/2/3
f 236/2/3 234/2/3 235/2/3
f 239/2/3 238/2/3 237/2/3
f 240/2/3 238/2/3 239/2/3
f 243/2/3 242/2/3 241/2/3
f 244/2/3 242/2/3 243/2/3
f 247/2/3 246/2/3 245/2/3
f 248/2/3 246/2/3 247/2/3
f 252/2/3 250/2/3 249/2/3
f 253/2/3 250/2/3 252/2/3
f 254/2/3 252/2/3 251/2/3
f 255/2/3 252/2/3 254/2/3
f 258/2/3 256/2/3 255/2/3
f 259/2/3 256/2/3 258/2/3
f 260/2/3 258/2/3 257/2/3
f 261/2/3 258/2/3 260/2/3
f 264/2/3 263/2/3 262/2/3
f 265/2/3 263/2/3 264/2/3
f 268/2/3 267/2/3 266/2/3
f 269/2/3 267/2/3 268/2/3
f 272/2/3 271/2/3 270/2/3
f 273/2/3 271/2/3 272/2/3
f 276/1/3 275/1/3 274/1/3
f 277/1/3 275/1/3 276/1/3
f 280/2/3 279/2/3 278/2/3
f 281/2/3 279/2/3 280/2/3
f 285/2/3 283/2/3 282/2/3
f 286/2/3 283/2/3 285/2/3
f 287/2/3 285/2/3 284/2/3
f 288/2/3 285/2/3 287/2/3
f 291/1/3 290/1/3 289/1/3
f 292/1/3 290/1/3 291/1/3
f 296/2/3 294/2/3 293/2/3
f 297/2/3 294/2/3 296/2/3
f 298/2/3 296/2/3 295/2/3
f 299/2/3 296/2/3 298/2/3
f 303/2/3 301/2/3 300/2/3
f 304/2/3 301/2/3 303/2/3
f 305/2/3 303/2/3 302/2/3
f 306/2/3 303/2/3 305/2/3
f 307/1/4 308/1/4 309/1/4
f 309/1/4 308/1/4 310/1/4
f 311/2/4 312/2/4 313/2/4
f 313/2/4 312/2/4 314/2/4
f 315/2/4 316/2/4 317/2/4
f 317/2/4 316/2/4 318/2/4
f 319/2/4 320/2/4 322/2/4
f 322/2/4 320/2/4 323/2/4
f 321/2/4 322/2/4 324/2/4
f 324/2/4 322/2/4 325/2/4
f 326/2/4 327/2/4 329/2/4
f 329/2/4 327/2/4 330/2/4
f 328/2/4 329/2/4 331/2/4
f 331/2/4 329/2/4 332/2/4
f 333/1/4 334/1/4 335/1/4
f 335/1/4 334/1/4 336/1/4
f 337/1/4 338/1/4 339/1/4
f 339/1/4 338/1/4 340/1/4
f 341/1/4 342/1/4 343/1/4
f 343/1/4 344/1/4 345/1/4
f 345/1/4 346/1/4 349/1/4
f 347/2/4 348/2/4 350/2/4
f 345/1/4 349/1/4 351/1/4
f 349/2/4 350/2/4 351/2/4
f 350/2/4 348/2/4 352/2/4
f 351/2/4 350/2/4 352/2/4
f 341/1/4 343/1/4 353/1/4
f 343/1/4 345/1/4 353/1/4
f 351/1/4 352/1/4 353/1/4
f 345/1/4 351/1/4 353/1/4
f 353/1/4 352/1/4 354/1/4
f 357/1/5 356/1/5 355/1/5
f 358/1/5 356/1/5 357/1/5
f 366/2/5 360/2/5 359/2/5
f 367/2/5 360/2/5 366/2/5
f 368/2/5 360/2/5 367/2/5
f 369/2/5 360/2/5 368/2/5
f 370/2/5 362/2/5 361/2/5
f 371/2/5 362/2/5 370/2/5
f 372/2/5 364/2/5 363/2/5
f 373/2/5 364/2/5 372/2/5
f 375/2/5 366/2/5 365/2/5
f 375/2/5 367/2/5 366/2/5
f 376/2/5 367/2/5 375/2/5
f 377/2/5 367/2/5 376/2/5
f 378/2/5 369/2/5 368/2/5
f 378/2/5 370/2/5 369/2/5
f 379/2/5 370/2/5 378/2/5
f 380/2/5 372/2/5 371/2/5
f 381/2/5 372/2/5 380/2/5
f 382/2/5 376/2/5 375/2/5
f 382/2/5 375/2/5 374/2/5
f 383/2/5 376/2/5 382/2/5
f 384/2/5 382/2/5 374/2/5
f 386/2/5 384/2/5 374/2/5
f 386/2/5 385/2/5 384/2/5
f 387/2/5 385/2/5 386/2/5
f 389/2/5 385/2/5 387/2/5
f 390/2/5 385/2/5 389/2/5
f 391/2/5 389/2/5 388/2/5
f 392/2/5 389/2/5 391/2/5
f 395/2/5 393/2/5 392/2/5
f 396/2/5 393/2/5 395/2/5
f 397/2/5 395/2/5 394/2/5
f 398/2/5 395/2/5 397/2/5
f 401/2/5 399/2/5 398/2/5
f 402/2/5 399/2/5 401/2/5
f 403/2/5 401/2/5 400/2/5
f 404/2/5 401/2/5 403/2/5
f 405/1/6 406/1/6 407/1/6
f 407/1/6 406/1/6 408/1/6
f 409/1/6 410/1/6 416/1/6
f 416/1/6 410/1/6 417/1/6
f 411/1/6 412/1/6 418/1/6
f 418/1/6 412/1/6 419/1/6
f 413/1/6 414/1/6 420/1/6
f 420/1/6 414/1/6 421/1/6
f 415/1/6 416/1/6 422/1/6
f 422/1/6 416/1/6 423/1/6
f 424/1/6 425/1/6 426/1/6
f 426/1/6 425/1/6 427/1/6
f 428/1/6 429/1/6 434/1/6
f 434/1/6 429/1/6 435/1/6
f 430/1/6 431/1/6 436/1/6
f 436/1/6 431/1/6 437/1/6
f 435/1/6 436/1/6 439/1/6
f 439/1/6 436/1/6 440/1/6
f 437/1/6 438/1/6 441/1/6
f 441/1/6 438/1/6 442/1/6
f 432/1/6 433/1/6 444/1/6
f 444/1/6 433/1/6 445/1/6
f 443/1/6 444/1/6 445/1/6
f 445/1/6 433/1/6 446/1/6
f 443/1/6 445/1/6 447/1/6
f 443/1/6 447/1/6 449/1/6
f 447/1/6 448/1/6 449/1/6
f 449/1/6 448/1/6 450/1/6
f 443/1/6 449/1/6 451/1/6
f 451/1/6 449/1/6 452/1/6
f 453/1/6 454/1/6 455/1/6
f 455/1/6 454/1/6 456/1/6
f 457/1/6 458/1/6 461/1/6
f 459/1/6 460/1/6 462/1/6
f 462/1/6 460/1/6 463/1/6
f 457/1/6 461/1/6 466/1/6
f 463/1/6 464/1/6 466/1/6
f 462/1/6 463/1/6 466/1/6
f 461/1/6 462/1/6 466/1/6
f 466/1/6 464/1/6 467/1/6
f 465/1/6 466/1/6 467/1/6
f 467/1/6 464/1/6 468/1/6
f 468/1/6 464/1/6 469/1/6
f 469/1/6 464/1/6 470/1/6
f 470/1/6 464/1/6 471/1/6
f 471/1/6 464/1/6 472/1/6
f 465/1/6 467/1/6 473/1/6
f 473/1/6 467/1/6 474/1/6
f 468/1/6 469/1/6 475/1/6
f 475/1/6 469/1/6 476/1/6
f 470/1/6 471/1/6 477/1/6
f 477/1/6 471/1/6 478/1/6
f 465/1/6 473/1/6 479/1/6
f 479/1/6 473/1/6 480/1/6
f 465/1/6 479/1/6 481/1/6
f 481/1/6 479/1/6 482/1/6
f 482/1/6 479/1/6 483/1/6
f 483/1/6 484/1/6 485/1/6
f 482/1/6 483/1/6 485/1/6
f 485/1/6 484/1/6 486/1/6
f 482/1/6 485/1/6 487/1/6
f 482/1/6 487/1/6 490/1/6
f 487/1/6 488/1/6 490/1/6
f 490/1/6 488/1/6 491/1/6
f 491/1/6 488/1/6 492/1/6
f 489/1/6 490/1/6 493/1/6
f 490/1/6 491/1/6 493/1/6
f 489/1/6 493/1/6 495/1/6
f 493/1/6 494/1/6 495/1/6
f 495/1/6 494/1/6 496/1/6
f 489/1/6 495/1/6 497/1/6
f 497/1/6 495/1/6 498/1/6
f 498/1/6 495/1/6 499/1/6
f 499/1/6 495/1/6 500/1/6
f 501/2/6 502/2/6 508/2/6
f 508/2/6 502/2/6 509/2/6
f 503/2/6 504/2/6 510/2/6
f 510/2/6 504/2/6 511/2/6
f 505/2/6 506/2/6 512/2/6
f 510/2/6 511/2/6 514/2/6
f 511/2/6 512/2/6 514/2/6
f 508/2/6 509/2/6 514/2/6
f 507/2/6 508/2/6 514/2/6
f 509/2/6 510/2/6 514/2/6
f 513/2/6 514/2/6 515/2/6
f 514/2/6 512/2/6 516/2/6
f 515/2/6 514/2/6 516/2/6
f 516/2/6 512/2/6 518/2/6
f 518/2/6 512/2/6 519/2/6
f 512/2/6 506/2/6 520/2/6
f 519/2/6 512/2/6 520/2/6
f 518/2/6 519/2/6 521/2/6
f 517/2/6 518/2/6 521/2/6
f 521/2/6 519/2/6 522/2/6
f 519/1/6 520/1/6 523/1/6
f 522/2/6 519/2/6 523/2/6
f 523/1/6 520/1/6 524/1/6
f 520/2/6 506/2/6 525/2/6
f 524/1/6 520/1/6 525/1/6
f 525/2/6 506/2/6 526/2/6
f 523/2/6 524/2/6 528/2/6
f 522/2/6 523/2/6 528/2/6
f 528/2/6 524/2/6 529/2/6
f 525/1/6 526/1/6 530/1/6
f 529/2/6 524/2/6 530/2/6
f 524/1/6 525/1/6 530/1/6
f 528/2/6 529/2/6 531/2/6
f 527/2/6 528/2/6 531/2/6
f 531/2/6 529/2/6 532/2/6
f 532/2/6 529/2/6 534/2/6
f 529/1/6 530/1/6 535/1/6
f 533/2/6 534/2/6 535/2/6
f 534/2/6 529/2/6 535/2/6
f 530/1/6 526/1/6 536/1/6
f 535/1/6 530/1/6 536/1/6
f 533/2/6 535/2/6 537/2/6
f 535/2/6 536/2/6 537/2/6
f 536/1/6 526/1/6 538/1/6
f 537/2/6 536/2/6 538/2/6
f 538/1/6 526/1/6 539/1/6
