# MagicaVoxel @ Ephtracy

# group
g Grass_Corner_Chunk

# material
mtllib Grass_Corner_Chunk.mtl
usemtl palette

# normals
vn -1 0 0
vn 1 0 0
vn 0 0 1
vn 0 0 -1
vn 0 -1 0
vn 0 1 0

# texcoords
vt 0.373047 0.5
vt 0.900391 0.5

# verts
v -50 0 50
v -50 0 -50
v -50 3 50
v -50 3 46
v -50 3 -50
v -50 4 47
v -50 4 46
v -50 5 47
v -50 5 -50
v 30 4 46
v 30 4 45
v 30 5 46
v 30 5 45
v 33 4 46
v 33 4 45
v 33 5 46
v 33 5 45
v 39 4 45
v 39 4 44
v 39 5 45
v 39 5 44
v 41 4 45
v 41 4 44
v 41 5 45
v 41 5 44
v 49 0 -38
v 49 0 -50
v 49 1 -38
v 49 1 -50
v 21 3 46
v 21 3 45
v 21 4 46
v 21 4 45
v 23 3 45
v 23 3 44
v 23 4 45
v 23 4 44
v 25 4 47
v 25 4 46
v 25 5 47
v 25 5 46
v 26 4 46
v 26 4 45
v 26 5 46
v 26 5 45
v 31 4 46
v 31 4 45
v 31 5 46
v 31 5 45
v 34 3 44
v 34 3 43
v 34 4 46
v 34 4 45
v 34 4 44
v 34 4 43
v 34 5 46
v 34 5 45
v 37 4 45
v 37 4 44
v 37 5 45
v 37 5 44
v 40 4 45
v 40 4 44
v 40 5 45
v 40 5 44
v 42 3 31
v 42 3 28
v 42 4 45
v 42 4 44
v 42 4 31
v 42 4 28
v 42 5 45
v 42 5 44
v 43 3 43
v 43 3 31
v 43 4 44
v 43 4 43
v 43 4 37
v 43 4 36
v 43 4 31
v 43 4 29
v 43 5 44
v 43 5 43
v 43 5 37
v 43 5 36
v 43 5 31
v 43 5 29
v 44 3 28
v 44 3 15
v 44 4 43
v 44 4 41
v 44 4 40
v 44 4 37
v 44 4 36
v 44 4 35
v 44 4 34
v 44 4 31
v 44 4 28
v 44 4 25
v 44 4 24
v 44 4 15
v 44 5 43
v 44 5 41
v 44 5 40
v 44 5 37
v 44 5 36
v 44 5 35
v 44 5 34
v 44 5 31
v 44 5 25
v 44 5 24
v 45 3 15
v 45 3 12
v 45 4 41
v 45 4 40
v 45 4 35
v 45 4 34
v 45 4 29
v 45 4 28
v 45 4 27
v 45 4 25
v 45 4 24
v 45 4 23
v 45 4 19
v 45 4 17
v 45 4 15
v 45 4 13
v 45 4 12
v 45 5 41
v 45 5 40
v 45 5 35
v 45 5 34
v 45 5 29
v 45 5 28
v 45 5 27
v 45 5 25
v 45 5 24
v 45 5 23
v 45 5 19
v 45 5 17
v 45 5 15
v 45 5 13
v 46 3 12
v 46 3 -50
v 46 4 28
v 46 4 27
v 46 4 23
v 46 4 19
v 46 4 17
v 46 4 15
v 46 4 13
v 46 4 12
v 46 4 -50
v 46 5 28
v 46 5 27
v 46 5 23
v 46 5 19
v 46 5 17
v 46 5 15
v 46 5 13
v 46 5 12
v 47 4 12
v 47 4 -50
v 47 5 12
v 47 5 -50
v 48 0 -38
v 48 0 -50
v 48 1 -38
v 48 1 -50
v 50 0 50
v 50 0 -50
v 50 3 50
v 50 3 -50
v -50 0 50
v -50 3 50
v 50 0 50
v 50 3 50
v -50 4 47
v -50 5 47
v 25 4 47
v 25 5 47
v -50 3 46
v -50 4 46
v 21 3 46
v 21 4 46
v 25 4 46
v 25 5 46
v 26 4 46
v 26 5 46
v 30 4 46
v 30 5 46
v 31 4 46
v 31 5 46
v 33 4 46
v 33 5 46
v 34 4 46
v 34 5 46
v 21 3 45
v 21 4 45
v 23 3 45
v 23 4 45
v 26 4 45
v 26 5 45
v 30 4 45
v 30 5 45
v 31 4 45
v 31 5 45
v 33 4 45
v 33 5 45
v 34 4 45
v 34 5 45
v 37 4 45
v 37 5 45
v 39 4 45
v 39 5 45
v 40 4 45
v 40 5 45
v 41 4 45
v 41 5 45
v 42 4 45
v 42 5 45
v 23 3 44
v 23 4 44
v 34 3 44
v 34 4 44
v 37 4 44
v 37 5 44
v 39 4 44
v 39 5 44
v 40 4 44
v 40 5 44
v 41 4 44
v 41 5 44
v 42 4 44
v 42 5 44
v 43 4 44
v 43 5 44
v 34 3 43
v 34 4 43
v 43 3 43
v 43 4 43
v 43 5 43
v 44 4 43
v 44 5 43
v 44 4 41
v 44 5 41
v 45 4 41
v 45 5 41
v 43 4 36
v 43 5 36
v 44 4 36
v 44 5 36
v 44 4 35
v 44 5 35
v 45 4 35
v 45 5 35
v 43 4 29
v 43 5 29
v 45 4 29
v 45 5 29
v 42 3 28
v 42 4 28
v 44 3 28
v 44 4 28
v 45 4 28
v 45 5 28
v 46 4 28
v 46 5 28
v 44 4 24
v 44 5 24
v 45 4 24
v 45 5 24
v 45 4 23
v 45 5 23
v 46 4 23
v 46 5 23
v 45 4 17
v 45 5 17
v 46 4 17
v 46 5 17
v 44 3 15
v 44 4 15
v 45 3 15
v 45 4 15
v 45 4 13
v 45 5 13
v 46 4 13
v 46 5 13
v 45 3 12
v 45 4 12
v 46 3 12
v 46 4 12
v 46 5 12
v 47 4 12
v 47 5 12
v 44 4 40
v 44 5 40
v 45 4 40
v 45 5 40
v 43 4 37
v 43 5 37
v 44 4 37
v 44 5 37
v 44 4 34
v 44 5 34
v 45 4 34
v 45 5 34
v 42 3 31
v 42 4 31
v 43 3 31
v 43 4 31
v 43 5 31
v 44 4 31
v 44 5 31
v 45 4 27
v 45 5 27
v 46 4 27
v 46 5 27
v 44 4 25
v 44 5 25
v 45 4 25
v 45 5 25
v 45 4 19
v 45 5 19
v 46 4 19
v 46 5 19
v 45 4 15
v 45 5 15
v 46 4 15
v 46 5 15
v 48 0 -38
v 48 1 -38
v 49 0 -38
v 49 1 -38
v -50 0 -50
v -50 3 -50
v -50 5 -50
v 46 3 -50
v 46 4 -50
v 47 4 -50
v 47 5 -50
v 48 0 -50
v 48 1 -50
v 49 0 -50
v 49 1 -50
v 50 0 -50
v 50 3 -50
v -50 0 50
v 50 0 50
v 48 0 -38
v 49 0 -38
v -50 0 -50
v 48 0 -50
v 49 0 -50
v 50 0 -50
v 48 1 -38
v 49 1 -38
v 48 1 -50
v 49 1 -50
v -50 4 47
v 25 4 47
v -50 4 46
v 21 4 46
v 25 4 46
v 26 4 46
v 30 4 46
v 31 4 46
v 33 4 46
v 34 4 46
v 21 4 45
v 23 4 45
v 26 4 45
v 30 4 45
v 31 4 45
v 33 4 45
v 34 4 45
v 37 4 45
v 39 4 45
v 40 4 45
v 41 4 45
v 42 4 45
v 23 4 44
v 34 4 44
v 37 4 44
v 39 4 44
v 40 4 44
v 41 4 44
v 42 4 44
v 43 4 44
v 34 4 43
v 43 4 43
v 44 4 43
v 44 4 41
v 45 4 41
v 44 4 40
v 45 4 40
v 43 4 37
v 44 4 37
v 43 4 36
v 44 4 36
v 44 4 35
v 45 4 35
v 44 4 34
v 45 4 34
v 42 4 31
v 43 4 31
v 44 4 31
v 43 4 29
v 45 4 29
v 42 4 28
v 44 4 28
v 45 4 28
v 46 4 28
v 45 4 27
v 46 4 27
v 44 4 25
v 45 4 25
v 44 4 24
v 45 4 24
v 45 4 23
v 46 4 23
v 45 4 19
v 46 4 19
v 45 4 17
v 46 4 17
v 44 4 15
v 45 4 15
v 46 4 15
v 45 4 13
v 46 4 13
v 45 4 12
v 46 4 12
v 47 4 12
v 46 4 -50
v 47 4 -50
v -50 3 50
v 50 3 50
v -50 3 46
v 21 3 46
v 21 3 45
v 23 3 45
v 23 3 44
v 34 3 44
v 34 3 43
v 43 3 43
v 42 3 31
v 43 3 31
v 42 3 28
v 44 3 28
v 44 3 15
v 45 3 15
v 45 3 12
v 46 3 12
v 46 3 -50
v 50 3 -50
v -50 5 47
v 25 5 47
v 25 5 46
v 26 5 46
v 30 5 46
v 31 5 46
v 33 5 46
v 34 5 46
v 26 5 45
v 30 5 45
v 31 5 45
v 33 5 45
v 34 5 45
v 37 5 45
v 39 5 45
v 40 5 45
v 41 5 45
v 42 5 45
v 37 5 44
v 39 5 44
v 40 5 44
v 41 5 44
v 42 5 44
v 43 5 44
v 43 5 43
v 44 5 43
v 44 5 41
v 45 5 41
v 44 5 40
v 45 5 40
v 43 5 37
v 44 5 37
v 43 5 36
v 44 5 36
v 44 5 35
v 45 5 35
v 44 5 34
v 45 5 34
v 43 5 31
v 44 5 31
v 43 5 29
v 45 5 29
v 45 5 28
v 46 5 28
v 45 5 27
v 46 5 27
v 44 5 25
v 45 5 25
v 44 5 24
v 45 5 24
v 45 5 23
v 46 5 23
v 45 5 19
v 46 5 19
v 45 5 17
v 46 5 17
v 45 5 15
v 46 5 15
v 45 5 13
v 46 5 13
v 46 5 12
v 47 5 12
v -50 5 -50
v 47 5 -50

# faces
f 3/1/1 2/1/1 1/1/1
f 4/1/1 2/1/1 3/1/1
f 5/1/1 2/1/1 4/1/1
f 7/2/1 5/2/1 4/2/1
f 8/2/1 7/2/1 6/2/1
f 9/2/1 5/2/1 7/2/1
f 9/2/1 7/2/1 8/2/1
f 12/2/1 11/2/1 10/2/1
f 13/2/1 11/2/1 12/2/1
f 16/2/1 15/2/1 14/2/1
f 17/2/1 15/2/1 16/2/1
f 20/2/1 19/2/1 18/2/1
f 21/2/1 19/2/1 20/2/1
f 24/2/1 23/2/1 22/2/1
f 25/2/1 23/2/1 24/2/1
f 28/1/1 27/1/1 26/1/1
f 29/1/1 27/1/1 28/1/1
f 30/2/2 31/2/2 32/2/2
f 32/2/2 31/2/2 33/2/2
f 34/2/2 35/2/2 36/2/2
f 36/2/2 35/2/2 37/2/2
f 38/2/2 39/2/2 40/2/2
f 40/2/2 39/2/2 41/2/2
f 42/2/2 43/2/2 44/2/2
f 44/2/2 43/2/2 45/2/2
f 46/2/2 47/2/2 48/2/2
f 48/2/2 47/2/2 49/2/2
f 50/2/2 51/2/2 54/2/2
f 54/2/2 51/2/2 55/2/2
f 52/2/2 53/2/2 56/2/2
f 56/2/2 53/2/2 57/2/2
f 58/2/2 59/2/2 60/2/2
f 60/2/2 59/2/2 61/2/2
f 62/2/2 63/2/2 64/2/2
f 64/2/2 63/2/2 65/2/2
f 66/2/2 67/2/2 70/2/2
f 70/2/2 67/2/2 71/2/2
f 68/2/2 69/2/2 72/2/2
f 72/2/2 69/2/2 73/2/2
f 74/2/2 75/2/2 77/2/2
f 77/2/2 75/2/2 78/2/2
f 78/2/2 75/2/2 79/2/2
f 79/2/2 75/2/2 80/2/2
f 76/2/2 77/2/2 82/2/2
f 82/2/2 77/2/2 83/2/2
f 78/2/2 79/2/2 84/2/2
f 84/2/2 79/2/2 85/2/2
f 80/2/2 81/2/2 86/2/2
f 86/2/2 81/2/2 87/2/2
f 88/2/2 89/2/2 98/2/2
f 98/2/2 89/2/2 99/2/2
f 99/2/2 89/2/2 100/2/2
f 100/2/2 89/2/2 101/2/2
f 90/2/2 91/2/2 102/2/2
f 102/2/2 91/2/2 103/2/2
f 92/2/2 93/2/2 104/2/2
f 104/2/2 93/2/2 105/2/2
f 94/2/2 95/2/2 106/2/2
f 106/2/2 95/2/2 107/2/2
f 96/2/2 97/2/2 108/2/2
f 108/2/2 97/2/2 109/2/2
f 99/2/2 100/2/2 110/2/2
f 110/2/2 100/2/2 111/2/2
f 112/2/2 113/2/2 126/2/2
f 126/2/2 113/2/2 127/2/2
f 127/2/2 113/2/2 128/2/2
f 114/2/2 115/2/2 129/2/2
f 129/2/2 115/2/2 130/2/2
f 116/2/2 117/2/2 131/2/2
f 131/2/2 117/2/2 132/2/2
f 118/2/2 119/2/2 133/2/2
f 133/2/2 119/2/2 134/2/2
f 120/2/2 121/2/2 135/2/2
f 135/2/2 121/2/2 136/2/2
f 122/2/2 123/2/2 137/2/2
f 137/2/2 123/2/2 138/2/2
f 124/2/2 125/2/2 139/2/2
f 139/2/2 125/2/2 140/2/2
f 126/2/2 127/2/2 141/2/2
f 141/2/2 127/2/2 142/2/2
f 143/2/2 144/2/2 152/2/2
f 152/2/2 144/2/2 153/2/2
f 145/2/2 146/2/2 154/2/2
f 154/2/2 146/2/2 155/2/2
f 147/2/2 148/2/2 156/2/2
f 156/2/2 148/2/2 157/2/2
f 149/2/2 150/2/2 158/2/2
f 158/2/2 150/2/2 159/2/2
f 151/2/2 152/2/2 160/2/2
f 160/2/2 152/2/2 161/2/2
f 162/2/2 163/2/2 164/2/2
f 164/2/2 163/2/2 165/2/2
f 166/1/2 167/1/2 168/1/2
f 168/1/2 167/1/2 169/1/2
f 170/1/2 171/1/2 172/1/2
f 172/1/2 171/1/2 173/1/2
f 176/1/3 175/1/3 174/1/3
f 177/1/3 175/1/3 176/1/3
f 180/2/3 179/2/3 178/2/3
f 181/2/3 179/2/3 180/2/3
f 184/2/3 183/2/3 182/2/3
f 185/2/3 183/2/3 184/2/3
f 188/2/3 187/2/3 186/2/3
f 189/2/3 187/2/3 188/2/3
f 192/2/3 191/2/3 190/2/3
f 193/2/3 191/2/3 192/2/3
f 196/2/3 195/2/3 194/2/3
f 197/2/3 195/2/3 196/2/3
f 200/2/3 199/2/3 198/2/3
f 201/2/3 199/2/3 200/2/3
f 204/2/3 203/2/3 202/2/3
f 205/2/3 203/2/3 204/2/3
f 208/2/3 207/2/3 206/2/3
f 209/2/3 207/2/3 208/2/3
f 212/2/3 211/2/3 210/2/3
f 213/2/3 211/2/3 212/2/3
f 216/2/3 215/2/3 214/2/3
f 217/2/3 215/2/3 216/2/3
f 220/2/3 219/2/3 218/2/3
f 221/2/3 219/2/3 220/2/3
f 224/2/3 223/2/3 222/2/3
f 225/2/3 223/2/3 224/2/3
f 228/2/3 227/2/3 226/2/3
f 229/2/3 227/2/3 228/2/3
f 232/2/3 231/2/3 230/2/3
f 233/2/3 231/2/3 232/2/3
f 236/2/3 235/2/3 234/2/3
f 237/2/3 235/2/3 236/2/3
f 240/2/3 239/2/3 238/2/3
f 241/2/3 239/2/3 240/2/3
f 243/2/3 242/2/3 241/2/3
f 244/2/3 242/2/3 243/2/3
f 247/2/3 246/2/3 245/2/3
f 248/2/3 246/2/3 247/2/3
f 251/2/3 250/2/3 249/2/3
f 252/2/3 250/2/3 251/2/3
f 255/2/3 254/2/3 253/2/3
f 256/2/3 254/2/3 255/2/3
f 259/2/3 258/2/3 257/2/3
f 260/2/3 258/2/3 259/2/3
f 263/2/3 262/2/3 261/2/3
f 264/2/3 262/2/3 263/2/3
f 267/2/3 266/2/3 265/2/3
f 268/2/3 266/2/3 267/2/3
f 271/2/3 270/2/3 269/2/3
f 272/2/3 270/2/3 271/2/3
f 275/2/3 274/2/3 273/2/3
f 276/2/3 274/2/3 275/2/3
f 279/2/3 278/2/3 277/2/3
f 280/2/3 278/2/3 279/2/3
f 283/2/3 282/2/3 281/2/3
f 284/2/3 282/2/3 283/2/3
f 287/2/3 286/2/3 285/2/3
f 288/2/3 286/2/3 287/2/3
f 291/2/3 290/2/3 289/2/3
f 292/2/3 290/2/3 291/2/3
f 294/2/3 293/2/3 292/2/3
f 295/2/3 293/2/3 294/2/3
f 296/2/4 297/2/4 298/2/4
f 298/2/4 297/2/4 299/2/4
f 300/2/4 301/2/4 302/2/4
f 302/2/4 301/2/4 303/2/4
f 304/2/4 305/2/4 306/2/4
f 306/2/4 305/2/4 307/2/4
f 308/2/4 309/2/4 310/2/4
f 310/2/4 309/2/4 311/2/4
f 311/2/4 312/2/4 313/2/4
f 313/2/4 312/2/4 314/2/4
f 315/2/4 316/2/4 317/2/4
f 317/2/4 316/2/4 318/2/4
f 319/2/4 320/2/4 321/2/4
f 321/2/4 320/2/4 322/2/4
f 323/2/4 324/2/4 325/2/4
f 325/2/4 324/2/4 326/2/4
f 327/2/4 328/2/4 329/2/4
f 329/2/4 328/2/4 330/2/4
f 331/1/4 332/1/4 333/1/4
f 333/1/4 332/1/4 334/1/4
f 335/1/4 336/1/4 338/1/4
f 336/2/4 337/2/4 338/2/4
f 338/2/4 337/2/4 339/2/4
f 339/2/4 337/2/4 340/2/4
f 340/2/4 337/2/4 341/2/4
f 335/1/4 338/1/4 342/1/4
f 342/1/4 338/1/4 343/1/4
f 343/1/4 338/1/4 345/1/4
f 344/1/4 345/1/4 346/1/4
f 345/1/4 338/1/4 347/1/4
f 346/1/4 345/1/4 347/1/4
f 350/1/5 349/1/5 348/1/5
f 351/1/5 349/1/5 350/1/5
f 352/1/5 350/1/5 348/1/5
f 353/1/5 350/1/5 352/1/5
f 354/1/5 349/1/5 351/1/5
f 355/1/5 349/1/5 354/1/5
f 358/1/5 357/1/5 356/1/5
f 359/1/5 357/1/5 358/1/5
f 362/2/5 361/2/5 360/2/5
f 363/2/5 361/2/5 362/2/5
f 364/2/5 361/2/5 363/2/5
f 370/2/5 364/2/5 363/2/5
f 370/2/5 365/2/5 364/2/5
f 371/2/5 365/2/5 370/2/5
f 372/2/5 365/2/5 371/2/5
f 373/2/5 367/2/5 366/2/5
f 374/2/5 367/2/5 373/2/5
f 375/2/5 369/2/5 368/2/5
f 376/2/5 369/2/5 375/2/5
f 382/2/5 374/2/5 373/2/5
f 382/2/5 372/2/5 371/2/5
f 382/2/5 377/2/5 376/2/5
f 382/2/5 376/2/5 375/2/5
f 382/2/5 375/2/5 374/2/5
f 382/2/5 373/2/5 372/2/5
f 383/2/5 377/2/5 382/2/5
f 384/2/5 377/2/5 383/2/5
f 385/2/5 379/2/5 378/2/5
f 386/2/5 379/2/5 385/2/5
f 387/2/5 381/2/5 380/2/5
f 388/2/5 381/2/5 387/2/5
f 390/2/5 386/2/5 385/2/5
f 390/2/5 389/2/5 388/2/5
f 390/2/5 388/2/5 387/2/5
f 390/2/5 387/2/5 386/2/5
f 390/2/5 384/2/5 383/2/5
f 390/2/5 385/2/5 384/2/5
f 391/2/5 389/2/5 390/2/5
f 393/2/5 392/2/5 391/2/5
f 395/2/5 393/2/5 391/2/5
f 395/2/5 394/2/5 393/2/5
f 396/2/5 394/2/5 395/2/5
f 397/2/5 395/2/5 391/2/5
f 398/2/5 395/2/5 397/2/5
f 401/2/5 400/2/5 399/2/5
f 403/2/5 401/2/5 399/2/5
f 403/2/5 402/2/5 401/2/5
f 404/2/5 402/2/5 403/2/5
f 406/2/5 403/2/5 399/2/5
f 407/2/5 403/2/5 406/2/5
f 408/2/5 406/2/5 405/2/5
f 410/2/5 408/2/5 405/2/5
f 410/2/5 409/2/5 408/2/5
f 411/2/5 409/2/5 410/2/5
f 412/2/5 409/2/5 411/2/5
f 414/2/5 412/2/5 411/2/5
f 414/2/5 413/2/5 412/2/5
f 415/2/5 413/2/5 414/2/5
f 416/2/5 414/2/5 411/2/5
f 417/2/5 414/2/5 416/2/5
f 420/2/5 419/2/5 418/2/5
f 422/2/5 420/2/5 418/2/5
f 422/2/5 421/2/5 420/2/5
f 423/2/5 421/2/5 422/2/5
f 424/2/5 422/2/5 418/2/5
f 426/2/5 424/2/5 418/2/5
f 426/2/5 425/2/5 424/2/5
f 427/2/5 425/2/5 426/2/5
f 428/2/5 425/2/5 427/2/5
f 431/2/5 430/2/5 429/2/5
f 432/2/5 430/2/5 431/2/5
f 434/2/5 433/2/5 432/2/5
f 435/2/5 433/2/5 434/2/5
f 436/1/6 437/1/6 438/1/6
f 438/1/6 437/1/6 439/1/6
f 439/1/6 437/1/6 440/1/6
f 440/1/6 437/1/6 441/1/6
f 441/1/6 437/1/6 442/1/6
f 442/1/6 437/1/6 443/1/6
f 443/1/6 437/1/6 444/1/6
f 444/1/6 437/1/6 445/1/6
f 445/1/6 437/1/6 447/1/6
f 446/1/6 447/1/6 448/1/6
f 447/1/6 437/1/6 449/1/6
f 448/1/6 447/1/6 449/1/6
f 449/1/6 437/1/6 450/1/6
f 450/1/6 437/1/6 451/1/6
f 451/1/6 437/1/6 452/1/6
f 452/1/6 437/1/6 453/1/6
f 453/1/6 437/1/6 454/1/6
f 454/1/6 437/1/6 455/1/6
f 456/2/6 457/2/6 458/2/6
f 458/2/6 459/2/6 464/2/6
f 460/2/6 461/2/6 465/2/6
f 465/2/6 461/2/6 466/2/6
f 462/2/6 463/2/6 467/2/6
f 467/2/6 463/2/6 468/2/6
f 465/2/6 466/2/6 474/2/6
f 464/2/6 465/2/6 474/2/6
f 466/2/6 467/2/6 474/2/6
f 468/2/6 469/2/6 474/2/6
f 467/2/6 468/2/6 474/2/6
f 470/2/6 471/2/6 475/2/6
f 475/2/6 471/2/6 476/2/6
f 472/2/6 473/2/6 477/2/6
f 477/2/6 473/2/6 478/2/6
f 475/2/6 476/2/6 480/2/6
f 478/2/6 479/2/6 480/2/6
f 477/2/6 478/2/6 480/2/6
f 476/2/6 477/2/6 480/2/6
f 474/2/6 475/2/6 480/2/6
f 480/2/6 481/2/6 482/2/6
f 480/2/6 482/2/6 484/2/6
f 482/2/6 483/2/6 484/2/6
f 484/2/6 483/2/6 485/2/6
f 474/2/6 480/2/6 486/2/6
f 480/2/6 484/2/6 486/2/6
f 486/2/6 484/2/6 487/2/6
f 474/2/6 486/2/6 488/2/6
f 488/2/6 489/2/6 490/2/6
f 488/2/6 490/2/6 492/2/6
f 490/2/6 491/2/6 492/2/6
f 492/2/6 491/2/6 493/2/6
f 474/2/6 488/2/6 494/2/6
f 488/2/6 492/2/6 494/2/6
f 494/2/6 492/2/6 495/2/6
f 474/2/6 494/2/6 496/2/6
f 496/2/6 497/2/6 498/2/6
f 496/2/6 498/2/6 500/2/6
f 498/2/6 499/2/6 500/2/6
f 500/2/6 499/2/6 501/2/6
f 496/2/6 500/2/6 502/2/6
f 502/2/6 500/2/6 503/2/6
f 496/2/6 502/2/6 504/2/6
f 504/2/6 505/2/6 506/2/6
f 504/2/6 506/2/6 508/2/6
f 506/2/6 507/2/6 508/2/6
f 508/2/6 507/2/6 509/2/6
f 504/2/6 508/2/6 510/2/6
f 504/2/6 510/2/6 512/2/6
f 510/2/6 511/2/6 512/2/6
f 512/2/6 511/2/6 513/2/6
f 504/2/6 512/2/6 514/2/6
f 514/2/6 515/2/6 516/2/6
f 456/2/6 458/2/6 518/2/6
f 516/2/6 517/2/6 518/2/6
f 504/2/6 514/2/6 518/2/6
f 496/2/6 504/2/6 518/2/6
f 514/2/6 516/2/6 518/2/6
f 474/2/6 496/2/6 518/2/6
f 458/2/6 464/2/6 518/2/6
f 464/2/6 474/2/6 518/2/6
f 518/2/6 517/2/6 519/2/6
