# MagicaVoxel @ Ephtracy

# material
mtllib TomatoMan.mtl
usemtl palette

# normals
vn -1 0 0
vn 1 0 0
vn 0 0 1
vn 0 0 -1
vn 0 -1 0
vn 0 1 0

# texcoords
vt 0.841797 0.5
vt 0.892578 0.5
vt 0.994141 0.5

# verts
v -5 10 0.5
v -5 10 -0.5
v -5 12 0.5
v -5 12 -0.5
v -4 4 1.5
v -4 4 -1.5
v -4 5 1.5
v -4 5 -1.5
v -4 8 -1.5
v -4 8 -3.5
v -4 9 0.5
v -4 9 -1.5
v -4 9 -2.5
v -4 9 -3.5
v -4 10 1.5
v -4 10 0.5
v -4 10 -0.5
v -4 10 -1.5
v -4 10 -2.5
v -4 11 1.5
v -4 11 0.5
v -4 11 -0.5
v -4 11 -1.5
v -3 3 2.5
v -3 3 -2.5
v -3 4 1.5
v -3 4 -1.5
v -3 5 1.5
v -3 5 -1.5
v -3 6 2.5
v -3 6 -2.5
v -3 7 0.5
v -3 7 -2.5
v -3 8 1.5
v -3 8 0.5
v -3 8 -0.5
v -3 8 -1.5
v -3 8 -2.5
v -3 9 0.5
v -3 9 -0.5
v -3 9 -1.5
v -3 10 2.5
v -3 10 1.5
v -3 10 0.5
v -3 10 -1.5
v -3 10 -2.5
v -3 11 2.5
v -3 11 1.5
v -3 11 0.5
v -3 11 -0.5
v -3 11 -1.5
v -3 12 1.5
v -3 12 0.5
v -3 12 -0.5
v -3 12 -2.5
v -2 2 1.5
v -2 2 -1.5
v -2 3 1.5
v -2 3 -1.5
v -2 4 3.5
v -2 4 2.5
v -2 4 -2.5
v -2 4 -3.5
v -2 5 3.5
v -2 5 2.5
v -2 5 -2.5
v -2 5 -3.5
v -2 6 2.5
v -2 6 -2.5
v -2 7 2.5
v -2 7 1.5
v -2 7 0.5
v -2 7 -2.5
v -2 7 -3.5
v -2 8 1.5
v -2 8 0.5
v -2 11 2.5
v -2 11 1.5
v -2 12 2.5
v -2 12 1.5
v -2 12 0.5
v -2 12 -1.5
v -2 12 -2.5
v -2 12 -3.5
v -2 13 0.5
v -2 13 -1.5
v -1 3 3.5
v -1 3 2.5
v -1 3 -2.5
v -1 3 -3.5
v -1 4 3.5
v -1 4 2.5
v -1 4 -2.5
v -1 4 -3.5
v -1 5 3.5
v -1 5 2.5
v -1 5 -2.5
v -1 5 -3.5
v -1 6 3.5
v -1 6 2.5
v -1 6 -2.5
v -1 6 -3.5
v -1 8 -3.5
v -1 8 -4.5
v -1 11 -3.5
v -1 11 -4.5
v -1 12 -1.5
v -1 12 -3.5
v -1 13 -1.5
v -1 13 -3.5
v 0 10 2.5
v 0 10 1.5
v 0 11 2.5
v 0 11 1.5
v 2 7 -1.5
v 2 7 -2.5
v 2 8 -1.5
v 2 8 -2.5
v 3 8 -2.5
v 3 8 -3.5
v 3 9 -2.5
v 3 9 -3.5
v 3 11 2.5
v 3 11 1.5
v 3 12 2.5
v 3 12 1.5
v -3 8 -2.5
v -3 8 -3.5
v -3 9 -2.5
v -3 9 -3.5
v -2 7 -1.5
v -2 7 -2.5
v -2 8 -1.5
v -2 8 -2.5
v -2 10 2.5
v -2 10 1.5
v -2 11 2.5
v -2 11 1.5
v 1 3 3.5
v 1 3 2.5
v 1 3 -2.5
v 1 3 -3.5
v 1 4 3.5
v 1 4 2.5
v 1 4 -2.5
v 1 4 -3.5
v 1 5 3.5
v 1 5 2.5
v 1 5 -2.5
v 1 5 -3.5
v 1 6 3.5
v 1 6 2.5
v 1 6 -2.5
v 1 6 -3.5
v 1 8 -3.5
v 1 8 -4.5
v 1 10 2.5
v 1 10 1.5
v 1 11 -3.5
v 1 11 -4.5
v 1 12 2.5
v 1 12 1.5
v 1 12 -1.5
v 1 12 -3.5
v 1 13 -1.5
v 1 13 -3.5
v 2 2 1.5
v 2 2 -1.5
v 2 3 1.5
v 2 3 -1.5
v 2 4 3.5
v 2 4 2.5
v 2 4 -2.5
v 2 4 -3.5
v 2 5 3.5
v 2 5 2.5
v 2 5 -2.5
v 2 5 -3.5
v 2 6 2.5
v 2 6 -2.5
v 2 7 2.5
v 2 7 1.5
v 2 7 0.5
v 2 7 -2.5
v 2 7 -3.5
v 2 8 1.5
v 2 8 0.5
v 2 12 0.5
v 2 12 -1.5
v 2 12 -2.5
v 2 12 -3.5
v 2 13 0.5
v 2 13 -1.5
v 3 3 2.5
v 3 3 -2.5
v 3 4 1.5
v 3 4 -1.5
v 3 5 1.5
v 3 5 -1.5
v 3 6 2.5
v 3 6 -2.5
v 3 7 0.5
v 3 7 -2.5
v 3 8 1.5
v 3 8 0.5
v 3 8 -0.5
v 3 8 -1.5
v 3 8 -2.5
v 3 9 0.5
v 3 9 -0.5
v 3 9 -1.5
v 3 10 1.5
v 3 10 0.5
v 3 10 -1.5
v 3 10 -2.5
v 3 11 1.5
v 3 11 0.5
v 3 12 1.5
v 3 12 0.5
v 3 12 -1.5
v 3 12 -2.5
v 4 4 1.5
v 4 4 -1.5
v 4 5 1.5
v 4 5 -1.5
v 4 8 -1.5
v 4 8 -3.5
v 4 9 0.5
v 4 9 -1.5
v 4 9 -2.5
v 4 9 -3.5
v 4 10 1.5
v 4 10 0.5
v 4 10 -0.5
v 4 10 -1.5
v 4 10 -2.5
v 4 11 2.5
v 4 11 1.5
v 4 11 0.5
v 4 11 -0.5
v 4 12 2.5
v 4 12 1.5
v 4 12 0.5
v 4 12 -1.5
v 5 10 0.5
v 5 10 -0.5
v 5 11 0.5
v 5 11 -0.5
v -2 4 3.5
v -2 5 3.5
v -1 3 3.5
v -1 4 3.5
v -1 5 3.5
v -1 6 3.5
v 1 3 3.5
v 1 4 3.5
v 1 5 3.5
v 1 6 3.5
v 2 4 3.5
v 2 5 3.5
v -3 3 2.5
v -3 6 2.5
v -3 10 2.5
v -3 11 2.5
v -2 4 2.5
v -2 5 2.5
v -2 6 2.5
v -2 7 2.5
v -2 10 2.5
v -2 11 2.5
v -2 12 2.5
v -1 3 2.5
v -1 4 2.5
v -1 5 2.5
v -1 6 2.5
v 0 10 2.5
v 0 11 2.5
v 1 3 2.5
v 1 4 2.5
v 1 5 2.5
v 1 6 2.5
v 1 10 2.5
v 1 12 2.5
v 2 4 2.5
v 2 5 2.5
v 2 6 2.5
v 2 7 2.5
v 3 3 2.5
v 3 6 2.5
v 3 11 2.5
v 3 12 2.5
v 4 11 2.5
v 4 12 2.5
v -4 4 1.5
v -4 5 1.5
v -4 10 1.5
v -4 11 1.5
v -3 4 1.5
v -3 5 1.5
v -3 8 1.5
v -3 10 1.5
v -3 11 1.5
v -3 12 1.5
v -2 2 1.5
v -2 3 1.5
v -2 7 1.5
v -2 8 1.5
v -2 9 1.5
v -2 10 1.5
v -2 11 1.5
v -2 12 1.5
v -1 2 1.5
v -1 3 1.5
v -1 8 1.5
v -1 9 1.5
v 0 10 1.5
v 0 11 1.5
v 1 2 1.5
v 1 3 1.5
v 1 8 1.5
v 1 9 1.5
v 1 10 1.5
v 1 12 1.5
v 2 2 1.5
v 2 3 1.5
v 2 7 1.5
v 2 8 1.5
v 2 9 1.5
v 3 4 1.5
v 3 5 1.5
v 3 8 1.5
v 3 10 1.5
v 3 11 1.5
v 3 12 1.5
v 4 4 1.5
v 4 5 1.5
v 4 10 1.5
v 4 11 1.5
v -5 10 0.5
v -5 12 0.5
v -4 9 0.5
v -4 10 0.5
v -4 11 0.5
v -3 7 0.5
v -3 8 0.5
v -3 9 0.5
v -3 10 0.5
v -3 11 0.5
v -3 12 0.5
v -2 7 0.5
v -2 8 0.5
v -2 12 0.5
v -2 13 0.5
v 2 7 0.5
v 2 8 0.5
v 2 12 0.5
v 2 13 0.5
v 3 7 0.5
v 3 8 0.5
v 3 9 0.5
v 3 10 0.5
v 3 11 0.5
v 3 12 0.5
v 4 9 0.5
v 4 10 0.5
v 4 11 0.5
v 4 12 0.5
v 5 10 0.5
v 5 11 0.5
v -4 8 -1.5
v -4 9 -1.5
v -3 8 -1.5
v -3 9 -1.5
v 3 8 -1.5
v 3 9 -1.5
v 4 8 -1.5
v 4 9 -1.5
v -2 7 -2.5
v -2 8 -2.5
v 1 8 -2.5
v 2 7 -2.5
v 2 8 -2.5
v 3 11 1.5
v 3 12 1.5
v 4 11 1.5
v 4 12 1.5
v -5 10 -0.5
v -5 12 -0.5
v -4 10 -0.5
v -4 11 -0.5
v -3 11 -0.5
v -3 12 -0.5
v 4 10 -0.5
v 4 11 -0.5
v 5 10 -0.5
v 5 11 -0.5
v -4 4 -1.5
v -4 5 -1.5
v -4 10 -1.5
v -4 11 -1.5
v -3 4 -1.5
v -3 5 -1.5
v -3 10 -1.5
v -3 11 -1.5
v -2 2 -1.5
v -2 3 -1.5
v -2 7 -1.5
v -2 8 -1.5
v -2 12 -1.5
v -2 13 -1.5
v -1 12 -1.5
v -1 13 -1.5
v 1 8 -1.5
v 1 12 -1.5
v 1 13 -1.5
v 2 2 -1.5
v 2 3 -1.5
v 2 7 -1.5
v 2 8 -1.5
v 2 12 -1.5
v 2 13 -1.5
v 3 4 -1.5
v 3 5 -1.5
v 3 10 -1.5
v 3 12 -1.5
v 4 4 -1.5
v 4 5 -1.5
v 4 10 -1.5
v 4 12 -1.5
v -4 9 -2.5
v -4 10 -2.5
v -3 3 -2.5
v -3 6 -2.5
v -3 7 -2.5
v -3 8 -2.5
v -3 9 -2.5
v -3 10 -2.5
v -3 12 -2.5
v -2 4 -2.5
v -2 5 -2.5
v -2 6 -2.5
v -2 7 -2.5
v -2 12 -2.5
v -1 3 -2.5
v -1 4 -2.5
v -1 5 -2.5
v -1 6 -2.5
v 1 3 -2.5
v 1 4 -2.5
v 1 5 -2.5
v 1 6 -2.5
v 2 4 -2.5
v 2 5 -2.5
v 2 6 -2.5
v 2 7 -2.5
v 2 12 -2.5
v 3 3 -2.5
v 3 6 -2.5
v 3 7 -2.5
v 3 8 -2.5
v 3 9 -2.5
v 3 10 -2.5
v 3 12 -2.5
v 4 9 -2.5
v 4 10 -2.5
v -4 8 -3.5
v -4 9 -3.5
v -3 8 -3.5
v -3 9 -3.5
v -2 4 -3.5
v -2 5 -3.5
v -2 7 -3.5
v -2 12 -3.5
v -1 3 -3.5
v -1 4 -3.5
v -1 5 -3.5
v -1 6 -3.5
v -1 8 -3.5
v -1 11 -3.5
v -1 12 -3.5
v -1 13 -3.5
v 1 3 -3.5
v 1 4 -3.5
v 1 5 -3.5
v 1 6 -3.5
v 1 8 -3.5
v 1 11 -3.5
v 1 12 -3.5
v 1 13 -3.5
v 2 4 -3.5
v 2 5 -3.5
v 2 7 -3.5
v 2 12 -3.5
v 3 8 -3.5
v 3 9 -3.5
v 4 8 -3.5
v 4 9 -3.5
v -1 8 -4.5
v -1 11 -4.5
v 1 8 -4.5
v 1 11 -4.5
v -2 2 1.5
v -1 2 1.5
v 1 2 1.5
v 2 2 1.5
v -1 2 0.5
v 1 2 0.5
v -2 2 -1.5
v 2 2 -1.5
v -1 3 3.5
v 1 3 3.5
v -3 3 2.5
v -1 3 2.5
v 1 3 2.5
v 3 3 2.5
v -2 3 1.5
v -1 3 1.5
v 1 3 1.5
v 2 3 1.5
v -2 3 -1.5
v 2 3 -1.5
v -3 3 -2.5
v -1 3 -2.5
v 1 3 -2.5
v 3 3 -2.5
v -1 3 -3.5
v 1 3 -3.5
v -2 4 3.5
v -1 4 3.5
v 1 4 3.5
v 2 4 3.5
v -2 4 2.5
v -1 4 2.5
v 1 4 2.5
v 2 4 2.5
v -4 4 1.5
v -3 4 1.5
v 3 4 1.5
v 4 4 1.5
v -4 4 -1.5
v -3 4 -1.5
v 3 4 -1.5
v 4 4 -1.5
v -2 4 -2.5
v -1 4 -2.5
v 1 4 -2.5
v 2 4 -2.5
v -2 4 -3.5
v -1 4 -3.5
v 1 4 -3.5
v 2 4 -3.5
v -3 7 0.5
v -2 7 0.5
v 2 7 0.5
v 3 7 0.5
v -3 7 -2.5
v -2 7 -2.5
v 2 7 -2.5
v 3 7 -2.5
v -2 7 -3.5
v 2 7 -3.5
v -3 8 1.5
v -2 8 1.5
v 2 8 1.5
v 3 8 1.5
v -3 8 0.5
v -2 8 0.5
v 2 8 0.5
v 3 8 0.5
v -4 8 -1.5
v -3 8 -1.5
v -2 8 -1.5
v 1 8 -1.5
v 2 8 -1.5
v 3 8 -1.5
v 4 8 -1.5
v -3 8 -2.5
v -2 8 -2.5
v 1 8 -2.5
v 2 8 -2.5
v 3 8 -2.5
v -4 8 -3.5
v -3 8 -3.5
v -1 8 -3.5
v 1 8 -3.5
v 3 8 -3.5
v 4 8 -3.5
v -1 8 -4.5
v 1 8 -4.5
v -4 9 0.5
v -3 9 0.5
v 3 9 0.5
v 4 9 0.5
v -3 9 -0.5
v 3 9 -0.5
v -4 9 -1.5
v -3 9 -1.5
v 3 9 -1.5
v 4 9 -1.5
v -3 10 2.5
v -2 10 2.5
v 0 10 2.5
v 1 10 2.5
v -4 10 1.5
v -3 10 1.5
v -2 10 1.5
v 0 10 1.5
v 1 10 1.5
v 3 10 1.5
v 4 10 1.5
v -5 10 0.5
v -4 10 0.5
v -3 10 0.5
v 3 10 0.5
v 4 10 0.5
v 5 10 0.5
v -5 10 -0.5
v -4 10 -0.5
v 4 10 -0.5
v 5 10 -0.5
v -2 11 2.5
v 0 11 2.5
v 3 11 2.5
v 4 11 2.5
v -2 11 1.5
v 0 11 1.5
v 3 11 1.5
v 4 11 1.5
v -2 5 3.5
v -1 5 3.5
v 1 5 3.5
v 2 5 3.5
v -2 5 2.5
v -1 5 2.5
v 1 5 2.5
v 2 5 2.5
v -4 5 1.5
v -3 5 1.5
v 3 5 1.5
v 4 5 1.5
v -4 5 -1.5
v -3 5 -1.5
v 3 5 -1.5
v 4 5 -1.5
v -2 5 -2.5
v -1 5 -2.5
v 1 5 -2.5
v 2 5 -2.5
v -2 5 -3.5
v -1 5 -3.5
v 1 5 -3.5
v 2 5 -3.5
v -1 6 3.5
v 1 6 3.5
v -3 6 2.5
v -2 6 2.5
v -1 6 2.5
v 1 6 2.5
v 2 6 2.5
v 3 6 2.5
v -3 6 -2.5
v -2 6 -2.5
v -1 6 -2.5
v 1 6 -2.5
v 2 6 -2.5
v 3 6 -2.5
v -1 6 -3.5
v 1 6 -3.5
v -2 7 2.5
v 2 7 2.5
v -2 7 1.5
v 2 7 1.5
v -2 7 -1.5
v 2 7 -1.5
v -2 7 -2.5
v 2 7 -2.5
v -4 9 -2.5
v -3 9 -2.5
v 3 9 -2.5
v 4 9 -2.5
v -4 9 -3.5
v -3 9 -3.5
v 3 9 -3.5
v 4 9 -3.5
v -4 10 -1.5
v -3 10 -1.5
v 3 10 -1.5
v 4 10 -1.5
v -4 10 -2.5
v -3 10 -2.5
v 3 10 -2.5
v 4 10 -2.5
v -3 11 2.5
v -2 11 2.5
v -4 11 1.5
v -3 11 1.5
v -2 11 1.5
v 3 11 1.5
v 4 11 1.5
v -4 11 0.5
v -3 11 0.5
v 3 11 0.5
v 4 11 0.5
v 5 11 0.5
v -4 11 -0.5
v -3 11 -0.5
v 4 11 -0.5
v 5 11 -0.5
v -4 11 -1.5
v -3 11 -1.5
v -1 11 -3.5
v 1 11 -3.5
v -1 11 -4.5
v 1 11 -4.5
v -2 12 2.5
v 1 12 2.5
v 3 12 2.5
v 4 12 2.5
v -3 12 1.5
v -2 12 1.5
v 1 12 1.5
v 3 12 1.5
v 4 12 1.5
v -5 12 0.5
v -3 12 0.5
v -2 12 0.5
v 2 12 0.5
v 3 12 0.5
v 4 12 0.5
v -5 12 -0.5
v -3 12 -0.5
v -2 12 -1.5
v -1 12 -1.5
v 1 12 -1.5
v 2 12 -1.5
v 3 12 -1.5
v 4 12 -1.5
v -3 12 -2.5
v -2 12 -2.5
v 2 12 -2.5
v 3 12 -2.5
v -2 12 -3.5
v -1 12 -3.5
v 1 12 -3.5
v 2 12 -3.5
v -2 13 0.5
v 2 13 0.5
v -2 13 -1.5
v -1 13 -1.5
v 1 13 -1.5
v 2 13 -1.5
v -1 13 -3.5
v 1 13 -3.5

# faces
f 3/2/1 2/2/1 1/2/1
f 4/2/1 2/2/1 3/2/1
f 7/1/1 6/1/1 5/1/1
f 8/1/1 6/1/1 7/1/1
f 12/2/1 10/2/1 9/2/1
f 13/2/1 10/2/1 12/2/1
f 14/2/1 10/2/1 13/2/1
f 16/2/1 12/2/1 11/2/1
f 16/2/1 13/2/1 12/2/1
f 17/2/1 13/2/1 16/2/1
f 18/2/1 13/2/1 17/2/1
f 19/2/1 13/2/1 18/2/1
f 20/2/1 16/2/1 15/2/1
f 21/2/1 16/2/1 20/2/1
f 22/2/1 18/2/1 17/2/1
f 23/2/1 18/2/1 22/2/1
f 26/1/1 25/1/1 24/1/1
f 27/1/1 25/1/1 26/1/1
f 28/1/1 26/1/1 24/1/1
f 29/1/1 25/1/1 27/1/1
f 30/1/1 28/1/1 24/1/1
f 30/1/1 29/1/1 28/1/1
f 31/1/1 25/1/1 29/1/1
f 31/1/1 29/1/1 30/1/1
f 35/2/1 33/2/1 32/2/1
f 36/2/1 33/2/1 35/2/1
f 37/2/1 33/2/1 36/2/1
f 38/2/1 33/2/1 37/2/1
f 39/2/1 35/2/1 34/2/1
f 39/1/1 36/1/1 35/1/1
f 40/2/1 37/2/1 36/2/1
f 40/1/1 36/1/1 39/1/1
f 41/2/1 37/2/1 40/2/1
f 43/2/1 39/2/1 34/2/1
f 44/2/1 39/2/1 43/2/1
f 47/2/1 43/2/1 42/2/1
f 48/2/1 43/2/1 47/2/1
f 51/2/1 46/2/1 45/2/1
f 52/2/1 49/2/1 48/2/1
f 53/2/1 49/2/1 52/2/1
f 54/2/1 51/2/1 50/2/1
f 55/2/1 46/2/1 51/2/1
f 55/2/1 51/2/1 54/2/1
f 58/1/1 57/1/1 56/1/1
f 59/1/1 57/1/1 58/1/1
f 64/1/1 61/1/1 60/1/1
f 65/1/1 61/1/1 64/1/1
f 66/1/1 63/1/1 62/1/1
f 67/1/1 63/1/1 66/1/1
f 70/1/1 69/1/1 68/1/1
f 71/1/1 69/1/1 70/1/1
f 72/1/1 69/1/1 71/1/1
f 73/1/1 69/1/1 72/1/1
f 75/1/1 72/1/1 71/1/1
f 76/1/1 72/1/1 75/1/1
f 79/2/1 78/2/1 77/2/1
f 80/2/1 78/2/1 79/2/1
f 83/2/1 74/2/1 73/2/1
f 84/2/1 74/2/1 83/2/1
f 85/2/1 82/2/1 81/2/1
f 86/2/1 82/2/1 85/2/1
f 91/1/1 88/1/1 87/1/1
f 92/1/1 88/1/1 91/1/1
f 93/1/1 90/1/1 89/1/1
f 94/1/1 90/1/1 93/1/1
f 99/1/1 96/1/1 95/1/1
f 100/1/1 96/1/1 99/1/1
f 101/1/1 98/1/1 97/1/1
f 102/1/1 98/1/1 101/1/1
f 105/2/1 104/2/1 103/2/1
f 106/2/1 104/2/1 105/2/1
f 109/2/1 108/2/1 107/2/1
f 110/2/1 108/2/1 109/2/1
f 113/2/1 112/2/1 111/2/1
f 114/2/1 112/2/1 113/2/1
f 117/2/1 116/2/1 115/2/1
f 118/2/1 116/2/1 117/2/1
f 121/2/1 120/2/1 119/2/1
f 122/2/1 120/2/1 121/2/1
f 125/2/1 124/2/1 123/2/1
f 126/2/1 124/2/1 125/2/1
f 127/2/2 128/2/2 129/2/2
f 129/2/2 128/2/2 130/2/2
f 131/2/2 132/2/2 133/2/2
f 133/2/2 132/2/2 134/2/2
f 135/2/2 136/2/2 137/2/2
f 137/2/2 136/2/2 138/2/2
f 139/1/2 140/1/2 143/1/2
f 143/1/2 140/1/2 144/1/2
f 141/1/2 142/1/2 145/1/2
f 145/1/2 142/1/2 146/1/2
f 147/1/2 148/1/2 151/1/2
f 151/1/2 148/1/2 152/1/2
f 149/1/2 150/1/2 153/1/2
f 153/1/2 150/1/2 154/1/2
f 155/2/2 156/2/2 159/2/2
f 159/2/2 156/2/2 160/2/2
f 157/2/2 158/2/2 161/2/2
f 161/2/2 158/2/2 162/2/2
f 163/2/2 164/2/2 165/2/2
f 165/2/2 164/2/2 166/2/2
f 167/1/2 168/1/2 169/1/2
f 169/1/2 168/1/2 170/1/2
f 171/1/2 172/1/2 175/1/2
f 175/1/2 172/1/2 176/1/2
f 173/1/2 174/1/2 177/1/2
f 177/1/2 174/1/2 178/1/2
f 179/1/2 180/1/2 181/1/2
f 181/1/2 180/1/2 182/1/2
f 182/1/2 180/1/2 183/1/2
f 183/1/2 180/1/2 184/1/2
f 182/1/2 183/1/2 186/1/2
f 186/1/2 183/1/2 187/1/2
f 184/2/2 185/2/2 190/2/2
f 190/2/2 185/2/2 191/2/2
f 188/2/2 189/2/2 192/2/2
f 192/2/2 189/2/2 193/2/2
f 194/1/2 195/1/2 196/1/2
f 196/1/2 195/1/2 197/1/2
f 194/1/2 196/1/2 198/1/2
f 197/1/2 195/1/2 199/1/2
f 194/1/2 198/1/2 200/1/2
f 198/1/2 199/1/2 200/1/2
f 199/1/2 195/1/2 201/1/2
f 200/1/2 199/1/2 201/1/2
f 202/2/2 203/2/2 205/2/2
f 205/2/2 203/2/2 206/2/2
f 206/2/2 203/2/2 207/2/2
f 207/2/2 203/2/2 208/2/2
f 204/2/2 205/2/2 209/2/2
f 205/1/2 206/1/2 209/1/2
f 206/2/2 207/2/2 210/2/2
f 209/1/2 206/1/2 210/1/2
f 210/2/2 207/2/2 211/2/2
f 204/2/2 209/2/2 212/2/2
f 212/2/2 209/2/2 213/2/2
f 216/2/2 217/2/2 218/2/2
f 218/2/2 217/2/2 219/2/2
f 214/2/2 215/2/2 220/2/2
f 220/2/2 215/2/2 221/2/2
f 222/1/2 223/1/2 224/1/2
f 224/1/2 223/1/2 225/1/2
f 226/2/2 227/2/2 229/2/2
f 229/2/2 227/2/2 230/2/2
f 230/2/2 227/2/2 231/2/2
f 228/2/2 229/2/2 233/2/2
f 229/2/2 230/2/2 233/2/2
f 233/2/2 230/2/2 234/2/2
f 234/2/2 230/2/2 235/2/2
f 235/2/2 230/2/2 236/2/2
f 232/2/2 233/2/2 238/2/2
f 238/2/2 233/2/2 239/2/2
f 234/2/2 235/2/2 240/2/2
f 237/2/2 238/2/2 241/2/2
f 241/2/2 238/2/2 242/2/2
f 239/2/2 240/2/2 243/2/2
f 240/2/2 235/2/2 244/2/2
f 243/2/2 240/2/2 244/2/2
f 245/2/2 246/2/2 247/2/2
f 247/2/2 246/2/2 248/2/2
f 252/1/3 250/1/3 249/1/3
f 253/1/3 250/1/3 252/1/3
f 255/1/3 252/1/3 251/1/3
f 255/1/3 254/1/3 253/1/3
f 255/1/3 253/1/3 252/1/3
f 256/1/3 254/1/3 255/1/3
f 257/1/3 254/1/3 256/1/3
f 258/1/3 254/1/3 257/1/3
f 259/1/3 257/1/3 256/1/3
f 260/1/3 257/1/3 259/1/3
f 265/1/3 262/1/3 261/1/3
f 266/1/3 262/1/3 265/1/3
f 267/1/3 262/1/3 266/1/3
f 269/2/3 264/2/3 263/2/3
f 270/2/3 264/2/3 269/2/3
f 272/1/3 265/1/3 261/1/3
f 273/1/3 265/1/3 272/1/3
f 274/1/3 268/1/3 267/1/3
f 274/1/3 267/1/3 266/1/3
f 275/1/3 268/1/3 274/1/3
f 277/2/3 271/2/3 270/2/3
f 281/1/3 268/1/3 275/1/3
f 282/2/3 277/2/3 276/2/3
f 283/2/3 271/2/3 277/2/3
f 283/2/3 277/2/3 282/2/3
f 284/1/3 279/1/3 278/1/3
f 285/1/3 281/1/3 280/1/3
f 286/1/3 268/1/3 281/1/3
f 286/1/3 281/1/3 285/1/3
f 287/1/3 268/1/3 286/1/3
f 288/1/3 284/1/3 278/1/3
f 288/1/3 285/1/3 284/1/3
f 288/1/3 286/1/3 285/1/3
f 289/1/3 286/1/3 288/1/3
f 292/2/3 291/2/3 290/2/3
f 293/2/3 291/2/3 292/2/3
f 298/1/3 295/1/3 294/1/3
f 299/1/3 295/1/3 298/1/3
f 301/2/3 297/2/3 296/2/3
f 302/2/3 297/2/3 301/2/3
f 307/2/3 301/2/3 300/2/3
f 308/2/3 301/2/3 307/2/3
f 309/2/3 301/2/3 308/2/3
f 310/2/3 303/2/3 302/2/3
f 311/2/3 303/2/3 310/2/3
f 312/1/3 305/1/3 304/1/3
f 313/1/3 305/1/3 312/1/3
f 314/1/3 307/1/3 306/1/3
f 314/3/3 308/3/3 307/3/3
f 315/2/3 309/2/3 308/2/3
f 315/3/3 308/3/3 314/3/3
f 315/2/3 310/2/3 309/2/3
f 316/2/3 310/2/3 315/2/3
f 317/2/3 310/2/3 316/2/3
f 318/2/3 313/2/3 312/2/3
f 319/2/3 313/2/3 318/2/3
f 320/1/3 314/1/3 306/1/3
f 320/1/3 315/1/3 314/1/3
f 321/2/3 316/2/3 315/2/3
f 321/1/3 315/1/3 320/1/3
f 322/2/3 316/2/3 321/2/3
f 324/1/3 319/1/3 318/1/3
f 325/1/3 319/1/3 324/1/3
f 326/1/3 320/1/3 306/1/3
f 327/3/3 321/3/3 320/3/3
f 327/1/3 320/1/3 326/1/3
f 328/2/3 323/2/3 322/2/3
f 328/3/3 321/3/3 327/3/3
f 328/2/3 322/2/3 321/2/3
f 331/2/3 328/2/3 327/2/3
f 332/2/3 323/2/3 328/2/3
f 332/2/3 328/2/3 331/2/3
f 333/2/3 323/2/3 332/2/3
f 334/2/3 323/2/3 333/2/3
f 335/1/3 330/1/3 329/1/3
f 336/1/3 330/1/3 335/1/3
f 337/2/3 333/2/3 332/2/3
f 338/2/3 333/2/3 337/2/3
f 342/2/3 340/2/3 339/2/3
f 343/2/3 340/2/3 342/2/3
f 346/2/3 342/2/3 341/2/3
f 347/2/3 342/2/3 346/2/3
f 348/2/3 340/2/3 343/2/3
f 349/2/3 340/2/3 348/2/3
f 350/2/3 345/2/3 344/2/3
f 351/2/3 345/2/3 350/2/3
f 356/2/3 353/2/3 352/2/3
f 357/2/3 353/2/3 356/2/3
f 358/2/3 355/2/3 354/2/3
f 359/2/3 355/2/3 358/2/3
f 364/2/3 361/2/3 360/2/3
f 365/2/3 361/2/3 364/2/3
f 366/2/3 363/2/3 362/2/3
f 367/2/3 363/2/3 366/2/3
f 368/2/3 366/2/3 365/2/3
f 369/2/3 366/2/3 368/2/3
f 372/2/3 371/2/3 370/2/3
f 373/2/3 371/2/3 372/2/3
f 376/2/3 375/2/3 374/2/3
f 377/2/3 375/2/3 376/2/3
f 380/2/3 379/2/3 378/2/3
f 381/2/3 380/2/3 378/2/3
f 382/2/3 380/2/3 381/2/3
f 383/2/4 384/2/4 385/2/4
f 385/2/4 384/2/4 386/2/4
f 387/2/4 388/2/4 389/2/4
f 389/2/4 388/2/4 390/2/4
f 390/2/4 388/2/4 391/2/4
f 391/2/4 388/2/4 392/2/4
f 393/2/4 394/2/4 395/2/4
f 395/2/4 394/2/4 396/2/4
f 397/1/4 398/1/4 401/1/4
f 401/1/4 398/1/4 402/1/4
f 399/2/4 400/2/4 403/2/4
f 403/2/4 400/2/4 404/2/4
f 409/2/4 410/2/4 411/2/4
f 411/2/4 410/2/4 412/2/4
f 407/1/4 408/1/4 413/1/4
f 405/1/4 406/1/4 416/1/4
f 416/1/4 406/1/4 417/1/4
f 407/1/4 413/1/4 418/1/4
f 418/1/4 413/1/4 419/1/4
f 414/2/4 415/2/4 420/2/4
f 420/2/4 415/2/4 421/2/4
f 422/1/4 423/1/4 426/1/4
f 426/1/4 423/1/4 427/1/4
f 424/2/4 425/2/4 428/2/4
f 428/2/4 425/2/4 429/2/4
f 430/2/4 431/2/4 436/2/4
f 436/2/4 431/2/4 437/2/4
f 432/1/4 433/1/4 439/1/4
f 439/1/4 433/1/4 440/1/4
f 440/1/4 433/1/4 441/1/4
f 434/2/4 435/2/4 442/2/4
f 437/2/4 438/2/4 442/2/4
f 435/2/4 436/2/4 442/2/4
f 436/2/4 437/2/4 442/2/4
f 442/2/4 438/2/4 443/2/4
f 432/1/4 439/1/4 444/1/4
f 444/1/4 439/1/4 445/1/4
f 440/1/4 441/1/4 446/1/4
f 441/1/4 442/1/4 446/1/4
f 446/1/4 442/1/4 447/1/4
f 447/1/4 442/1/4 451/1/4
f 448/1/4 449/1/4 452/1/4
f 450/1/4 451/1/4 453/1/4
f 451/1/4 442/1/4 454/1/4
f 453/1/4 451/1/4 454/1/4
f 454/1/4 442/1/4 455/1/4
f 448/1/4 452/1/4 457/1/4
f 452/1/4 453/1/4 457/1/4
f 453/1/4 454/1/4 457/1/4
f 457/1/4 454/1/4 458/1/4
f 455/2/4 456/2/4 459/2/4
f 459/2/4 456/2/4 460/2/4
f 460/2/4 456/2/4 461/2/4
f 461/2/4 456/2/4 462/2/4
f 462/2/4 456/2/4 463/2/4
f 461/2/4 462/2/4 464/2/4
f 464/2/4 462/2/4 465/2/4
f 466/2/4 467/2/4 468/2/4
f 468/2/4 467/2/4 469/2/4
f 470/1/4 471/1/4 475/1/4
f 475/1/4 471/1/4 476/1/4
f 472/2/4 473/2/4 478/2/4
f 478/2/4 473/2/4 479/2/4
f 479/2/4 473/2/4 480/2/4
f 476/1/4 477/1/4 482/1/4
f 474/1/4 475/1/4 482/1/4
f 475/1/4 476/1/4 482/1/4
f 482/1/4 477/1/4 483/1/4
f 483/1/4 477/1/4 484/1/4
f 484/1/4 477/1/4 485/1/4
f 472/2/4 478/2/4 486/2/4
f 480/2/4 481/2/4 487/2/4
f 479/2/4 480/2/4 487/2/4
f 487/2/4 481/2/4 488/2/4
f 488/2/4 481/2/4 489/2/4
f 483/1/4 484/1/4 490/1/4
f 490/1/4 484/1/4 491/1/4
f 472/2/4 486/2/4 492/2/4
f 487/2/4 488/2/4 492/2/4
f 486/2/4 487/2/4 492/2/4
f 492/2/4 488/2/4 493/2/4
f 494/2/4 495/2/4 496/2/4
f 496/2/4 495/2/4 497/2/4
f 498/2/4 499/2/4 500/2/4
f 500/2/4 499/2/4 501/2/4
f 506/1/5 503/1/5 502/1/5
f 506/2/5 504/2/5 503/2/5
f 507/1/5 505/1/5 504/1/5
f 507/2/5 504/2/5 506/2/5
f 508/1/5 506/1/5 502/1/5
f 508/1/5 507/1/5 506/1/5
f 509/1/5 505/1/5 507/1/5
f 509/1/5 507/1/5 508/1/5
f 513/1/5 511/1/5 510/1/5
f 514/1/5 511/1/5 513/1/5
f 516/1/5 513/1/5 512/1/5
f 516/1/5 515/1/5 514/1/5
f 516/1/5 514/1/5 513/1/5
f 517/1/5 515/1/5 516/1/5
f 518/1/5 515/1/5 517/1/5
f 519/1/5 515/1/5 518/1/5
f 520/1/5 516/1/5 512/1/5
f 521/1/5 515/1/5 519/1/5
f 522/1/5 520/1/5 512/1/5
f 522/1/5 521/1/5 520/1/5
f 523/1/5 521/1/5 522/1/5
f 524/1/5 521/1/5 523/1/5
f 525/1/5 515/1/5 521/1/5
f 525/1/5 521/1/5 524/1/5
f 526/1/5 524/1/5 523/1/5
f 527/1/5 524/1/5 526/1/5
f 532/1/5 529/1/5 528/1/5
f 533/1/5 529/1/5 532/1/5
f 534/1/5 531/1/5 530/1/5
f 535/1/5 531/1/5 534/1/5
f 540/1/5 537/1/5 536/1/5
f 541/1/5 537/1/5 540/1/5
f 542/1/5 539/1/5 538/1/5
f 543/1/5 539/1/5 542/1/5
f 548/1/5 545/1/5 544/1/5
f 549/1/5 545/1/5 548/1/5
f 550/1/5 547/1/5 546/1/5
f 551/1/5 547/1/5 550/1/5
f 556/2/5 553/2/5 552/2/5
f 557/2/5 553/2/5 556/2/5
f 558/2/5 555/2/5 554/2/5
f 559/2/5 555/2/5 558/2/5
f 560/2/5 558/2/5 557/2/5
f 561/2/5 558/2/5 560/2/5
f 566/2/5 563/2/5 562/2/5
f 567/2/5 563/2/5 566/2/5
f 568/2/5 565/2/5 564/2/5
f 569/2/5 565/2/5 568/2/5
f 577/2/5 571/2/5 570/2/5
f 578/1/5 573/1/5 572/1/5
f 579/2/5 574/2/5 573/2/5
f 579/1/5 573/1/5 578/1/5
f 580/2/5 574/2/5 579/2/5
f 581/2/5 576/2/5 575/2/5
f 582/2/5 577/2/5 570/2/5
f 583/2/5 577/2/5 582/2/5
f 586/2/5 576/2/5 581/2/5
f 587/2/5 576/2/5 586/2/5
f 588/2/5 585/2/5 584/2/5
f 589/2/5 585/2/5 588/2/5
f 594/2/5 591/2/5 590/2/5
f 595/2/5 593/2/5 592/2/5
f 596/2/5 594/2/5 590/2/5
f 597/2/5 594/2/5 596/2/5
f 598/2/5 593/2/5 595/2/5
f 599/2/5 593/2/5 598/2/5
f 605/2/5 601/2/5 600/2/5
f 606/2/5 601/2/5 605/2/5
f 607/2/5 603/2/5 602/2/5
f 608/2/5 603/2/5 607/2/5
f 612/2/5 605/2/5 604/2/5
f 613/2/5 605/2/5 612/2/5
f 614/2/5 610/2/5 609/2/5
f 615/2/5 610/2/5 614/2/5
f 617/2/5 612/2/5 611/2/5
f 618/2/5 612/2/5 617/2/5
f 619/2/5 616/2/5 615/2/5
f 620/2/5 616/2/5 619/2/5
f 625/2/5 622/2/5 621/2/5
f 626/2/5 622/2/5 625/2/5
f 627/2/5 624/2/5 623/2/5
f 628/2/5 624/2/5 627/2/5
f 629/1/6 630/1/6 633/1/6
f 633/1/6 630/1/6 634/1/6
f 631/1/6 632/1/6 635/1/6
f 635/1/6 632/1/6 636/1/6
f 637/1/6 638/1/6 641/1/6
f 641/1/6 638/1/6 642/1/6
f 639/1/6 640/1/6 643/1/6
f 643/1/6 640/1/6 644/1/6
f 645/1/6 646/1/6 649/1/6
f 649/1/6 646/1/6 650/1/6
f 647/1/6 648/1/6 651/1/6
f 651/1/6 648/1/6 652/1/6
f 653/1/6 654/1/6 657/1/6
f 657/1/6 654/1/6 658/1/6
f 655/1/6 656/1/6 661/1/6
f 661/1/6 656/1/6 662/1/6
f 659/1/6 660/1/6 665/1/6
f 665/1/6 660/1/6 666/1/6
f 663/1/6 664/1/6 667/1/6
f 667/1/6 664/1/6 668/1/6
f 669/1/6 670/1/6 671/1/6
f 671/1/6 670/1/6 672/1/6
f 673/1/6 674/1/6 675/1/6
f 675/1/6 674/1/6 676/1/6
f 677/2/6 678/2/6 681/2/6
f 681/2/6 678/2/6 682/2/6
f 679/2/6 680/2/6 683/2/6
f 683/2/6 680/2/6 684/2/6
f 685/2/6 686/2/6 689/2/6
f 689/2/6 686/2/6 690/2/6
f 687/2/6 688/2/6 691/2/6
f 691/2/6 688/2/6 692/2/6
f 693/2/6 694/2/6 696/2/6
f 696/2/6 694/2/6 697/2/6
f 695/2/6 696/2/6 700/2/6
f 700/2/6 696/2/6 701/2/6
f 698/2/6 699/2/6 702/2/6
f 702/2/6 699/2/6 703/2/6
f 703/2/6 704/2/6 707/2/6
f 707/2/6 704/2/6 708/2/6
f 705/2/6 706/2/6 709/2/6
f 709/2/6 706/2/6 710/2/6
f 711/2/6 712/2/6 713/2/6
f 713/2/6 712/2/6 714/2/6
f 715/2/6 716/2/6 720/2/6
f 720/2/6 716/2/6 721/2/6
f 717/2/6 718/2/6 722/2/6
f 722/2/6 718/2/6 723/2/6
f 720/2/6 721/2/6 725/2/6
f 719/2/6 720/2/6 725/2/6
f 721/2/6 722/2/6 725/2/6
f 725/2/6 722/2/6 726/2/6
f 726/2/6 722/2/6 727/2/6
f 727/2/6 722/2/6 728/2/6
f 724/2/6 725/2/6 730/2/6
f 725/2/6 726/2/6 730/2/6
f 730/2/6 726/2/6 731/2/6
f 731/2/6 726/2/6 732/2/6
f 728/2/6 729/2/6 735/2/6
f 727/2/6 728/2/6 735/2/6
f 735/2/6 729/2/6 736/2/6
f 736/2/6 729/2/6 737/2/6
f 732/2/6 733/2/6 738/2/6
f 731/2/6 732/2/6 738/2/6
f 738/2/6 733/2/6 739/2/6
f 735/2/6 736/2/6 740/2/6
f 734/2/6 735/2/6 740/2/6
f 740/2/6 736/2/6 741/2/6
f 739/2/6 733/2/6 742/2/6
f 742/2/6 733/2/6 743/2/6
f 734/2/6 740/2/6 744/2/6
f 744/2/6 740/2/6 745/2/6
f 746/2/6 747/2/6 748/2/6
f 748/2/6 747/2/6 749/2/6
f 749/2/6 747/2/6 750/2/6
f 750/2/6 747/2/6 751/2/6
f 749/2/6 750/2/6 752/2/6
f 752/2/6 750/2/6 753/2/6
