# MagicaVoxel @ Ephtracy

# material
mtllib CarrotMan.mtl
usemtl palette

# normals
vn -1 0 0
vn 1 0 0
vn 0 0 1
vn 0 0 -1
vn 0 -1 0
vn 0 1 0

# texcoords
vt 0.0644531 0.5
vt 0.896484 0.5
vt 0.994141 0.5

# verts
v -6 8 1.5
v -6 8 0.5
v -6 10 1.5
v -6 10 0.5
v -5 7 1.5
v -5 7 0.5
v -5 8 1.5
v -5 8 0.5
v -4 6 2.5
v -4 6 -1.5
v -4 7 2.5
v -4 7 1.5
v -4 7 0.5
v -4 7 -1.5
v -4 12 0.5
v -4 12 -0.5
v -4 14 0.5
v -4 14 -0.5
v -3 4 0.5
v -3 4 -0.5
v -3 5 1.5
v -3 5 0.5
v -3 6 3.5
v -3 6 2.5
v -3 6 1.5
v -3 6 -0.5
v -3 6 -1.5
v -3 6 -2.5
v -3 7 3.5
v -3 7 2.5
v -3 7 1.5
v -3 7 0.5
v -3 7 -1.5
v -3 7 -2.5
v -3 8 1.5
v -3 8 0.5
v -3 10 2.5
v -3 10 -1.5
v -3 11 1.5
v -3 11 -0.5
v -3 12 1.5
v -3 12 0.5
v -3 12 -0.5
v -3 12 -1.5
v -3 12 -2.5
v -3 13 -1.5
v -3 13 -2.5
v -2 4 1.5
v -2 4 0.5
v -2 5 2.5
v -2 5 1.5
v -2 5 0.5
v -2 5 -0.5
v -2 5 -1.5
v -2 6 2.5
v -2 6 1.5
v -2 6 -0.5
v -2 6 -1.5
v -2 10 1.5
v -2 10 -0.5
v -2 11 1.5
v -2 11 -0.5
v -2 11 -2.5
v -2 12 -0.5
v -2 12 -1.5
v -2 12 -2.5
v -2 13 2.5
v -2 13 1.5
v -2 15 2.5
v -2 15 1.5
v -1 2 1.5
v -1 2 0.5
v -1 3 0.5
v -1 3 -0.5
v -1 4 2.5
v -1 4 1.5
v -1 4 -0.5
v -1 4 -1.5
v -1 5 2.5
v -1 5 1.5
v -1 5 -0.5
v -1 5 -1.5
v -1 12 2.5
v -1 12 1.5
v -1 12 0.5
v -1 13 2.5
v -1 13 1.5
v -1 13 0.5
v 0 11 -0.5
v 0 11 -2.5
v 0 12 0.5
v 0 12 -0.5
v 0 12 -1.5
v 0 12 -2.5
v 0 12 -3.5
v 0 13 0.5
v 0 13 -1.5
v 0 13 -2.5
v 0 14 0.5
v 0 14 -0.5
v 0 14 -2.5
v 0 14 -3.5
v 1 14 0.5
v 1 14 -0.5
v 1 15 0.5
v 1 15 -0.5
v 2 12 1.5
v 2 12 -0.5
v 2 13 1.5
v 2 13 0.5
v 2 13 -0.5
v 2 15 0.5
v 2 15 -0.5
v 2 16 0.5
v 2 16 -0.5
v 3 13 1.5
v 3 13 0.5
v 3 14 1.5
v 3 14 0.5
v 4 8 1.5
v 4 8 0.5
v 4 9 1.5
v 4 9 0.5
v 5 9 1.5
v 5 9 0.5
v 5 10 1.5
v 5 10 0.5
v -5 9 1.5
v -5 9 0.5
v -5 10 1.5
v -5 10 0.5
v -4 8 1.5
v -4 8 0.5
v -4 9 1.5
v -4 9 0.5
v -3 13 0.5
v -3 13 -0.5
v -3 14 0.5
v -3 14 -0.5
v -2 12 0.5
v -2 12 -0.5
v -2 13 0.5
v -2 13 -0.5
v -1 11 -0.5
v -1 11 -2.5
v -1 12 -0.5
v -1 12 -1.5
v -1 13 -1.5
v -1 13 -2.5
v -1 14 2.5
v -1 14 1.5
v -1 15 2.5
v -1 15 1.5
v 0 2 1.5
v 0 2 0.5
v 0 3 1.5
v 0 3 0.5
v 0 12 2.5
v 0 12 1.5
v 0 13 1.5
v 0 14 2.5
v 0 14 1.5
v 1 3 1.5
v 1 3 -0.5
v 1 4 2.5
v 1 4 1.5
v 1 4 -0.5
v 1 4 -1.5
v 1 5 2.5
v 1 5 1.5
v 1 5 -0.5
v 1 5 -1.5
v 1 11 -0.5
v 1 11 -2.5
v 1 12 1.5
v 1 12 -0.5
v 1 12 -1.5
v 1 12 -2.5
v 1 12 -3.5
v 1 13 1.5
v 1 13 0.5
v 1 13 -0.5
v 1 13 -1.5
v 1 13 -2.5
v 1 14 -2.5
v 1 14 -3.5
v 2 4 1.5
v 2 4 0.5
v 2 5 2.5
v 2 5 1.5
v 2 5 0.5
v 2 5 -0.5
v 2 5 -1.5
v 2 6 2.5
v 2 6 1.5
v 2 6 -0.5
v 2 6 -1.5
v 2 10 1.5
v 2 10 -0.5
v 2 11 1.5
v 2 11 -0.5
v 2 13 0.5
v 2 13 -0.5
v 2 14 0.5
v 2 14 -0.5
v 3 4 0.5
v 3 4 -0.5
v 3 5 1.5
v 3 5 0.5
v 3 6 3.5
v 3 6 2.5
v 3 6 1.5
v 3 6 -0.5
v 3 6 -1.5
v 3 6 -2.5
v 3 7 3.5
v 3 7 2.5
v 3 7 1.5
v 3 7 0.5
v 3 7 -1.5
v 3 7 -2.5
v 3 8 1.5
v 3 8 0.5
v 3 10 2.5
v 3 10 -1.5
v 3 11 1.5
v 3 11 -0.5
v 3 12 1.5
v 3 12 0.5
v 3 13 0.5
v 3 13 -0.5
v 3 14 0.5
v 3 14 -0.5
v 3 16 0.5
v 3 16 -0.5
v 4 6 2.5
v 4 6 -1.5
v 4 7 2.5
v 4 7 1.5
v 4 7 0.5
v 4 7 -1.5
v 4 12 1.5
v 4 12 0.5
v 4 14 1.5
v 4 14 0.5
v 5 7 1.5
v 5 7 0.5
v 5 8 1.5
v 5 8 0.5
v 6 8 1.5
v 6 8 0.5
v 6 10 1.5
v 6 10 0.5
v -3 6 3.5
v -3 7 3.5
v 3 6 3.5
v 3 7 3.5
v -4 6 2.5
v -4 7 2.5
v -3 6 2.5
v -3 7 2.5
v -3 10 2.5
v -2 5 2.5
v -2 6 2.5
v -2 9 2.5
v -2 10 2.5
v -2 13 2.5
v -2 15 2.5
v -1 4 2.5
v -1 5 2.5
v -1 9 2.5
v -1 10 2.5
v -1 12 2.5
v -1 13 2.5
v -1 14 2.5
v -1 15 2.5
v 0 12 2.5
v 0 14 2.5
v 1 4 2.5
v 1 5 2.5
v 1 9 2.5
v 1 10 2.5
v 2 5 2.5
v 2 6 2.5
v 2 9 2.5
v 2 10 2.5
v 3 6 2.5
v 3 7 2.5
v 3 10 2.5
v 4 6 2.5
v 4 7 2.5
v -6 8 1.5
v -6 10 1.5
v -5 7 1.5
v -5 8 1.5
v -5 9 1.5
v -5 10 1.5
v -4 7 1.5
v -4 8 1.5
v -4 9 1.5
v -3 5 1.5
v -3 6 1.5
v -3 7 1.5
v -3 8 1.5
v -3 11 1.5
v -3 12 1.5
v -2 4 1.5
v -2 5 1.5
v -2 6 1.5
v -2 10 1.5
v -2 11 1.5
v -1 2 1.5
v -1 4 1.5
v -1 5 1.5
v -1 10 1.5
v -1 12 1.5
v 0 2 1.5
v 0 3 1.5
v 0 12 1.5
v 0 13 1.5
v 1 3 1.5
v 1 4 1.5
v 1 5 1.5
v 1 10 1.5
v 1 12 1.5
v 1 13 1.5
v 2 4 1.5
v 2 5 1.5
v 2 6 1.5
v 2 10 1.5
v 2 11 1.5
v 2 12 1.5
v 2 13 1.5
v 3 5 1.5
v 3 6 1.5
v 3 7 1.5
v 3 8 1.5
v 3 11 1.5
v 3 12 1.5
v 3 13 1.5
v 3 14 1.5
v 4 7 1.5
v 4 8 1.5
v 4 9 1.5
v 4 12 1.5
v 4 14 1.5
v 5 7 1.5
v 5 8 1.5
v 5 9 1.5
v 5 10 1.5
v 6 8 1.5
v 6 10 1.5
v -4 12 0.5
v -4 14 0.5
v -3 4 0.5
v -3 5 0.5
v -3 12 0.5
v -3 13 0.5
v -3 14 0.5
v -2 4 0.5
v -2 5 0.5
v -2 12 0.5
v -2 13 0.5
v 0 13 0.5
v 0 14 0.5
v 1 13 0.5
v 1 14 0.5
v 1 15 0.5
v 2 4 0.5
v 2 5 0.5
v 2 13 0.5
v 2 14 0.5
v 2 15 0.5
v 2 16 0.5
v 3 4 0.5
v 3 5 0.5
v 3 14 0.5
v 3 16 0.5
v -3 12 -1.5
v -3 13 -1.5
v -2 12 -1.5
v -1 12 -1.5
v -1 13 -1.5
v 0 12 -1.5
v 0 13 -1.5
v 1 12 -1.5
v 1 13 -1.5
v 0 13 -2.5
v 0 14 -2.5
v 1 13 -2.5
v 1 14 -2.5
v -2 13 1.5
v -2 15 1.5
v -1 13 1.5
v -1 14 1.5
v -1 15 1.5
v 0 13 1.5
v 0 14 1.5
v -6 8 0.5
v -6 10 0.5
v -5 7 0.5
v -5 8 0.5
v -5 9 0.5
v -5 10 0.5
v -4 7 0.5
v -4 8 0.5
v -4 9 0.5
v -3 7 0.5
v -3 8 0.5
v -1 2 0.5
v -1 3 0.5
v -1 12 0.5
v -1 13 0.5
v 0 2 0.5
v 0 3 0.5
v 0 12 0.5
v 0 13 0.5
v 3 7 0.5
v 3 8 0.5
v 3 12 0.5
v 3 13 0.5
v 3 14 0.5
v 4 7 0.5
v 4 8 0.5
v 4 9 0.5
v 4 12 0.5
v 4 14 0.5
v 5 7 0.5
v 5 8 0.5
v 5 9 0.5
v 5 10 0.5
v 6 8 0.5
v 6 10 0.5
v -4 12 -0.5
v -4 14 -0.5
v -3 4 -0.5
v -3 6 -0.5
v -3 11 -0.5
v -3 12 -0.5
v -3 13 -0.5
v -3 14 -0.5
v -2 5 -0.5
v -2 6 -0.5
v -2 10 -0.5
v -2 11 -0.5
v -2 12 -0.5
v -2 13 -0.5
v -1 3 -0.5
v -1 4 -0.5
v -1 5 -0.5
v -1 11 -0.5
v -1 12 -0.5
v 0 11 -0.5
v 0 12 -0.5
v 0 14 -0.5
v 1 3 -0.5
v 1 4 -0.5
v 1 5 -0.5
v 1 11 -0.5
v 1 12 -0.5
v 1 13 -0.5
v 1 14 -0.5
v 1 15 -0.5
v 2 5 -0.5
v 2 6 -0.5
v 2 10 -0.5
v 2 11 -0.5
v 2 12 -0.5
v 2 13 -0.5
v 2 14 -0.5
v 2 15 -0.5
v 2 16 -0.5
v 3 4 -0.5
v 3 6 -0.5
v 3 11 -0.5
v 3 13 -0.5
v 3 14 -0.5
v 3 16 -0.5
v -4 6 -1.5
v -4 7 -1.5
v -3 6 -1.5
v -3 7 -1.5
v -3 10 -1.5
v -2 5 -1.5
v -2 6 -1.5
v -1 4 -1.5
v -1 5 -1.5
v 1 4 -1.5
v 1 5 -1.5
v 2 5 -1.5
v 2 6 -1.5
v 3 6 -1.5
v 3 7 -1.5
v 3 10 -1.5
v 4 6 -1.5
v 4 7 -1.5
v -3 6 -2.5
v -3 7 -2.5
v -3 12 -2.5
v -3 13 -2.5
v -2 11 -2.5
v -2 12 -2.5
v -1 11 -2.5
v -1 13 -2.5
v 0 11 -2.5
v 0 12 -2.5
v 1 11 -2.5
v 1 12 -2.5
v 3 6 -2.5
v 3 7 -2.5
v 0 12 -3.5
v 0 14 -3.5
v 1 12 -3.5
v 1 14 -3.5
v -1 2 1.5
v 0 2 1.5
v -1 2 0.5
v 0 2 0.5
v 0 3 1.5
v 1 3 1.5
v -1 3 0.5
v 0 3 0.5
v -1 3 -0.5
v 1 3 -0.5
v -1 4 2.5
v 1 4 2.5
v -2 4 1.5
v -1 4 1.5
v 1 4 1.5
v 2 4 1.5
v -3 4 0.5
v -2 4 0.5
v 2 4 0.5
v 3 4 0.5
v -3 4 -0.5
v -1 4 -0.5
v 1 4 -0.5
v 3 4 -0.5
v -1 4 -1.5
v 1 4 -1.5
v -2 5 2.5
v -1 5 2.5
v 1 5 2.5
v 2 5 2.5
v -3 5 1.5
v -2 5 1.5
v -1 5 1.5
v 1 5 1.5
v 2 5 1.5
v 3 5 1.5
v -3 5 0.5
v -2 5 0.5
v 2 5 0.5
v 3 5 0.5
v -2 5 -0.5
v -1 5 -0.5
v 1 5 -0.5
v 2 5 -0.5
v -2 5 -1.5
v -1 5 -1.5
v 1 5 -1.5
v 2 5 -1.5
v -3 6 3.5
v 3 6 3.5
v -4 6 2.5
v -3 6 2.5
v -2 6 2.5
v 2 6 2.5
v 3 6 2.5
v 4 6 2.5
v -3 6 1.5
v -2 6 1.5
v 2 6 1.5
v 3 6 1.5
v -3 6 -0.5
v -2 6 -0.5
v 2 6 -0.5
v 3 6 -0.5
v -4 6 -1.5
v -3 6 -1.5
v -2 6 -1.5
v 2 6 -1.5
v 3 6 -1.5
v 4 6 -1.5
v -3 6 -2.5
v 3 6 -2.5
v -5 7 1.5
v -4 7 1.5
v 4 7 1.5
v 5 7 1.5
v -5 7 0.5
v -4 7 0.5
v 4 7 0.5
v 5 7 0.5
v -6 8 1.5
v -5 8 1.5
v 5 8 1.5
v 6 8 1.5
v -6 8 0.5
v -5 8 0.5
v 5 8 0.5
v 6 8 0.5
v -3 11 1.5
v -2 11 1.5
v 2 11 1.5
v 3 11 1.5
v -3 11 -0.5
v -2 11 -0.5
v -1 11 -0.5
v 0 11 -0.5
v 1 11 -0.5
v 2 11 -0.5
v 3 11 -0.5
v -2 11 -2.5
v -1 11 -2.5
v 0 11 -2.5
v 1 11 -2.5
v -1 12 2.5
v 0 12 2.5
v -1 12 1.5
v 0 12 1.5
v 3 12 1.5
v 4 12 1.5
v -4 12 0.5
v -3 12 0.5
v 3 12 0.5
v 4 12 0.5
v -4 12 -0.5
v -3 12 -0.5
v -3 12 -1.5
v -2 12 -1.5
v -3 12 -2.5
v -2 12 -2.5
v 0 12 -2.5
v 1 12 -2.5
v 0 12 -3.5
v 1 12 -3.5
v -2 13 2.5
v -1 13 2.5
v -2 13 1.5
v -1 13 1.5
v 1 13 0.5
v 2 13 0.5
v 1 13 -0.5
v 2 13 -0.5
v 2 14 0.5
v 3 14 0.5
v 2 14 -0.5
v 3 14 -0.5
v -3 7 3.5
v 3 7 3.5
v -4 7 2.5
v -3 7 2.5
v 3 7 2.5
v 4 7 2.5
v -4 7 1.5
v -3 7 1.5
v 3 7 1.5
v 4 7 1.5
v -4 7 0.5
v -3 7 0.5
v 3 7 0.5
v 4 7 0.5
v -4 7 -1.5
v -3 7 -1.5
v 3 7 -1.5
v 4 7 -1.5
v -3 7 -2.5
v 3 7 -2.5
v -4 8 1.5
v -3 8 1.5
v 3 8 1.5
v 4 8 1.5
v -4 8 0.5
v -3 8 0.5
v 3 8 0.5
v 4 8 0.5
v -5 9 1.5
v -4 9 1.5
v 4 9 1.5
v 5 9 1.5
v -5 9 0.5
v -4 9 0.5
v 4 9 0.5
v 5 9 0.5
v -3 10 2.5
v -2 10 2.5
v -1 10 2.5
v 1 10 2.5
v 2 10 2.5
v 3 10 2.5
v -6 10 1.5
v -5 10 1.5
v -2 10 1.5
v -1 10 1.5
v 1 10 1.5
v 2 10 1.5
v 5 10 1.5
v 6 10 1.5
v -6 10 0.5
v -5 10 0.5
v 5 10 0.5
v 6 10 0.5
v -2 10 -0.5
v 2 10 -0.5
v -3 10 -1.5
v 3 10 -1.5
v -3 12 1.5
v -1 12 1.5
v 1 12 1.5
v 2 12 1.5
v -3 12 0.5
v -2 12 0.5
v -1 12 0.5
v 0 12 0.5
v -2 12 -0.5
v -1 12 -0.5
v 0 12 -0.5
v 1 12 -0.5
v 2 12 -0.5
v -2 12 -1.5
v -1 12 -1.5
v 0 12 -1.5
v 1 12 -1.5
v -1 13 1.5
v 0 13 1.5
v 1 13 1.5
v 2 13 1.5
v 3 13 1.5
v -3 13 0.5
v -2 13 0.5
v -1 13 0.5
v 0 13 0.5
v 1 13 0.5
v 2 13 0.5
v 3 13 0.5
v -3 13 -0.5
v -2 13 -0.5
v 2 13 -0.5
v 3 13 -0.5
v -3 13 -1.5
v -1 13 -1.5
v 0 13 -1.5
v 1 13 -1.5
v -3 13 -2.5
v -1 13 -2.5
v 0 13 -2.5
v 1 13 -2.5
v -1 14 2.5
v 0 14 2.5
v -1 14 1.5
v 0 14 1.5
v 3 14 1.5
v 4 14 1.5
v -4 14 0.5
v -3 14 0.5
v 0 14 0.5
v 1 14 0.5
v 3 14 0.5
v 4 14 0.5
v -4 14 -0.5
v -3 14 -0.5
v 0 14 -0.5
v 1 14 -0.5
v 0 14 -2.5
v 1 14 -2.5
v 0 14 -3.5
v 1 14 -3.5
v -2 15 2.5
v -1 15 2.5
v -2 15 1.5
v -1 15 1.5
v 1 15 0.5
v 2 15 0.5
v 1 15 -0.5
v 2 15 -0.5
v 2 16 0.5
v 3 16 0.5
v 2 16 -0.5
v 3 16 -0.5

# faces
f 3/1/1 2/1/1 1/1/1
f 4/1/1 2/1/1 3/1/1
f 7/1/1 6/1/1 5/1/1
f 8/1/1 6/1/1 7/1/1
f 11/1/1 10/1/1 9/1/1
f 12/1/1 10/1/1 11/1/1
f 13/1/1 10/1/1 12/1/1
f 14/1/1 10/1/1 13/1/1
f 17/2/1 16/2/1 15/2/1
f 18/2/1 16/2/1 17/2/1
f 22/1/1 20/1/1 19/1/1
f 25/1/1 22/1/1 21/1/1
f 26/1/1 20/1/1 22/1/1
f 26/1/1 22/1/1 25/1/1
f 29/1/1 24/1/1 23/1/1
f 30/1/1 24/1/1 29/1/1
f 33/1/1 28/1/1 27/1/1
f 34/1/1 28/1/1 33/1/1
f 35/1/1 31/1/1 30/1/1
f 36/1/1 33/1/1 32/1/1
f 37/1/1 35/1/1 30/1/1
f 37/1/1 36/1/1 35/1/1
f 38/1/1 33/1/1 36/1/1
f 38/1/1 36/1/1 37/1/1
f 41/2/1 40/2/1 39/2/1
f 42/2/1 40/2/1 41/2/1
f 43/2/1 40/2/1 42/2/1
f 46/2/1 45/2/1 44/2/1
f 47/2/1 45/2/1 46/2/1
f 51/1/1 49/1/1 48/1/1
f 52/1/1 49/1/1 51/1/1
f 55/1/1 51/1/1 50/1/1
f 56/1/1 51/1/1 55/1/1
f 57/1/1 54/1/1 53/1/1
f 58/1/1 54/1/1 57/1/1
f 61/2/1 60/2/1 59/2/1
f 62/2/1 60/2/1 61/2/1
f 64/2/1 63/2/1 62/2/1
f 65/2/1 63/2/1 64/2/1
f 66/2/1 63/2/1 65/2/1
f 69/2/1 68/2/1 67/2/1
f 70/2/1 68/2/1 69/2/1
f 73/1/1 72/1/1 71/1/1
f 76/1/1 73/1/1 71/1/1
f 76/1/1 74/1/1 73/1/1
f 77/1/1 74/1/1 76/1/1
f 79/1/1 76/1/1 75/1/1
f 80/1/1 76/1/1 79/1/1
f 81/1/1 78/1/1 77/1/1
f 82/1/1 78/1/1 81/1/1
f 86/2/1 84/2/1 83/2/1
f 86/2/1 85/2/1 84/2/1
f 87/2/1 85/2/1 86/2/1
f 88/2/1 85/2/1 87/2/1
f 92/2/1 90/2/1 89/2/1
f 93/2/1 90/2/1 92/2/1
f 94/2/1 90/2/1 93/2/1
f 96/2/1 92/2/1 91/2/1
f 97/2/1 95/2/1 94/2/1
f 97/2/1 94/2/1 93/2/1
f 98/2/1 95/2/1 97/2/1
f 99/2/1 92/2/1 96/2/1
f 100/2/1 92/2/1 99/2/1
f 101/2/1 95/2/1 98/2/1
f 102/2/1 95/2/1 101/2/1
f 105/2/1 104/2/1 103/2/1
f 106/2/1 104/2/1 105/2/1
f 109/2/1 108/2/1 107/2/1
f 110/2/1 108/2/1 109/2/1
f 111/2/1 108/2/1 110/2/1
f 114/2/1 113/2/1 112/2/1
f 115/2/1 113/2/1 114/2/1
f 118/2/1 117/2/1 116/2/1
f 119/2/1 117/2/1 118/2/1
f 122/1/1 121/1/1 120/1/1
f 123/1/1 121/1/1 122/1/1
f 126/1/1 125/1/1 124/1/1
f 127/1/1 125/1/1 126/1/1
f 128/1/2 129/1/2 130/1/2
f 130/1/2 129/1/2 131/1/2
f 132/1/2 133/1/2 134/1/2
f 134/1/2 133/1/2 135/1/2
f 136/2/2 137/2/2 138/2/2
f 138/2/2 137/2/2 139/2/2
f 140/2/2 141/2/2 142/2/2
f 142/2/2 141/2/2 143/2/2
f 144/2/2 145/2/2 146/2/2
f 146/2/2 145/2/2 147/2/2
f 147/2/2 145/2/2 148/2/2
f 148/2/2 145/2/2 149/2/2
f 150/2/2 151/2/2 152/2/2
f 152/2/2 151/2/2 153/2/2
f 154/1/2 155/1/2 156/1/2
f 156/1/2 155/1/2 157/1/2
f 158/2/2 159/2/2 160/2/2
f 158/2/2 160/2/2 161/2/2
f 161/2/2 160/2/2 162/2/2
f 163/1/2 164/1/2 166/1/2
f 166/1/2 164/1/2 167/1/2
f 165/1/2 166/1/2 169/1/2
f 169/1/2 166/1/2 170/1/2
f 167/1/2 168/1/2 171/1/2
f 171/1/2 168/1/2 172/1/2
f 173/2/2 174/2/2 176/2/2
f 176/2/2 174/2/2 177/2/2
f 177/2/2 174/2/2 178/2/2
f 175/2/2 176/2/2 180/2/2
f 180/2/2 176/2/2 181/2/2
f 181/2/2 176/2/2 182/2/2
f 178/2/2 179/2/2 183/2/2
f 177/2/2 178/2/2 183/2/2
f 183/2/2 179/2/2 184/2/2
f 184/2/2 179/2/2 185/2/2
f 185/2/2 179/2/2 186/2/2
f 187/1/2 188/1/2 190/1/2
f 190/1/2 188/1/2 191/1/2
f 189/1/2 190/1/2 194/1/2
f 194/1/2 190/1/2 195/1/2
f 192/1/2 193/1/2 196/1/2
f 196/1/2 193/1/2 197/1/2
f 198/2/2 199/2/2 200/2/2
f 200/2/2 199/2/2 201/2/2
f 202/2/2 203/2/2 204/2/2
f 204/2/2 203/2/2 205/2/2
f 206/1/2 207/1/2 209/1/2
f 208/1/2 209/1/2 212/1/2
f 209/1/2 207/1/2 213/1/2
f 212/1/2 209/1/2 213/1/2
f 210/1/2 211/1/2 216/1/2
f 216/1/2 211/1/2 217/1/2
f 214/1/2 215/1/2 220/1/2
f 220/1/2 215/1/2 221/1/2
f 217/1/2 218/1/2 222/1/2
f 219/1/2 220/1/2 223/1/2
f 217/1/2 222/1/2 224/1/2
f 222/1/2 223/1/2 224/1/2
f 223/1/2 220/1/2 225/1/2
f 224/1/2 223/1/2 225/1/2
f 226/2/2 227/2/2 228/2/2
f 228/2/2 227/2/2 229/2/2
f 229/2/2 227/2/2 230/2/2
f 230/2/2 227/2/2 231/2/2
f 232/2/2 233/2/2 234/2/2
f 234/2/2 233/2/2 235/2/2
f 236/1/2 237/1/2 238/1/2
f 238/1/2 237/1/2 239/1/2
f 239/1/2 237/1/2 240/1/2
f 240/1/2 237/1/2 241/1/2
f 242/2/2 243/2/2 244/2/2
f 244/2/2 243/2/2 245/2/2
f 246/1/2 247/1/2 248/1/2
f 248/1/2 247/1/2 249/1/2
f 250/1/2 251/1/2 252/1/2
f 252/1/2 251/1/2 253/1/2
f 256/1/3 255/1/3 254/1/3
f 257/1/3 255/1/3 256/1/3
f 260/1/3 259/1/3 258/1/3
f 261/1/3 259/1/3 260/1/3
f 265/1/3 262/1/3 261/1/3
f 266/1/3 262/1/3 265/1/3
f 270/1/3 264/1/3 263/1/3
f 271/1/3 265/1/3 261/1/3
f 271/3/3 266/3/3 265/3/3
f 272/3/3 266/3/3 271/3/3
f 274/2/3 268/2/3 267/2/3
f 275/2/3 268/2/3 274/2/3
f 276/2/3 268/2/3 275/2/3
f 277/2/3 274/2/3 273/2/3
f 277/2/3 275/2/3 274/2/3
f 278/2/3 275/2/3 277/2/3
f 279/1/3 270/1/3 269/1/3
f 280/1/3 264/1/3 270/1/3
f 280/1/3 270/1/3 279/1/3
f 281/1/3 272/1/3 271/1/3
f 281/1/3 271/1/3 261/1/3
f 282/1/3 272/1/3 281/1/3
f 283/1/3 264/1/3 280/1/3
f 284/1/3 264/1/3 283/1/3
f 285/3/3 282/3/3 281/3/3
f 285/1/3 281/1/3 261/1/3
f 286/3/3 282/3/3 285/3/3
f 288/1/3 285/1/3 261/1/3
f 288/1/3 286/1/3 285/1/3
f 289/1/3 286/1/3 288/1/3
f 290/1/3 288/1/3 287/1/3
f 291/1/3 288/1/3 290/1/3
f 295/1/3 293/1/3 292/1/3
f 296/1/3 293/1/3 295/1/3
f 297/1/3 293/1/3 296/1/3
f 298/1/3 295/1/3 294/1/3
f 298/1/3 296/1/3 295/1/3
f 299/1/3 296/1/3 298/1/3
f 300/1/3 296/1/3 299/1/3
f 303/1/3 299/1/3 298/1/3
f 304/1/3 299/1/3 303/1/3
f 308/1/3 302/1/3 301/1/3
f 309/1/3 302/1/3 308/1/3
f 311/2/3 306/2/3 305/2/3
f 313/1/3 308/1/3 307/1/3
f 314/1/3 308/1/3 313/1/3
f 315/2/3 311/2/3 310/2/3
f 316/2/3 306/2/3 311/2/3
f 316/2/3 311/2/3 315/2/3
f 317/1/3 313/1/3 312/1/3
f 318/1/3 313/1/3 317/1/3
f 319/2/3 316/2/3 315/2/3
f 321/1/3 313/1/3 318/1/3
f 322/1/3 313/1/3 321/1/3
f 324/2/3 319/2/3 315/2/3
f 324/2/3 320/2/3 319/2/3
f 325/2/3 320/2/3 324/2/3
f 326/2/3 320/2/3 325/2/3
f 327/1/3 323/1/3 322/1/3
f 328/1/3 323/1/3 327/1/3
f 330/2/3 325/2/3 324/2/3
f 331/2/3 325/2/3 330/2/3
f 332/2/3 325/2/3 331/2/3
f 334/1/3 329/1/3 328/1/3
f 335/1/3 329/1/3 334/1/3
f 338/2/3 333/2/3 332/2/3
f 338/2/3 332/2/3 331/2/3
f 339/2/3 333/2/3 338/2/3
f 340/2/3 333/2/3 339/2/3
f 342/1/3 337/1/3 336/1/3
f 343/1/3 337/1/3 342/1/3
f 345/2/3 340/2/3 339/2/3
f 345/2/3 341/2/3 340/2/3
f 346/2/3 341/2/3 345/2/3
f 347/1/3 344/1/3 343/1/3
f 347/1/3 343/1/3 342/1/3
f 348/1/3 344/1/3 347/1/3
f 349/1/3 344/1/3 348/1/3
f 351/1/3 350/1/3 349/1/3
f 351/1/3 349/1/3 348/1/3
f 352/1/3 350/1/3 351/1/3
f 357/2/3 354/2/3 353/2/3
f 358/2/3 354/2/3 357/2/3
f 359/2/3 354/2/3 358/2/3
f 360/1/3 356/1/3 355/1/3
f 361/1/3 356/1/3 360/1/3
f 362/2/3 358/2/3 357/2/3
f 363/2/3 358/2/3 362/2/3
f 366/2/3 365/2/3 364/2/3
f 367/2/3 365/2/3 366/2/3
f 371/2/3 367/2/3 366/2/3
f 371/2/3 368/2/3 367/2/3
f 372/2/3 368/2/3 371/2/3
f 373/2/3 368/2/3 372/2/3
f 375/1/3 370/1/3 369/1/3
f 376/1/3 370/1/3 375/1/3
f 377/2/3 374/2/3 373/2/3
f 377/2/3 373/2/3 372/2/3
f 378/2/3 374/2/3 377/2/3
f 381/2/3 380/2/3 379/2/3
f 382/2/3 380/2/3 381/2/3
f 383/2/3 380/2/3 382/2/3
f 386/2/3 385/2/3 384/2/3
f 387/2/3 385/2/3 386/2/3
f 390/2/3 389/2/3 388/2/3
f 391/2/3 389/2/3 390/2/3
f 392/2/4 393/2/4 394/2/4
f 394/2/4 393/2/4 395/2/4
f 395/2/4 393/2/4 396/2/4
f 394/2/4 395/2/4 397/2/4
f 397/2/4 395/2/4 398/2/4
f 399/1/4 400/1/4 402/1/4
f 402/1/4 400/1/4 403/1/4
f 403/1/4 400/1/4 404/1/4
f 401/1/4 402/1/4 405/1/4
f 402/1/4 403/1/4 405/1/4
f 405/1/4 403/1/4 406/1/4
f 406/1/4 403/1/4 407/1/4
f 405/1/4 406/1/4 408/1/4
f 408/1/4 406/1/4 409/1/4
f 410/1/4 411/1/4 414/1/4
f 414/1/4 411/1/4 415/1/4
f 412/2/4 413/2/4 416/2/4
f 416/2/4 413/2/4 417/2/4
f 418/1/4 419/1/4 423/1/4
f 423/1/4 419/1/4 424/1/4
f 420/2/4 421/2/4 426/2/4
f 421/2/4 422/2/4 426/2/4
f 426/2/4 422/2/4 427/2/4
f 424/1/4 425/1/4 428/1/4
f 423/1/4 424/1/4 428/1/4
f 428/1/4 425/1/4 429/1/4
f 429/1/4 425/1/4 430/1/4
f 430/1/4 431/1/4 432/1/4
f 429/1/4 430/1/4 432/1/4
f 432/1/4 431/1/4 433/1/4
f 434/2/4 435/2/4 439/2/4
f 439/2/4 435/2/4 440/2/4
f 440/2/4 435/2/4 441/2/4
f 436/1/4 437/1/4 442/1/4
f 442/1/4 437/1/4 443/1/4
f 438/2/4 439/2/4 445/2/4
f 439/2/4 440/2/4 445/2/4
f 445/2/4 440/2/4 446/2/4
f 446/2/4 440/2/4 447/2/4
f 436/1/4 442/1/4 449/1/4
f 449/1/4 442/1/4 450/1/4
f 444/2/4 445/2/4 451/2/4
f 451/2/4 452/2/4 453/2/4
f 444/2/4 451/2/4 453/2/4
f 453/2/4 452/2/4 454/2/4
f 448/1/4 449/1/4 456/1/4
f 456/1/4 449/1/4 457/1/4
f 444/2/4 453/2/4 459/2/4
f 454/2/4 455/2/4 460/2/4
f 460/2/4 455/2/4 461/2/4
f 461/2/4 455/2/4 462/2/4
f 457/1/4 458/1/4 464/1/4
f 444/2/4 459/2/4 466/2/4
f 459/2/4 460/2/4 466/2/4
f 466/2/4 460/2/4 467/2/4
f 467/2/4 460/2/4 468/2/4
f 461/2/4 462/2/4 469/2/4
f 462/2/4 463/2/4 469/2/4
f 469/2/4 463/2/4 470/2/4
f 470/2/4 463/2/4 471/2/4
f 464/1/4 465/1/4 473/1/4
f 457/1/4 464/1/4 473/1/4
f 473/1/4 465/1/4 474/1/4
f 467/2/4 468/2/4 475/2/4
f 468/2/4 469/2/4 475/2/4
f 475/2/4 469/2/4 476/2/4
f 471/2/4 472/2/4 477/2/4
f 470/2/4 471/2/4 477/2/4
f 477/2/4 472/2/4 478/2/4
f 479/1/4 480/1/4 481/1/4
f 481/1/4 480/1/4 482/1/4
f 484/1/4 485/1/4 487/1/4
f 486/1/4 487/1/4 488/1/4
f 487/1/4 485/1/4 489/1/4
f 488/1/4 487/1/4 489/1/4
f 489/1/4 485/1/4 490/1/4
f 490/1/4 485/1/4 491/1/4
f 482/1/4 483/1/4 493/1/4
f 493/1/4 483/1/4 494/1/4
f 492/1/4 493/1/4 495/1/4
f 495/1/4 493/1/4 496/1/4
f 499/2/4 500/2/4 502/2/4
f 501/2/4 502/2/4 503/2/4
f 502/2/4 500/2/4 504/2/4
f 503/2/4 502/2/4 504/2/4
f 505/2/4 506/2/4 507/2/4
f 507/2/4 506/2/4 508/2/4
f 497/1/4 498/1/4 509/1/4
f 509/1/4 498/1/4 510/1/4
f 511/2/4 512/2/4 513/2/4
f 513/2/4 512/2/4 514/2/4
f 517/1/5 516/1/5 515/1/5
f 518/1/5 516/1/5 517/1/5
f 522/1/5 520/1/5 519/1/5
f 523/1/5 522/1/5 521/1/5
f 524/1/5 520/1/5 522/1/5
f 524/1/5 522/1/5 523/1/5
f 528/1/5 526/1/5 525/1/5
f 529/1/5 526/1/5 528/1/5
f 532/1/5 528/1/5 527/1/5
f 533/1/5 530/1/5 529/1/5
f 535/1/5 532/1/5 531/1/5
f 536/1/5 528/1/5 532/1/5
f 536/1/5 532/1/5 535/1/5
f 537/1/5 534/1/5 533/1/5
f 537/1/5 533/1/5 529/1/5
f 538/1/5 534/1/5 537/1/5
f 539/1/5 537/1/5 536/1/5
f 540/1/5 537/1/5 539/1/5
f 546/1/5 542/1/5 541/1/5
f 547/1/5 542/1/5 546/1/5
f 548/1/5 544/1/5 543/1/5
f 549/1/5 544/1/5 548/1/5
f 551/1/5 546/1/5 545/1/5
f 552/1/5 546/1/5 551/1/5
f 553/1/5 550/1/5 549/1/5
f 554/1/5 550/1/5 553/1/5
f 559/1/5 556/1/5 555/1/5
f 560/1/5 556/1/5 559/1/5
f 561/1/5 558/1/5 557/1/5
f 562/1/5 558/1/5 561/1/5
f 566/1/5 564/1/5 563/1/5
f 567/1/5 564/1/5 566/1/5
f 568/1/5 564/1/5 567/1/5
f 569/1/5 564/1/5 568/1/5
f 571/1/5 566/1/5 565/1/5
f 571/1/5 567/1/5 566/1/5
f 572/1/5 567/1/5 571/1/5
f 573/1/5 570/1/5 569/1/5
f 573/1/5 569/1/5 568/1/5
f 574/1/5 570/1/5 573/1/5
f 575/1/5 571/1/5 565/1/5
f 578/1/5 570/1/5 574/1/5
f 579/1/5 576/1/5 575/1/5
f 579/1/5 575/1/5 565/1/5
f 580/1/5 576/1/5 579/1/5
f 581/1/5 576/1/5 580/1/5
f 582/1/5 578/1/5 577/1/5
f 583/1/5 570/1/5 578/1/5
f 583/1/5 578/1/5 582/1/5
f 584/1/5 570/1/5 583/1/5
f 585/1/5 581/1/5 580/1/5
f 585/1/5 582/1/5 581/1/5
f 585/1/5 583/1/5 582/1/5
f 586/1/5 583/1/5 585/1/5
f 591/1/5 588/1/5 587/1/5
f 592/1/5 588/1/5 591/1/5
f 593/1/5 590/1/5 589/1/5
f 594/1/5 590/1/5 593/1/5
f 599/1/5 596/1/5 595/1/5
f 600/1/5 596/1/5 599/1/5
f 601/1/5 598/1/5 597/1/5
f 602/1/5 598/1/5 601/1/5
f 607/2/5 604/2/5 603/2/5
f 608/2/5 604/2/5 607/2/5
f 612/2/5 606/2/5 605/2/5
f 613/2/5 606/2/5 612/2/5
f 614/2/5 609/2/5 608/2/5
f 615/2/5 609/2/5 614/2/5
f 616/2/5 611/2/5 610/2/5
f 617/2/5 611/2/5 616/2/5
f 620/2/5 619/2/5 618/2/5
f 621/2/5 619/2/5 620/2/5
f 626/2/5 623/2/5 622/2/5
f 627/2/5 623/2/5 626/2/5
f 628/2/5 625/2/5 624/2/5
f 629/2/5 625/2/5 628/2/5
f 632/2/5 631/2/5 630/2/5
f 633/2/5 631/2/5 632/2/5
f 636/2/5 635/2/5 634/2/5
f 637/2/5 635/2/5 636/2/5
f 640/2/5 639/2/5 638/2/5
f 641/2/5 639/2/5 640/2/5
f 644/2/5 643/2/5 642/2/5
f 645/2/5 643/2/5 644/2/5
f 648/2/5 647/2/5 646/2/5
f 649/2/5 647/2/5 648/2/5
f 650/1/6 651/1/6 653/1/6
f 653/1/6 651/1/6 654/1/6
f 652/1/6 653/1/6 656/1/6
f 656/1/6 653/1/6 657/1/6
f 654/1/6 655/1/6 658/1/6
f 658/1/6 655/1/6 659/1/6
f 660/1/6 661/1/6 664/1/6
f 664/1/6 661/1/6 665/1/6
f 662/1/6 663/1/6 666/1/6
f 666/1/6 663/1/6 667/1/6
f 665/1/6 666/1/6 668/1/6
f 668/1/6 666/1/6 669/1/6
f 670/1/6 671/1/6 674/1/6
f 674/1/6 671/1/6 675/1/6
f 672/1/6 673/1/6 676/1/6
f 676/1/6 673/1/6 677/1/6
f 678/1/6 679/1/6 682/1/6
f 682/1/6 679/1/6 683/1/6
f 680/1/6 681/1/6 684/1/6
f 684/1/6 681/1/6 685/1/6
f 686/1/6 687/1/6 694/1/6
f 687/3/6 688/3/6 694/3/6
f 688/1/6 689/1/6 695/1/6
f 694/3/6 688/3/6 695/3/6
f 689/3/6 690/3/6 696/3/6
f 695/1/6 689/1/6 696/1/6
f 690/1/6 691/1/6 697/1/6
f 696/3/6 690/3/6 697/3/6
f 692/1/6 693/1/6 700/1/6
f 700/1/6 693/1/6 701/1/6
f 698/1/6 699/1/6 702/1/6
f 702/1/6 699/1/6 703/1/6
f 686/1/6 694/1/6 704/1/6
f 697/1/6 691/1/6 705/1/6
f 686/1/6 704/1/6 706/1/6
f 704/1/6 705/1/6 706/1/6
f 705/1/6 691/1/6 707/1/6
f 706/1/6 705/1/6 707/1/6
f 708/2/6 709/2/6 712/2/6
f 712/2/6 709/2/6 713/2/6
f 713/2/6 709/2/6 714/2/6
f 714/2/6 715/2/6 716/2/6
f 713/2/6 714/2/6 716/2/6
f 716/2/6 715/2/6 717/2/6
f 717/2/6 715/2/6 718/2/6
f 710/2/6 711/2/6 719/2/6
f 719/2/6 711/2/6 720/2/6
f 716/2/6 717/2/6 721/2/6
f 721/2/6 717/2/6 722/2/6
f 718/2/6 719/2/6 723/2/6
f 723/2/6 719/2/6 724/2/6
f 725/2/6 726/2/6 732/2/6
f 726/2/6 727/2/6 732/2/6
f 732/2/6 727/2/6 733/2/6
f 733/2/6 727/2/6 734/2/6
f 728/2/6 729/2/6 735/2/6
f 735/2/6 729/2/6 736/2/6
f 730/2/6 731/2/6 737/2/6
f 737/2/6 731/2/6 738/2/6
f 735/2/6 736/2/6 739/2/6
f 739/2/6 736/2/6 740/2/6
f 741/2/6 742/2/6 745/2/6
f 745/2/6 742/2/6 746/2/6
f 743/2/6 744/2/6 747/2/6
f 747/2/6 744/2/6 748/2/6
f 749/2/6 750/2/6 751/2/6
f 751/2/6 750/2/6 752/2/6
f 753/2/6 754/2/6 759/2/6
f 759/2/6 754/2/6 760/2/6
f 755/2/6 756/2/6 761/2/6
f 761/2/6 756/2/6 762/2/6
f 757/2/6 758/2/6 763/2/6
f 763/2/6 758/2/6 764/2/6
f 765/2/6 766/2/6 767/2/6
f 767/2/6 766/2/6 768/2/6
f 769/2/6 770/2/6 771/2/6
f 771/2/6 770/2/6 772/2/6
f 773/2/6 774/2/6 775/2/6
f 775/2/6 774/2/6 776/2/6
f 777/2/6 778/2/6 779/2/6
f 779/2/6 778/2/6 780/2/6
