# MagicaVoxel @ Ephtracy

# material
mtllib BeetMan.mtl
usemtl palette

# normals
vn -1 0 0
vn 1 0 0
vn 0 0 1
vn 0 0 -1
vn 0 -1 0
vn 0 1 0

# texcoords
vt 0.861328 0.5
vt 0.896484 0.5
vt 0.994141 0.5

# verts
v -6 8 1.5
v -6 8 0.5
v -6 10 1.5
v -6 10 0.5
v -5 7 1.5
v -5 7 0.5
v -5 8 1.5
v -5 8 0.5
v -4 6 2.5
v -4 6 -1.5
v -4 7 3.5
v -4 7 2.5
v -4 7 1.5
v -4 7 0.5
v -4 7 -1.5
v -4 7 -2.5
v -4 8 3.5
v -4 8 1.5
v -4 8 0.5
v -4 8 -2.5
v -3 4 1.5
v -3 4 -0.5
v -3 5 2.5
v -3 5 1.5
v -3 5 -0.5
v -3 5 -1.5
v -3 6 3.5
v -3 6 2.5
v -3 6 -1.5
v -3 6 -2.5
v -3 7 3.5
v -3 7 2.5
v -3 7 -1.5
v -3 7 -2.5
v -3 8 2.5
v -3 8 -1.5
v -3 10 2.5
v -3 10 -1.5
v -2 3 1.5
v -2 3 -0.5
v -2 4 2.5
v -2 4 1.5
v -2 4 -0.5
v -2 4 -1.5
v -2 5 2.5
v -2 5 1.5
v -2 5 -0.5
v -2 5 -1.5
v -1 2 1.5
v -1 2 -0.5
v -1 3 1.5
v -1 3 -0.5
v -1 10 1.5
v -1 10 0.5
v -1 12 1.5
v -1 12 0.5
v 0 1 1.5
v 0 1 -0.5
v 0 2 1.5
v 0 2 -0.5
v 0 12 1.5
v 0 12 0.5
v 0 13 1.5
v 0 13 0.5
v 0 16 2.5
v 0 16 0.5
v 0 18 2.5
v 0 18 0.5
v 1 13 1.5
v 1 13 0.5
v 1 16 1.5
v 1 16 0.5
v 4 8 1.5
v 4 8 0.5
v 4 9 1.5
v 4 9 0.5
v 5 9 1.5
v 5 9 0.5
v 5 10 1.5
v 5 10 0.5
v -5 9 1.5
v -5 9 0.5
v -5 10 1.5
v -5 10 0.5
v -4 8 1.5
v -4 8 0.5
v -4 9 1.5
v -4 9 0.5
v 0 10 1.5
v 0 10 0.5
v 0 11 1.5
v 0 11 0.5
v 1 1 1.5
v 1 1 -0.5
v 1 3 1.5
v 1 3 -0.5
v 1 11 1.5
v 1 11 0.5
v 1 12 1.5
v 1 12 0.5
v 2 3 1.5
v 2 3 -0.5
v 2 4 2.5
v 2 4 1.5
v 2 4 -0.5
v 2 4 -1.5
v 2 5 2.5
v 2 5 1.5
v 2 5 -0.5
v 2 5 -1.5
v 2 12 1.5
v 2 12 0.5
v 2 13 1.5
v 2 13 0.5
v 3 4 1.5
v 3 4 -0.5
v 3 5 2.5
v 3 5 1.5
v 3 5 -0.5
v 3 5 -1.5
v 3 6 3.5
v 3 6 2.5
v 3 6 -1.5
v 3 6 -2.5
v 3 7 3.5
v 3 7 2.5
v 3 7 -1.5
v 3 7 -2.5
v 3 8 2.5
v 3 8 -1.5
v 3 10 2.5
v 3 10 -1.5
v 3 13 1.5
v 3 13 0.5
v 3 16 2.5
v 3 16 1.5
v 3 18 2.5
v 3 18 0.5
v 4 6 2.5
v 4 6 -1.5
v 4 7 3.5
v 4 7 2.5
v 4 7 1.5
v 4 7 0.5
v 4 7 -1.5
v 4 7 -2.5
v 4 8 3.5
v 4 8 1.5
v 4 8 0.5
v 4 8 -2.5
v 5 7 1.5
v 5 7 0.5
v 5 8 1.5
v 5 8 0.5
v 6 8 1.5
v 6 8 0.5
v 6 10 1.5
v 6 10 0.5
v -4 7 3.5
v -4 8 3.5
v -3 6 3.5
v -3 7 3.5
v 3 6 3.5
v 3 7 3.5
v 4 7 3.5
v 4 8 3.5
v -4 6 2.5
v -4 7 2.5
v -3 5 2.5
v -3 6 2.5
v -3 7 2.5
v -3 8 2.5
v -3 10 2.5
v -2 4 2.5
v -2 5 2.5
v -2 9 2.5
v -2 10 2.5
v -1 9 2.5
v -1 10 2.5
v 0 16 2.5
v 0 18 2.5
v 1 9 2.5
v 1 10 2.5
v 2 4 2.5
v 2 5 2.5
v 2 9 2.5
v 2 10 2.5
v 3 5 2.5
v 3 6 2.5
v 3 7 2.5
v 3 8 2.5
v 3 10 2.5
v 3 16 2.5
v 3 18 2.5
v 4 6 2.5
v 4 7 2.5
v -6 8 1.5
v -6 10 1.5
v -5 7 1.5
v -5 8 1.5
v -5 9 1.5
v -5 10 1.5
v -4 7 1.5
v -4 8 1.5
v -4 9 1.5
v -3 4 1.5
v -3 5 1.5
v -2 3 1.5
v -2 4 1.5
v -2 5 1.5
v -1 2 1.5
v -1 3 1.5
v -1 10 1.5
v -1 12 1.5
v 0 1 1.5
v 0 2 1.5
v 0 10 1.5
v 0 11 1.5
v 0 12 1.5
v 0 13 1.5
v 1 1 1.5
v 1 3 1.5
v 1 11 1.5
v 1 12 1.5
v 1 13 1.5
v 1 16 1.5
v 2 3 1.5
v 2 4 1.5
v 2 5 1.5
v 2 12 1.5
v 2 13 1.5
v 3 4 1.5
v 3 5 1.5
v 3 13 1.5
v 3 16 1.5
v 4 7 1.5
v 4 8 1.5
v 4 9 1.5
v 5 7 1.5
v 5 8 1.5
v 5 9 1.5
v 5 10 1.5
v 6 8 1.5
v 6 10 1.5
v -6 8 0.5
v -6 10 0.5
v -5 7 0.5
v -5 8 0.5
v -5 9 0.5
v -5 10 0.5
v -4 7 0.5
v -4 8 0.5
v -4 9 0.5
v -1 10 0.5
v -1 12 0.5
v 0 10 0.5
v 0 11 0.5
v 0 12 0.5
v 0 13 0.5
v 0 16 0.5
v 0 18 0.5
v 1 11 0.5
v 1 12 0.5
v 1 13 0.5
v 1 16 0.5
v 2 12 0.5
v 2 13 0.5
v 3 13 0.5
v 3 18 0.5
v 4 7 0.5
v 4 8 0.5
v 4 9 0.5
v 5 7 0.5
v 5 8 0.5
v 5 9 0.5
v 5 10 0.5
v 6 8 0.5
v 6 10 0.5
v -3 4 -0.5
v -3 5 -0.5
v -2 3 -0.5
v -2 4 -0.5
v -2 5 -0.5
v -1 2 -0.5
v -1 3 -0.5
v 0 1 -0.5
v 0 2 -0.5
v 1 1 -0.5
v 1 3 -0.5
v 2 3 -0.5
v 2 4 -0.5
v 2 5 -0.5
v 3 4 -0.5
v 3 5 -0.5
v -4 6 -1.5
v -4 7 -1.5
v -3 5 -1.5
v -3 6 -1.5
v -3 7 -1.5
v -3 8 -1.5
v -3 10 -1.5
v -2 4 -1.5
v -2 5 -1.5
v 2 4 -1.5
v 2 5 -1.5
v 3 5 -1.5
v 3 6 -1.5
v 3 7 -1.5
v 3 8 -1.5
v 3 10 -1.5
v 4 6 -1.5
v 4 7 -1.5
v -4 7 -2.5
v -4 8 -2.5
v -3 6 -2.5
v -3 7 -2.5
v 3 6 -2.5
v 3 7 -2.5
v 4 7 -2.5
v 4 8 -2.5
v 0 1 1.5
v 1 1 1.5
v 0 1 -0.5
v 1 1 -0.5
v -1 2 1.5
v 0 2 1.5
v -1 2 -0.5
v 0 2 -0.5
v -2 3 1.5
v -1 3 1.5
v 1 3 1.5
v 2 3 1.5
v -2 3 -0.5
v -1 3 -0.5
v 1 3 -0.5
v 2 3 -0.5
v -2 4 2.5
v 2 4 2.5
v -3 4 1.5
v -2 4 1.5
v 2 4 1.5
v 3 4 1.5
v -3 4 -0.5
v -2 4 -0.5
v 2 4 -0.5
v 3 4 -0.5
v -2 4 -1.5
v 2 4 -1.5
v -3 5 2.5
v -2 5 2.5
v 2 5 2.5
v 3 5 2.5
v -3 5 1.5
v -2 5 1.5
v 2 5 1.5
v 3 5 1.5
v -3 5 -0.5
v -2 5 -0.5
v 2 5 -0.5
v 3 5 -0.5
v -3 5 -1.5
v -2 5 -1.5
v 2 5 -1.5
v 3 5 -1.5
v -3 6 3.5
v 3 6 3.5
v -4 6 2.5
v -3 6 2.5
v 3 6 2.5
v 4 6 2.5
v -4 6 -1.5
v -3 6 -1.5
v 3 6 -1.5
v 4 6 -1.5
v -3 6 -2.5
v 3 6 -2.5
v -4 7 3.5
v -3 7 3.5
v 3 7 3.5
v 4 7 3.5
v -4 7 2.5
v -3 7 2.5
v 3 7 2.5
v 4 7 2.5
v -5 7 1.5
v -4 7 1.5
v 4 7 1.5
v 5 7 1.5
v -5 7 0.5
v -4 7 0.5
v 4 7 0.5
v 5 7 0.5
v -4 7 -1.5
v -3 7 -1.5
v 3 7 -1.5
v 4 7 -1.5
v -4 7 -2.5
v -3 7 -2.5
v 3 7 -2.5
v 4 7 -2.5
v -6 8 1.5
v -5 8 1.5
v 5 8 1.5
v 6 8 1.5
v -6 8 0.5
v -5 8 0.5
v 5 8 0.5
v 6 8 0.5
v 0 11 1.5
v 1 11 1.5
v 0 11 0.5
v 1 11 0.5
v 1 12 1.5
v 2 12 1.5
v 1 12 0.5
v 2 12 0.5
v 2 13 1.5
v 3 13 1.5
v 2 13 0.5
v 3 13 0.5
v 0 16 2.5
v 3 16 2.5
v 1 16 1.5
v 3 16 1.5
v 0 16 0.5
v 1 16 0.5
v -4 8 3.5
v 4 8 3.5
v -3 8 2.5
v 3 8 2.5
v -4 8 1.5
v 4 8 1.5
v -4 8 0.5
v 4 8 0.5
v -3 8 -1.5
v 3 8 -1.5
v -4 8 -2.5
v 4 8 -2.5
v -5 9 1.5
v -4 9 1.5
v 4 9 1.5
v 5 9 1.5
v -5 9 0.5
v -4 9 0.5
v 4 9 0.5
v 5 9 0.5
v -3 10 2.5
v -2 10 2.5
v -1 10 2.5
v 1 10 2.5
v 2 10 2.5
v 3 10 2.5
v -6 10 1.5
v -5 10 1.5
v -2 10 1.5
v -1 10 1.5
v 0 10 1.5
v 1 10 1.5
v 2 10 1.5
v 5 10 1.5
v 6 10 1.5
v -6 10 0.5
v -5 10 0.5
v -1 10 0.5
v 0 10 0.5
v 5 10 0.5
v 6 10 0.5
v -3 10 -1.5
v 3 10 -1.5
v -1 12 1.5
v 0 12 1.5
v -1 12 0.5
v 0 12 0.5
v 0 13 1.5
v 1 13 1.5
v 0 13 0.5
v 1 13 0.5
v 0 18 2.5
v 3 18 2.5
v 0 18 0.5
v 3 18 0.5

# faces
f 3/1/1 2/1/1 1/1/1
f 4/1/1 2/1/1 3/1/1
f 7/1/1 6/1/1 5/1/1
f 8/1/1 6/1/1 7/1/1
f 12/1/1 10/1/1 9/1/1
f 13/1/1 10/1/1 12/1/1
f 14/1/1 10/1/1 13/1/1
f 15/1/1 10/1/1 14/1/1
f 17/1/1 12/1/1 11/1/1
f 17/1/1 13/1/1 12/1/1
f 18/1/1 13/1/1 17/1/1
f 19/1/1 16/1/1 15/1/1
f 19/1/1 15/1/1 14/1/1
f 20/1/1 16/1/1 19/1/1
f 24/1/1 22/1/1 21/1/1
f 25/1/1 22/1/1 24/1/1
f 28/1/1 24/1/1 23/1/1
f 28/1/1 26/1/1 25/1/1
f 28/1/1 25/1/1 24/1/1
f 29/1/1 26/1/1 28/1/1
f 31/1/1 28/1/1 27/1/1
f 32/1/1 28/1/1 31/1/1
f 33/1/1 30/1/1 29/1/1
f 34/1/1 30/1/1 33/1/1
f 37/1/1 36/1/1 35/1/1
f 38/1/1 36/1/1 37/1/1
f 42/1/1 40/1/1 39/1/1
f 43/1/1 40/1/1 42/1/1
f 45/1/1 42/1/1 41/1/1
f 46/1/1 42/1/1 45/1/1
f 47/1/1 44/1/1 43/1/1
f 48/1/1 44/1/1 47/1/1
f 51/1/1 50/1/1 49/1/1
f 52/1/1 50/1/1 51/1/1
f 55/2/1 54/2/1 53/2/1
f 56/2/1 54/2/1 55/2/1
f 59/1/1 58/1/1 57/1/1
f 60/1/1 58/1/1 59/1/1
f 63/2/1 62/2/1 61/2/1
f 64/2/1 62/2/1 63/2/1
f 67/2/1 66/2/1 65/2/1
f 68/2/1 66/2/1 67/2/1
f 71/2/1 70/2/1 69/2/1
f 72/2/1 70/2/1 71/2/1
f 75/1/1 74/1/1 73/1/1
f 76/1/1 74/1/1 75/1/1
f 79/1/1 78/1/1 77/1/1
f 80/1/1 78/1/1 79/1/1
f 81/1/2 82/1/2 83/1/2
f 83/1/2 82/1/2 84/1/2
f 85/1/2 86/1/2 87/1/2
f 87/1/2 86/1/2 88/1/2
f 89/2/2 90/2/2 91/2/2
f 91/2/2 90/2/2 92/2/2
f 93/1/2 94/1/2 95/1/2
f 95/1/2 94/1/2 96/1/2
f 97/2/2 98/2/2 99/2/2
f 99/2/2 98/2/2 100/2/2
f 101/1/2 102/1/2 104/1/2
f 104/1/2 102/1/2 105/1/2
f 103/1/2 104/1/2 107/1/2
f 107/1/2 104/1/2 108/1/2
f 105/1/2 106/1/2 109/1/2
f 109/1/2 106/1/2 110/1/2
f 111/2/2 112/2/2 113/2/2
f 113/2/2 112/2/2 114/2/2
f 115/1/2 116/1/2 118/1/2
f 118/1/2 116/1/2 119/1/2
f 117/1/2 118/1/2 122/1/2
f 119/1/2 120/1/2 122/1/2
f 118/1/2 119/1/2 122/1/2
f 122/1/2 120/1/2 123/1/2
f 121/1/2 122/1/2 125/1/2
f 125/1/2 122/1/2 126/1/2
f 123/1/2 124/1/2 127/1/2
f 127/1/2 124/1/2 128/1/2
f 129/1/2 130/1/2 131/1/2
f 131/1/2 130/1/2 132/1/2
f 133/2/2 134/2/2 136/2/2
f 135/2/2 136/2/2 137/2/2
f 136/2/2 134/2/2 138/2/2
f 137/2/2 136/2/2 138/2/2
f 139/1/2 140/1/2 142/1/2
f 142/1/2 140/1/2 143/1/2
f 143/1/2 140/1/2 144/1/2
f 144/1/2 140/1/2 145/1/2
f 141/1/2 142/1/2 147/1/2
f 142/1/2 143/1/2 147/1/2
f 147/1/2 143/1/2 148/1/2
f 145/1/2 146/1/2 149/1/2
f 144/1/2 145/1/2 149/1/2
f 149/1/2 146/1/2 150/1/2
f 151/1/2 152/1/2 153/1/2
f 153/1/2 152/1/2 154/1/2
f 155/1/2 156/1/2 157/1/2
f 157/1/2 156/1/2 158/1/2
f 162/1/3 160/1/3 159/1/3
f 163/1/3 162/1/3 161/1/3
f 164/1/3 160/1/3 162/1/3
f 164/1/3 162/1/3 163/1/3
f 165/1/3 160/1/3 164/1/3
f 166/1/3 160/1/3 165/1/3
f 170/1/3 168/1/3 167/1/3
f 171/1/3 168/1/3 170/1/3
f 175/1/3 170/1/3 169/1/3
f 176/1/3 173/1/3 172/1/3
f 177/1/3 173/1/3 176/1/3
f 178/1/3 176/1/3 172/1/3
f 178/3/3 177/3/3 176/3/3
f 179/3/3 177/3/3 178/3/3
f 182/1/3 179/1/3 178/1/3
f 182/1/3 178/1/3 172/1/3
f 183/1/3 179/1/3 182/1/3
f 184/1/3 175/1/3 174/1/3
f 185/1/3 170/1/3 175/1/3
f 185/1/3 175/1/3 184/1/3
f 186/1/3 182/1/3 172/1/3
f 186/3/3 183/3/3 182/3/3
f 187/3/3 183/3/3 186/3/3
f 188/1/3 170/1/3 185/1/3
f 189/1/3 170/1/3 188/1/3
f 191/1/3 187/1/3 186/1/3
f 191/1/3 186/1/3 172/1/3
f 192/1/3 187/1/3 191/1/3
f 193/2/3 181/2/3 180/2/3
f 194/2/3 181/2/3 193/2/3
f 195/1/3 190/1/3 189/1/3
f 196/1/3 190/1/3 195/1/3
f 200/1/3 198/1/3 197/1/3
f 201/1/3 198/1/3 200/1/3
f 202/1/3 198/1/3 201/1/3
f 203/1/3 200/1/3 199/1/3
f 203/1/3 201/1/3 200/1/3
f 204/1/3 201/1/3 203/1/3
f 205/1/3 201/1/3 204/1/3
f 209/1/3 207/1/3 206/1/3
f 210/1/3 207/1/3 209/1/3
f 212/1/3 209/1/3 208/1/3
f 216/1/3 212/1/3 211/1/3
f 217/2/3 214/2/3 213/2/3
f 218/2/3 214/2/3 217/2/3
f 219/2/3 214/2/3 218/2/3
f 221/1/3 216/1/3 215/1/3
f 222/1/3 209/1/3 212/1/3
f 222/1/3 216/1/3 221/1/3
f 222/1/3 212/1/3 216/1/3
f 223/2/3 220/2/3 219/2/3
f 223/2/3 219/2/3 218/2/3
f 224/2/3 220/2/3 223/2/3
f 225/2/3 220/2/3 224/2/3
f 227/1/3 209/1/3 222/1/3
f 228/1/3 209/1/3 227/1/3
f 230/2/3 226/2/3 225/2/3
f 230/2/3 225/2/3 224/2/3
f 231/2/3 226/2/3 230/2/3
f 232/1/3 229/1/3 228/1/3
f 233/1/3 229/1/3 232/1/3
f 234/2/3 226/2/3 231/2/3
f 235/2/3 226/2/3 234/2/3
f 239/1/3 237/1/3 236/1/3
f 239/1/3 238/1/3 237/1/3
f 240/1/3 238/1/3 239/1/3
f 241/1/3 238/1/3 240/1/3
f 243/1/3 242/1/3 241/1/3
f 243/1/3 241/1/3 240/1/3
f 244/1/3 242/1/3 243/1/3
f 245/1/4 246/1/4 248/1/4
f 248/1/4 246/1/4 249/1/4
f 249/1/4 246/1/4 250/1/4
f 247/1/4 248/1/4 251/1/4
f 248/1/4 249/1/4 251/1/4
f 251/1/4 249/1/4 252/1/4
f 252/1/4 249/1/4 253/1/4
f 254/2/4 255/2/4 256/2/4
f 256/2/4 255/2/4 257/2/4
f 257/2/4 255/2/4 258/2/4
f 257/2/4 258/2/4 262/2/4
f 258/2/4 259/2/4 262/2/4
f 262/2/4 259/2/4 263/2/4
f 263/2/4 259/2/4 264/2/4
f 260/2/4 261/2/4 265/2/4
f 263/2/4 264/2/4 266/2/4
f 264/2/4 265/2/4 266/2/4
f 266/2/4 265/2/4 267/2/4
f 267/2/4 265/2/4 268/2/4
f 265/2/4 261/2/4 269/2/4
f 268/2/4 265/2/4 269/2/4
f 270/1/4 271/1/4 273/1/4
f 271/1/4 272/1/4 273/1/4
f 273/1/4 272/1/4 274/1/4
f 274/1/4 272/1/4 275/1/4
f 275/1/4 276/1/4 277/1/4
f 274/1/4 275/1/4 277/1/4
f 277/1/4 276/1/4 278/1/4
f 279/1/4 280/1/4 282/1/4
f 282/1/4 280/1/4 283/1/4
f 281/1/4 282/1/4 285/1/4
f 284/1/4 285/1/4 287/1/4
f 286/1/4 287/1/4 288/1/4
f 285/1/4 282/1/4 289/1/4
f 288/1/4 287/1/4 289/1/4
f 287/1/4 285/1/4 289/1/4
f 289/1/4 282/1/4 290/1/4
f 290/1/4 282/1/4 291/1/4
f 291/1/4 292/1/4 293/1/4
f 293/1/4 292/1/4 294/1/4
f 295/1/4 296/1/4 298/1/4
f 298/1/4 296/1/4 299/1/4
f 297/1/4 298/1/4 303/1/4
f 302/1/4 303/1/4 304/1/4
f 303/1/4 298/1/4 305/1/4
f 304/1/4 303/1/4 305/1/4
f 305/1/4 298/1/4 306/1/4
f 306/1/4 298/1/4 307/1/4
f 300/1/4 301/1/4 309/1/4
f 309/1/4 301/1/4 310/1/4
f 307/1/4 308/1/4 311/1/4
f 311/1/4 308/1/4 312/1/4
f 313/1/4 314/1/4 316/1/4
f 315/1/4 316/1/4 317/1/4
f 316/1/4 314/1/4 318/1/4
f 317/1/4 316/1/4 318/1/4
f 318/1/4 314/1/4 319/1/4
f 319/1/4 314/1/4 320/1/4
f 323/1/5 322/1/5 321/1/5
f 324/1/5 322/1/5 323/1/5
f 327/1/5 326/1/5 325/1/5
f 328/1/5 326/1/5 327/1/5
f 333/1/5 330/1/5 329/1/5
f 334/1/5 330/1/5 333/1/5
f 335/1/5 332/1/5 331/1/5
f 336/1/5 332/1/5 335/1/5
f 340/1/5 338/1/5 337/1/5
f 341/1/5 338/1/5 340/1/5
f 343/1/5 340/1/5 339/1/5
f 344/1/5 340/1/5 343/1/5
f 345/1/5 342/1/5 341/1/5
f 346/1/5 342/1/5 345/1/5
f 347/1/5 345/1/5 344/1/5
f 348/1/5 345/1/5 347/1/5
f 353/1/5 350/1/5 349/1/5
f 354/1/5 350/1/5 353/1/5
f 355/1/5 352/1/5 351/1/5
f 356/1/5 352/1/5 355/1/5
f 361/1/5 358/1/5 357/1/5
f 362/1/5 358/1/5 361/1/5
f 363/1/5 360/1/5 359/1/5
f 364/1/5 360/1/5 363/1/5
f 368/1/5 366/1/5 365/1/5
f 369/1/5 366/1/5 368/1/5
f 371/1/5 368/1/5 367/1/5
f 372/1/5 368/1/5 371/1/5
f 373/1/5 370/1/5 369/1/5
f 374/1/5 370/1/5 373/1/5
f 375/1/5 373/1/5 372/1/5
f 376/1/5 373/1/5 375/1/5
f 381/1/5 378/1/5 377/1/5
f 382/1/5 378/1/5 381/1/5
f 383/1/5 380/1/5 379/1/5
f 384/1/5 380/1/5 383/1/5
f 389/1/5 386/1/5 385/1/5
f 390/1/5 386/1/5 389/1/5
f 391/1/5 388/1/5 387/1/5
f 392/1/5 388/1/5 391/1/5
f 397/1/5 394/1/5 393/1/5
f 398/1/5 394/1/5 397/1/5
f 399/1/5 396/1/5 395/1/5
f 400/1/5 396/1/5 399/1/5
f 405/1/5 402/1/5 401/1/5
f 406/1/5 402/1/5 405/1/5
f 407/1/5 404/1/5 403/1/5
f 408/1/5 404/1/5 407/1/5
f 411/2/5 410/2/5 409/2/5
f 412/2/5 410/2/5 411/2/5
f 415/2/5 414/2/5 413/2/5
f 416/2/5 414/2/5 415/2/5
f 419/2/5 418/2/5 417/2/5
f 420/2/5 418/2/5 419/2/5
f 423/2/5 422/2/5 421/2/5
f 424/2/5 422/2/5 423/2/5
f 425/2/5 423/2/5 421/2/5
f 426/2/5 423/2/5 425/2/5
f 427/1/6 428/1/6 429/1/6
f 429/1/6 428/1/6 430/1/6
f 427/1/6 429/1/6 431/1/6
f 430/1/6 428/1/6 432/1/6
f 431/1/6 429/1/6 433/1/6
f 430/1/6 432/1/6 434/1/6
f 433/1/6 429/1/6 435/1/6
f 430/1/6 434/1/6 436/1/6
f 433/1/6 435/1/6 437/1/6
f 435/1/6 436/1/6 437/1/6
f 436/1/6 434/1/6 438/1/6
f 437/1/6 436/1/6 438/1/6
f 439/1/6 440/1/6 443/1/6
f 443/1/6 440/1/6 444/1/6
f 441/1/6 442/1/6 445/1/6
f 445/1/6 442/1/6 446/1/6
f 447/1/6 448/1/6 455/1/6
f 448/3/6 449/3/6 455/3/6
f 449/1/6 450/1/6 456/1/6
f 455/3/6 449/3/6 456/3/6
f 456/1/6 450/1/6 457/1/6
f 450/3/6 451/3/6 458/3/6
f 457/1/6 450/1/6 458/1/6
f 451/1/6 452/1/6 459/1/6
f 458/3/6 451/3/6 459/3/6
f 453/1/6 454/1/6 462/1/6
f 462/1/6 454/1/6 463/1/6
f 455/1/6 456/1/6 464/1/6
f 457/1/6 458/1/6 465/1/6
f 458/1/6 459/1/6 465/1/6
f 460/1/6 461/1/6 466/1/6
f 466/1/6 461/1/6 467/1/6
f 464/1/6 465/1/6 468/1/6
f 455/1/6 464/1/6 468/1/6
f 447/1/6 455/1/6 468/1/6
f 465/1/6 459/1/6 469/1/6
f 468/1/6 465/1/6 469/1/6
f 459/1/6 452/1/6 469/1/6
f 470/2/6 471/2/6 472/2/6
f 472/2/6 471/2/6 473/2/6
f 474/2/6 475/2/6 476/2/6
f 476/2/6 475/2/6 477/2/6
f 478/2/6 479/2/6 480/2/6
f 480/2/6 479/2/6 481/2/6
